<?xml version="1.0" encoding="utf-8"?>
<!-- Generator: Adobe Illustrator 24.3.0, SVG Export Plug-In . SVG Version: 6.00 Build 0)  -->
<svg version="1.1" xmlns="http://www.w3.org/2000/svg" xmlns:xlink="http://www.w3.org/1999/xlink" x="0px" y="0px"
	 viewBox="0 0 689 409" style="enable-background:new 0 0 689 409;" xml:space="preserve">
<style type="text/css">
	.st0{display:none;}
	.st1{fill:none;stroke:#ffffff;stroke-width:0.5;stroke-miterlimit:10;}
</style>
<g id="Слой_1" class="st0">

		<image style="display:inline;overflow:visible;opacity:0.83;" width="1378" height="818" xlink:href="../../Downloads/grob4.png"  transform="matrix(0.5 0 0 0.5 0 0)">
	</image>
</g>
<g id="Слой_2">
	<path class="st1" d="M218.2,218.8c0,0,5.4-1.7,6-2.3"/>
	<path class="st1" d="M243.9,210.4c0,0,38.2-13.2,39.4-13.8"/>
	<path class="st1" d="M667.4,203.6c0,0,10.2,0.2,10.7,0c0.5-0.2,0,0.9,0,0.9s-27.4,90.2-32.5,100c0,0-39,97-38.2,98.4
		c0.8,1.4-319.4-65.9-343.8-64.6c0,0-78.6-14.7-89.1-17.2c-10.5-2.4-111.3-19-120.9-19.6c-9.6-0.6-48.8-15.3-48.8-15.3
		s58.6-26.2,76.8-27.3c0,0,104.3-29.7,106.2-32.7l2-0.3"/>
	<path class="st1" d="M668.4,231.7c-1.7-0.4-18.2-1.1-18.2-1.1s2.6-10.8,7.4-12c4.8-1.2,14.6,0.8,15,0.8"/>
	<path class="st1" d="M664.6,217.7c0,0,0-14.5,1-14.1s-1.6-8.7,0-10.1c1.6-1.4,0.8-9.4,1.9-8.8c1.1,0.6,1.2-7.2,2-6.6s0-3.1,0.4-2.9
		c0.4,0.2,2.7-5.9,1.7-7.3s-0.2-7.6-0.2-7.6l-66-3.1"/>
	<polyline class="st1" points="671.4,160.3 670.4,161.7 644.3,194.5 603,191.9 611.7,183.9 649.8,186.6 	"/>
	<polygon class="st1" points="601.5,191.6 609.8,183.1 575.6,181.5 567.7,190.8 	"/>
	<polygon class="st1" points="602,193.4 601.2,226.7 566.2,225.7 567.7,192.3 	"/>
	<polygon class="st1" points="604,193.9 644.5,195.6 642.8,228.2 604,226.1 	"/>
	<polygon class="st1" points="600.8,229.5 599.1,263.6 566.2,260.9 566.2,227.6 	"/>
	<path class="st1" d="M641.6,247.7l-1.3,19.9l-37.8-4.1c0,0,2.5-36,3-36l36.2,1.6c0,0-0.4,15.6-0.4,17s22.4,1.3,22.9,1.5
		s0.5,0.1,0.5,0.1"/>
	<path class="st1" d="M213.7,26.5c-3.5-1.8-16.2,2.7-16,3s19.3,0,19.3,0s-0.4-0.8-1.1-1.2c-0.7-0.4-2.2-3.2-2.8-4.3
		s-0.2-2.6-0.2-2.6l3.2-3.5c2.9-7.6-4.7-7.7-11.7-7c-7,0.8-20.3,14.3-23.1,16.6c-2.8,2.3,0,1.9,0,1.9l4,0.3c0,0,0.4,4.3,3.9,6.8
		c3.5,2.5,5.5,3.7,5.1,7.8s-0.3,5.1-0.3,5.1"/>
	<path class="st1" d="M194.6,50c-0.5-0.4-0.2-1.3-1.1-0.2s-0.7,3.6-2.5,3.9s-8.9,3.9-11.3,5.6c-2.5,1.6-8.7,3-8.9,5.8
		s-2.6,7.4-2.5,10.1c0.1,2.7,0.4,8.9,0.4,10.3c0,1.4,16.6,0.8,17.6,2.8s-0.6,7.9-0.8,8.6c-0.2,0.7-17-1.6-17.2-2.9s0.3-7.4,0.3-7.4"
		/>
	<path class="st1" d="M168.1,95.7c0,0-1.1,18.3-0.8,20.8s2.4,9.7,3.2,13.1c0.8,3.4,4,18.8,4.2,20.9c0.3,2.1,1.8,3.9,1.8,3.9
		s13.6-3.6,14.3-3.8s-2.5-10.2-2.9-13c-0.4-2.8-3.2-15.1-2.8-18.6s-1-14.4,0-16.4c1-2,0.3-5.7,0.3-5.7"/>
	<path class="st1" d="M177.7,154.8c0,0,6.5,6.3,8.8,6.5s3.4,0.8,4.2,0c0.8-0.8,2.4-1.8,1.4-4.4c-0.9-2.6-1.1-2.8-1.1-4.1
		s-0.3-2.2-0.3-2.2"/>
	<path class="st1" d="M189.8,155.3c0,0.5-0.8,2.2-0.5,3.4s0.2,1.8,0.2,1.8"/>
	<path class="st1" d="M185.4,123.7c0,0,0.6-3.7,0.5-4.5c-0.2-0.8,0.9-6.8,1.9-10.2c1.1-3.4-0.6-8.4-0.6-8.6l-1.5-4.3"/>
	<path class="st1" d="M189.5,74c-0.7,2.4-3.5,13.1-3.2,14.4"/>
	<path class="st1" d="M222.9,100l-5.1,1.1c-1.6,0.9,0.4,6.3-0.7,6.7c-1.1,0.4-29-0.3-29-0.3"/>
	<path class="st1" d="M223.9,104.8c0,0-4.1,3.5-6.8,3"/>
	<path class="st1" d="M214.9,30.1c0,0-0.9,0.8-1.3,2.5c-0.3,1.6-0.5,2.8-0.2,4.1c0.3,1.3,0.5,3.8,0.4,4.9c-0.1,1.1,0,5.9-2.2,6
		c-2.2,0-13.1-1.9-13-5"/>
	<path class="st1" d="M208.9,48.3c-0.3,0.3-0.8,1.7-0.6,3.4c0.1,1.7,1.6,2.9,1.1,3.8c-0.5,0.9-0.8,1.5,3.6,3s9.7,3.5,10.1,5.8
		c0.5,2.4,3.5,9.9,3.9,12.5c0.4,2.6,1.2,4.8,0.8,9.2c-0.3,4.4-1.4,9.1-1.6,9.5c-0.2,0.5,0.2,4.3,0.7,6.2c0.5,2-0.4,2.7,1.1,4.7
		c1.4,2,1.9,0.9,2,3.7c0.1,2.8-0.4,3.8,1.6,6s3.8,0.5,3.9,4.6c0.1,4.2,1,4.6,1.1,7.8c0.1,3.2,0,9.5,0,9.5s1.1,8.9-0.5,9.4
		c-1.6,0.5-3.3,0.3-3.3-0.8c0-1.2-0.5-1.2-1-0.9c-0.5,0.3-1.4-1.3-1.4-1.7c0-0.4-1.7-1-1.6-2.1c0.1-1.1-0.5-2.4,0.1-2.5
		s-2-16.7-2.3-17.4s0.8-2.4,0.1-4.5"/>
	<path class="st1" d="M232.5,144.1c0-0.2,1.6-2,1.6-0.9c0,1.1-0.3,1.9-0.3,1.9"/>
	<path class="st1" d="M227.3,135c0,0-1.1,3.2-1.8,10.1s-0.3,7.1-1.8,12.7s-3.4,3.1-3.5,8.1c0,5-1.6,4.9-1.8,8.7
		c-0.2,3.8-2.1,4.1-1.7,7.1s0.5,6.1,0.3,10.3s-0.8,8.7-0.6,13.8c0.2,5,0.1,17.4,0.1,20s-1,3-0.5,5.4c0.5,2.3,1.4,6.7,8.1,9.3
		s14.1,0.5,10.6,5.1c0,0-18.4,3.6-21-0.4c-2.7-4.1,3,5.3,2.4,6.2c-0.6,0.9-13.2,2.5-15.8,0.7c-2.6-1.8-4.7-0.7-5.2-2.8
		c-0.5-2.1-1.9-1.8-2-0.6c-0.1,1.2-1.1,1.6-1.9,0.6l-1.2-0.1c0,0-0.8-11.4,0-11.5c0.8-0.1,0.8-0.2,3,1.9"/>
	<path class="st1" d="M188.2,162.7c0,0-0.1,12.3-0.4,15.8s0.6,7.9,0.4,14s-0.4,7.8,0.3,12c0.8,4.3,1.1,12.3,1.2,14.3
		s1.4,8.7,1.4,10.9c0.1,2.3-0.2,7.9-0.2,7.9"/>
	<path class="st1" d="M210.4,150.6c0,0-1.8,17.9-3.5,24.3c-1.8,6.3-4,17.2-3.5,20.7v14.7c0.3,2.2-0.4,7.7,0.1,11.6
		c0.5,3.9,0.3,5.9,1.8,8.9"/>
	<path class="st1" d="M235.7,243.9c0,0,6.9,0.9,7.2,0.6c0.3-0.3-2.1-14.3-1.7-16.1c0.4-1.9,0.4-5.3-1.9-10.7
		c-2.3-5.4-3.3-21.8-3-23.8c0.3-2,0.8-16.4,0.8-17.9c0-1.5,2,0.3,1.1-10.3c-0.9-10.6-1.6-18.9-1.6-18.9"/>
	<path class="st1" d="M233.3,147.4c0,0-2.1,6.7-0.8,9.3c0,0-1.6-0.8-0.8,3s-0.6,4.9-0.2,9c0.4,4.1-1.2,5.2-0.1,5.1
		c1.1-0.1,1.4,2.3,1.4,5.3s-0.6,5.2-1.8,5.9c-1.2,0.7-1.3,0-1.2,3c0.2,3-0.4,7.9-0.1,9.2s-0.9,12.3-0.5,12.8c0.3,0.6,3,1.3,3.1,1.7
		c0.1,0.4,2.6,0.4,2,1.8s-3.2,0.8-2.5,2.6c0.7,1.8,1.7,4.3,1.7,4.3c0,0-1.3,20.5-1.1,21.1c0.2,0.6,0.2,0.6,0.2,0.6"/>
	<line class="st1" x1="468.7" y1="204.5" x2="474.9" y2="204.5"/>
	<path class="st1" d="M511.6,204.5c0,0,28.4-8.7,34.6-13.9c6.3-5.2,11-10.6,11-10.6"/>
	<path class="st1" d="M500.5,116.4c0,0-3.4,3.5-14.2,3.5"/>
	<path class="st1" d="M510.2,94.7c0,0-5.7-0.4-6.3-0.3c-0.6,0.1-3.8,16-3.3,18.5c0.5,2.5,3.8,13.2,6.1,14.6"/>
	<path class="st1" d="M510.3,103.3c0,0-8.1,0.4-8.5-0.7"/>
	<path class="st1" d="M510.6,87.6c0,0-5.6,6.6-6.7,6.9"/>
	<path class="st1" d="M500.7,109.4c0,0-9.6,3.3-13.9,2.5"/>
	<path class="st1" d="M488.1,78.2c0,0-0.8,41.9-2.7,48.5c-1.9,6.6-3.7,33-6.5,34.4c-2.8,1.4-0.2,10-6.6,9
		c-6.4-0.9-10.3-5.3-10.5-5.6c-0.2-0.3-0.8-7.9,1.1-7.3s14.6,4.6,14.6,4.6"/>
	<path class="st1" d="M472.9,170.6c0,0-2.9,4.5-0.9,7.7s0.9,3.2,0.1,2.7c-0.8-0.5-0.5-0.6-1.3-1.7s-2.4-4.8-2.4-5.1"/>
	<path class="st1" d="M470.8,181.3c0,0,0.6,2.6-0.9,2s-2.5-2.5-2.9-4.6"/>
	<path class="st1" d="M461.8,164.5c0,0-1.1,14.5,0.6,17.4c1.7,2.9,1.2,0,1.2,0s-0.3-6.3,0.1-6.8"/>
	<path class="st1" d="M464.7,176.8c0,0,0.9,7.9,2.3,9.3c1.4,1.4,1.1-1.9,0.4-3.3"/>
	<path class="st1" d="M461.6,183.4c0,0,1.3,31.5,2.1,33.4c0.8,1.9,1.5,19.4,2.2,21.8c0.6,2.4-0.3,16.2,0,17.7
		c0.3,1.5-2.3,32.6-2.8,32.6s14.3,2.8,13.9,2s-1.5-27.4-2.5-28.3c-1-0.9-2.5-3.9-1.1-5.3c1.4-1.4,1.1-5.8,0.3-5.8
		c-0.9,0-0.4-11.7-0.4-12.2c0-0.5-3-13.6-3.9-13.8c-0.9-0.3-0.6-8.2-0.6-8.2s-0.7-13.6-0.3-13.8c0.5-0.2,5.8,1.1,4.7-1.1
		c-1.2-2.2-3.8-19.5-3.8-19.5"/>
	<path class="st1" d="M472.4,190.5c-0.2,0.8,11.2,36.2,11.9,39.8c1.3,5.9,1.3,40.5,0.6,40.4c-1,0-8.9,7.5-8.9,7.5"/>
	<path class="st1" d="M463.6,285.4c0,0-11-2.4,0.6-6.3"/>
	<line class="st1" x1="475.8" y1="274.1" x2="484.4" y2="271.1"/>
	<path class="st1" d="M488.7,78.2c0,0-3.9-15.3-12.2-19.3s-11.9,9.7-11.9,9.7s-0.4,38.5,0,40.9s-1.6,47.8-1.6,47.8"/>
	<path class="st1" d="M487.7,93.9c0,0,2.7-11.6,2.5-14.4c-0.2-2.9-5.1-16.1-7.4-17.4c-2.3-1.4-4.8-8.2-11-3.7"/>
	<path class="st1" d="M502.3,159.7c0,0-2.7-22.6-5.3-28.1"/>
	<path class="st1" d="M497.7,31.6c0,0-5.4-2-9.1-3s-9.1-3.1-11.9-4.9c-2.8-1.8-8.5,0.5-10.3,0.5s-2.7-1.4-2.7-1.4s3.1-3,3.7-4.1
		c0.6-1.1,2.2-7.6,1.4-8.4c-0.8-0.8-1.4-8.7-1.4-8.7s2.5-3.5,7.2,0.8s21,10.5,21,10.5s13.1,7.9,13.1,8.5c0,0.6-8.3,0.9-8.8,3.3
		c0,0-0.9,6.1-3.3,8s-4.1,7.9-3,9.8c1.2,1.9,1.4,3.9,1,5.7c-0.4,1.9,16.1,17.1,16.3,18.4c0.3,1.4-0.2,16.4-0.4,20.2s0.1,7.3-0.4,7.6
		c-0.5,0.3,1.5,3.5,0.9,5.5c-0.6,1.9-0.4,1.9-1.3,4.6c-0.8,2.8-1.9,3.8-1.7,6.8s0.2,6.4,0.8,7.8c0.6,1.4,0.6,3.2-0.2,5.1
		s-2.1,3-2.1,3s1.2,6.3,1.7,9.8c0,0,0.4,17.4,0.3,18.4c-0.2,2.2-6.4,4-6.4,4s-24.5,3.3-23.4,1.4"/>
	<path class="st1" d="M468.2,2.9c0,0,4.7,12.2,15.8,16.1s17.6,4.5,17.6,4.5"/>
	<path class="st1" d="M483.8,27.1c0,0-2.1,6.7-3.6,7.8s-3-0.1-2.3-1.4s-1.1-4.2,0.3-5.8l2-2.1"/>
	<path class="st1" d="M467.4,25.6c0.1,0.4-3.3,4.6-3.3,5.3c0,0.7,1.6,2.4,2.1,2.7c0.5,0.3,0.6,2.5,0.6,3.8c0,1.3-0.5,5.8,1.8,6.3
		c0,0,8.4,1.5,9.1,3c0,0,1.4,2.4,0.9,4.6c-0.5,2.2-3.8,5.7-3.8,5.7"/>
	<path class="st1" d="M476,28c0,0-2.3,4-3.4,4.4"/>
	<path class="st1" d="M478.4,38.2c-0.2,0.3-7.5,4.9-8.6,4"/>
	<path class="st1" d="M480.7,47.6c0,0,11.1-4.6,13-4.8"/>
	<path class="st1" d="M500.2,161.7c0,0,0.2,60.5,4.3,62.7c3.2,1.7-0.7,49.8-1.1,50.7c-0.5,1,4.4,11.7-1.6,11.9
		c-6.1,0.3-25.1,0.4-25.1,0"/>
	<path class="st1" d="M603,152.6c1,0,3.2-2.9,2.4-3s-1.2,0.3-1.1-0.8c0.2-1.1-0.1,2.2-1,1.9s-2.3-0.5-1.2-2.1"/>
	<path class="st1" d="M604.8,144.6c0.3-0.1,1.8,0.7,1.4-1.3c-0.3-1.9,0.5-1.9-2.6-1.6"/>
	<path class="st1" d="M598.7,139.4c0-2.7,0.5-4.6,1.5-4.6c1-0.1,3.4-2.5,2.8-2.9c-0.6-0.4-0.9-1.8-2.1-0.8c-1.2,0.9-2.7,1.4-3,1.2"
		/>
	<path class="st1" d="M597.1,136.5c-0.2,0.4-1.5,2.7-0.4,2.9c1.1,0.2,3,0.3,3.2,1.3c0.2,1-1.8,0.5-1.8,1.4"/>
	<path class="st1" d="M600.6,143.5c1.9,0.2,2.7,0.3,2.5,1.7s-0.8,0-1.2,1.9"/>
	<path class="st1" d="M595.8,149.4c0-1,2.4-3.1,1.6-4.7c-0.8-1.7-1.9-3.9-2.5-4c-0.7-0.2-0.9-2-1.4-1.3s1,6.3,1.1,6.5"/>
	<path class="st1" d="M595.4,153.6c0,0-2.3-0.4-3.7,0.3c-1.4,0.8-0.8,1.2-0.8,2.2"/>
	<path class="st1" d="M590.1,158.4c1.1,0.5,1-0.6,1.9,0.3s1-0.5,1.9-1.5"/>
	<path class="st1" d="M590.1,150c0,0,2.7-3.7,1.2-4.7s-1.6,0.2-2.6-2.2"/>
	<path class="st1" d="M584.2,141.6c-0.1,1-3.5,0.3-1.9,3.1c1.6,2.8,2.1,1.4,4.4,3s2,2.7,2,2.7"/>
	<path class="st1" d="M590.8,138.8c0,0,0.8-1.8,2.3-1.4"/>
	<path class="st1" d="M593.3,135c0,0-1.2-2.5,0.6-2.8c1.9-0.3,3.4,0.2,2.4-1.5s-1.9-0.4-2.4-2.2c-0.4-1.8-0.8-4.5-1.9-4.5
		s-2,0.2-4.2-1.2s-2.5-2.2-3.3-1.9"/>
	<path class="st1" d="M579,120.4c0,0.6-1.8,2.3-3.8,1.4c-2-0.9-0.2-2.1-2.5-2.4c-2.3-0.3-2.5-1.5-4.8,0"/>
	<path class="st1" d="M568,137.4c0.4-2,3-5,4.4-3.8c1.4,1.2,1.7,0.9,2,2.5c0.3,1.5,0.7,1.9,0.6,4.6"/>
	<path class="st1" d="M576.4,142.5c0.1-0.7,1.5,0.1,1.9-1.3s-1.9-2.6,0.7-3.2c2.5-0.6,2.2-1,2.8,0.7"/>
	<path class="st1" d="M586.1,134c0-1,0.9-4-1.5-2.9c-2.5,1.1-2.5,3.4-4.7,1.7c-2.2-1.7-1.1-3.8-2.4-4.9"/>
	<path class="st1" d="M583.9,128.3c0-0.5,0.7-2.7,1.3-2.3c0.6,0.4-0.8,1.8,1.5,2.3c2.3,0.5,3.1-0.2,3,1.1"/>
	<path class="st1" d="M585.3,138.8c0,0,4.8,0.8,5,2.2"/>
	<path class="st1" d="M559.5,163.2c0.6-0.9,2.5-5.2,4.3-3.5c1.8,1.8,2.7,4.4,1.9,5.7"/>
	<path class="st1" d="M561.1,165c1.5-1.3,3.5-4.2,3.6-2.1"/>
	<path class="st1" d="M569.4,166.2c0.3,0,2.5,2.1,2.5,3s-0.8,0.3,0,1.5c0.8,1.2,3.6-0.3,2.7,2c-0.9,2.4-2.2,1.9-0.9,2.4"/>
	<path class="st1" d="M576.4,173.3c0,0,1.1-2.5-1.4-3.8c-2.5-1.4,1-1.5,0-4.1c-1-2.5,1.3-1.6-2-3.6s-0.8-5.6-3.3-7s-2.3-2.6-4.3-2.6
		"/>
	<path class="st1" d="M563.8,154.4c0,1.4-0.4,2-0.9,2.4"/>
	<path class="st1" d="M565.4,159c1.6-1.1,2.6,0,3.4-1.4"/>
	<path class="st1" d="M576.4,155.6c-1.4,0.2-1.9-1.1-2,1.2c-0.1,2.3,1.5,3,3,3.5c1.5,0.5,1.1-1.1,2.1,1.2c1,2.3,3.5-0.4,2.8,2.1
		s-1.5,1.8-1.1,3.5s1.3,2,0.6,2.9"/>
	<path class="st1" d="M579.1,155.6c-0.2,0.8-0.4,2.5,0.6,2.5s-1.4-0.9,1.5-0.9s5.1-0.1,4,3.1c-1.1,3.2,0.7,3.9,0,6
		c-0.7,2.1-1.4,2.6-1.4,2.6"/>
	<path class="st1" d="M581.2,151.7c0-0.4,1.9-2.7-0.7-4.1c-2.6-1.4-2.7-2.1-4.1-2.3"/>
	<path class="st1" d="M579.9,150.7c-0.6-0.3-0.8-1.1-2.5-0.3c-1.6,0.8-3,1.5-3.5-0.3"/>
	<path class="st1" d="M570.7,147.1c0,0,1.4,1-1.3,1s-3,0.3-3.4,0.8"/>
	<path class="st1" d="M556.6,153.1c0,0,1.6,4.4,0.8,5.3c-0.8,0.8-3-1.7-3.5-0.2c-0.5,1.5-1.6,0.4-1.8-0.5"/>
	<path class="st1" d="M551.2,153.1c0,0,0.6,1.9,2.3,0.9s1-1.8,2.2-1.9"/>
	<path class="st1" d="M547.6,173.8c0.3,0,1.4-2.5,3.6-2s4.4,1.1,3.5,2.9"/>
	<path class="st1" d="M552,178.2c-0.2-0.3-2.4-2.1-2.9-1.4c-0.5,0.7-0.2,2.2-1.5,0.6c-1.4-1.6-1.4-2.8-1-2.8"/>
	<path class="st1" d="M551.3,174.6c0.2,0.4,0.5,1.1,1.3,1.1s1.2-0.3,0.9-1.1"/>
	<path class="st1" d="M540.1,162.2c-0.8,0.1-2.5-1.1-3,1c-0.5,2.1-1.1,3,0.3,3.4"/>
	<path class="st1" d="M539.4,165.4c-0.6,1.5,1,2.5,2.2,1.2s1.2-1.2,0.9-3c-0.3-1.8-0.2-2.3-1.6-2.8"/>
	<path class="st1" d="M543.8,145.3c0,1.4,0.7,3.3-0.7,4.1c-1.4,0.8-0.3-0.2-3.8-0.7s-1.1-2.6-2.8-2.7s0-4.9-1.1-2.8"/>
	<path class="st1" d="M546.4,140.5c0.8,0.9,0.2,1.8,3.2,1.1c3-0.7,3.4-0.5,3.2,0.5s4.1,0.2,1.9,1.4"/>
	<path class="st1" d="M550.9,145.3c-0.8,1-1.3,2.9,0,3.2c1.3,0.3,2.3-0.9,2.9,0.5c0.7,1.4,3,1.3,3.2,1.6"/>
	<path class="st1" d="M559.1,149c-0.7-0.1-2.7-0.7-1.5-1.9c1.2-1.2,1.9-2,2-2.8"/>
	<path class="st1" d="M561.9,143.1c0.3,1.5-1.4,1.9-0.8,3c0.7,1.1,2.5,1.1,3.6,0c1.2-1.1,2.3-1.7,4.1-1.1c1.8,0.6,4.1,0.1,4.7,0
		c0.5-0.1-0.3,0.6,1.5,1.9"/>
	<path class="st1" d="M589.8,136.2c0,0-1.6-1.4,0.4-2.5s1.7-1.7,1.8-2.6"/>
	<path class="st1" d="M576.4,126.8c-1.9-1.4-3.4-1.9-3.4-0.8"/>
	<path class="st1" d="M568,122c-1.8,1.2-2.7,2.2-4.6,1.9c-1.9-0.3-3.2,0.9-5,0.9s-2.5-0.7-1.6-1.9"/>
	<path class="st1" d="M557.1,131.3c-0.8,1.1-3.6,2.8-1.4,3.8s2.6,1.1,2.6,1.1"/>
	<path class="st1" d="M567.1,132.8c0,0,0.7,0.1,0,2.2"/>
	<path class="st1" d="M545.5,123.8c0,0,2.6-0.4,3.1,2.1"/>
	<path class="st1" d="M548,127.7c-0.7-0.7-2.9-3.4-4.6-0.5c-1.8,2.9-0.8,2.8-2.3,4.6"/>
	<path class="st1" d="M538.4,137.4c-0.4,0.7-2.5,0.3-2.2,2"/>
	<path class="st1" d="M541.1,140c0.8,0.2,3.3,0.4,3.8,1.6c0.5,1.1,1,0.1,1,2.7c0,2.6-1.9,1.6,0,3.8"/>
	<path class="st1" d="M545.5,134c-0.3-1.5,3.2-4.6,5.7-3.9"/>
	<path class="st1" d="M562.2,127.4c3.2-1.7,5-4.9,5.3-1.4"/>
	<path class="st1" d="M541.1,144.3c0,0-0.4,1.2-1.4-1.2"/>
	<path class="st1" d="M539.7,130.6c-1.4,0.8-2.3-1.6-2.1,0.6s0.3,3.5-2.2,1.8c-2.5-1.7-2.9-1.6-4.1-1"/>
	<path class="st1" d="M530.5,130.1c-0.7-2.3-0.1-2.7-1.8-1.8c-1.8,0.8-2.1-1.4-2.5,0.6c-0.4,2-2,3.3-0.4,4c1.5,0.7,3.7-0.9,2.7,1.2
		c-1,2.1-0.2,3.4-1,4.8c-0.8,1.4-1.5,1.1-1.8,2.2"/>
	<path class="st1" d="M536.2,125.5c-1.3-1.5-2.1-1.5-1.9-3.5c0.3-2,1.3-1.5,0-2.9"/>
	<path class="st1" d="M537.8,124.9c0-1.1,1.1-2.9,2.6-1.9c1.5,1-1.1-2.2,0-2.5c1.1-0.3-0.4,0.8-1.7-0.9"/>
	<path class="st1" d="M537.8,116.2c-0.6,0.7-2.6,3.7-3.2,1.3c-0.6-2.4-0.1-3.8-3-3.2c-2.9,0.6-1.7-2.8-4.4-1.3
		c-2.7,1.5-3.5,2.9-2.9,4s0.8,2,0.8,2"/>
	<path class="st1" d="M527.1,119.1c1.3-0.4,2-2.5,3.1-0.4"/>
	<path class="st1" d="M527.1,121c-0.9,0,0.7,1.2,2,2.7s1.4,1.9,1.3,2.6"/>
	<path class="st1" d="M523.5,122.8c-1.8-0.3-3.2-0.6-3.4,0.9c-0.3,1.5-1.6,0.8-0.3,2.2c1.4,1.4,3,1,2.3,1.9"/>
	<path class="st1" d="M524,140.5c0,0,0.6-2.1-2.1-2.2c-2.7-0.1-0.3-2.7-3-1.8c-2.7,0.9-0.2-2.2-3-1s-1.1-1.8-2.7-0.7
		c-1.5,1.1-0.1-0.3-2.4-0.2c-2.3,0.1-1-0.7-1.6-1.3"/>
	<path class="st1" d="M511.2,137.4c-0.2,1.9,1,3.1,1.7,3.2c0.7,0.1-0.2-1.8,2.3-0.5c2.5,1.2,3.5-0.3,2.5,2.6
		c-1.1,2.9-1.6,2.9,0.4,2.9s1.6,0.8,3.3,1.8s2,0.4,2.1-1.2c0.1-1.6-0.6-2.3,2-2.1c2.6,0.2,0-1.9,3.2-2.4c3.2-0.5,4.3,0.4,4.3,0.4"/>
	<path class="st1" d="M534.3,135.6c-1.3,2.1-3.7,2.3-3.7,2.3"/>
	<path class="st1" d="M511.7,128.1c-0.1-1.1-3.4-3,0.5-4.1"/>
	<path class="st1" d="M511.2,122c0,0,2.6,0.4,3-0.9s-1.1-2.7,1-3c2.2-0.3,2,0.3,2.7-0.3"/>
	<path class="st1" d="M514.3,117.1c0,0,1.7-0.1-1.3-1.2c-3-1-3-1.4-3.4-1"/>
	<path class="st1" d="M528.2,114.7c1.6,0.7,2,0.6,3.5,1.2c1.5,0.6,1.4,1.6,1.3,2.5"/>
	<path class="st1" d="M540.2,117.8c0-0.3,1.6-2.4,4-1.9c2.3,0.5,3.7,0,5.3-0.5c1.6-0.4,2-1.4,2.2,0.5"/>
	<path class="st1" d="M543.2,120.5c0.7-0.4,1-1.5,1.8-1"/>
	<path class="st1" d="M542.7,122c0.2,0.5,0.9,0.2,2.4,0.3"/>
	<path class="st1" d="M523.2,121c0,0,0.4-1,2.2-0.5"/>
	<path class="st1" d="M517.2,122c-1.3,2.1,0.6,3.9-1.9,2.9"/>
	<path class="st1" d="M514.1,130.1c0.6,4,1.1-1.7,4.6,0s-0.6,2.7,1.6,4s2.8-1.1,3.9,1.5"/>
	<path class="st1" d="M535.2,129.7c1.1,1.9-0.2-6.1,3.1-3.8"/>
	<path class="st1" d="M559.5,133.2c0.1,1.1,2.9,5.2-0.6,5.6"/>
	<path class="st1" d="M551.3,133.9c-1.1,2-0.6,2.2-1.2,4.5"/>
	<path class="st1" d="M523.9,162.9c0.8-1.2,2.5-2.5,2.8-0.4"/>
	<path class="st1" d="M525.3,165.6c-0.8-0.3-1,0-1.4-0.6"/>
	<path class="st1" d="M522.8,162.9c0-0.8-1.5-2.4,0.8-2.8"/>
	<path class="st1" d="M527.9,161.5c0.1,0.1,0.3,1.4,0.3,2.5"/>
	<path class="st1" d="M525.3,168.9c-1.1-1.1-2.4-1.9-3-2.4c-0.6-0.4-1.3-3.6-1.3-3.6"/>
	<path class="st1" d="M525.8,159.2c0.6,0.3,1.4,0.9,1.4,0.9"/>
	<path class="st1" d="M528.6,165.3c0,0.3,0.5,3.3-1.4,3"/>
	<path class="st1" d="M526.5,165c-0.1-0.7,0.2-1.2-0.7-1"/>
	<path class="st1" d="M529.9,160.3c0,0,3.5,2.3,4.5,0.4c1-1.9,2.7-2,4-1.5c1.3,0.5,1.3,0.9,1.3,0.9"/>
	<path class="st1" d="M534.8,153.1c-0.4,1.1-2.2,1.2-2.4,2.9c-0.2,1.7-0.2,2-0.4,2.5"/>
	<path class="st1" d="M527.8,150.6c-0.3,3,0.5,4.5,2.2,4.5s2.8,0,2.8,0"/>
	<path class="st1" d="M528.7,150.2c0.2-0.8-1.7,0.9,0.6-1.2c2.4-2.1,2.2-1.4,3.7,0s2.4,1.2,2.4,1.2"/>
	<path class="st1" d="M532,152.1c-0.6-0.3-0.6-2.1-1.1-1.5"/>
	<path class="st1" d="M532,152.8c-0.5,0.8-1.6,1.1-2,0.7"/>
	<path class="st1" d="M521,152.1c-0.3,0.3-4.5-0.8-5.3,0"/>
	<path class="st1" d="M514.1,155.9c-1.2,2.2-1.9,4-3,4.8"/>
	<path class="st1" d="M510.1,158.5c1.4-1,1.6-1.7,2-2.1"/>
	<path class="st1" d="M521.6,153.7c2.5,1,2.1,0.4,3.4,2.2c1.3,1.8,0.6-0.6,2.9,1.5"/>
	<path class="st1" d="M520.1,159.3c-2.5,1.6-2.5,0.9-2.5,3c0.1,2.1,0,3.2,1.6,4.8"/>
	<path class="st1" d="M517,159c-1.4,3-2.9,1.6-3.4,4.9c-0.5,3.3-4.6,1.6-0.5,3.3c4.1,1.7,5.2,2.9,5.7,3.3"/>
	<path class="st1" d="M533,171.1c-1.9,2.5-2.7-0.1-3.6,2.5s-2.9-1.3-2.2,2c0.7,3.3-3-0.4-1.9,3s2.1,2,1.9,4.7"/>
	<path class="st1" d="M527.2,171.7c-2.6,2.9-4.2,0.7-4,3.5"/>
	<path class="st1" d="M533,168.3c-1.8,0.7-2.2-1-3,1.3"/>
	<path class="st1" d="M539.3,170.5c0.7,3.2,2.8,4.6,0.8,4.1c-2-0.6-3-4.2-3.6-1.5"/>
	<path class="st1" d="M556.1,179.3c0.3,0,3-1.4,2.7,1.4c-0.3,2.7-2.3,3.3-0.5,5.2"/>
	<path class="st1" d="M562.8,175.2c1,3.8-1.1,4.1-2.2,6.7"/>
	<path class="st1" d="M556.1,165.6c0.2-0.7-0.7-3,1.4-3.6"/>
	<path class="st1" d="M558.4,166.2c2.2,0.3,3.3-1.2,4-0.3c0.8,0.9-0.6,1.1,1.4,0.8"/>
	<path class="st1" d="M568.8,165c-0.8-1.9,0.1-1.5-1.7-3"/>
	<path class="st1" d="M565.4,143.1c0,0,4.7-2.9,6-0.6"/>
	<path class="st1" d="M577.4,144.3c1.1-0.5,1-2.2,3-2.3"/>
	<path class="st1" d="M571.1,122.9c-0.3,0.3-0.4,1.8,0,1.9"/>
	<path class="st1" d="M558.4,120.7c0,0-0.1-3-2-0.8c-1.9,2.1-2.9,2.8-3.8,0.6s1.7-4.4-1.7-2.8"/>
	<path class="st1" d="M520.6,120.4c0,0-0.9-0.9-2.2-0.5"/>
	<path class="st1" d="M460.1,136.4c-2.4-0.1-4,1.6-2.8-1.1s1.7-3.4,1.2-3.5"/>
	<path class="st1" d="M458,130.2c-1.3-2.2-0.7-2.6,0.4-2.8s4.5,2.3,1.6-0.8"/>
	<path class="st1" d="M459.3,123.4c-0.9-1.9-1.8-0.9-2.4,0.4s-1.8,2.1-2.1,0"/>
	<path class="st1" d="M456.9,119.4c0.2-0.1,0.3-0.1,0.5-0.2c1.4-0.7,2-1.9,0.7-2c-1.4-0.1-1.8,1.4-2.7,0"/>
	<path class="st1" d="M453,114.9c-1.9,0.9-0.9,3-3.7,1.4c-2.8-1.6-0.3,0.7-2.6,0.9c-2.4,0.3-1.9,1-2.9-0.6c-0.9-1.6-1.5-1.9-2.1-1.4
		"/>
	<path class="st1" d="M456.9,138.9c0,0-2.1-13.9-3-19c-0.8-5.1-0.8-5.1-0.8-5.1"/>
	<path class="st1" d="M454.8,114.2h1.6c0,0-4.8-9.3-5.1-9.2c-0.3,0.1-1.1,9.5-1.2,10.2c-0.1,0.8,1.7,0.9,2.1-0.3"/>
	<path class="st1" d="M451.9,126.6c-1.2,0.3-0.9,0.7-1.7,2.4c-0.8,1.7-0.3,3.1-1.9,0.8c-1.7-2.4-2.5-0.8-1.9-3.1
		c0.5-2.3,0.6-1.8,1.6-2.9"/>
	<path class="st1" d="M444.4,126.2c-0.8-1.2-1.5,1-1.9-2c-0.3-3,2.3-3.2,0-3.8c-2.3-0.5-3.7-2.6-3.2-1"/>
	<path class="st1" d="M436.1,121c0,0-1,0-2.1,2.7s0.7,1.3,1.1,2.9"/>
	<path class="st1" d="M438.4,129.1c0,0.8-1.5,1.5-1.8,1.9"/>
	<path class="st1" d="M434.9,133.3c0.2,0.3-0.2,1.4,0,1.7"/>
	<path class="st1" d="M446.7,135.5c-0.3,0.6,0,1.6,1.4,1.4c1.4-0.3,2.5-1,2.8,0.7c0.3,1.6-0.5,1.6-1.9,1.4"/>
	<path class="st1" d="M452.2,140.5c-1.3,0.1-1.9,3.8-2,4.1c-0.2,0.3-0.3-2.1,1.7,0.6c2,2.7-0.3,1.8,0.3,3.4s3.8,0.6,1.1,3
		s-4.5,3.5-4.5,2"/>
	<path class="st1" d="M449.6,147.8c-1.6-1.1-3.9,0.9-3.5,1.8c0.4,0.8,1.9,1,2.6,1"/>
	<path class="st1" d="M450.2,149.9c-0.7,2.6-1.8,3.3-2.3,3c-0.5-0.3-2.1-0.6-2.3-0.8c-0.3-0.2-0.5-0.2-0.5-1.5"/>
	<path class="st1" d="M442.2,151.4c0,0-1.9-0.1-1.5,1.5c0.3,1.6,0.9,3.1-0.8,2c-1.8-1.1-3-2.2-3.2-1.6s-1.1,0.2-1.2-0.9
		c-0.1-1.1,0.2-2.4,0.7-2.5"/>
	<path class="st1" d="M437.5,151.4c1-1.5,2.2-2.7,0.9-2.8s-1.3-1.3-1.4-0.1"/>
	<path class="st1" d="M439.9,149.1c0,0,1.4,0.8,0.5,1.9c-0.8,1.1-1.4,1.1-1.4,1.1"/>
	<path class="st1" d="M443.7,159.2c0.3,0.1,1.8-1.7,1.9,0c0.1,1.7,0,1.9,1,1.9"/>
	<path class="st1" d="M447.8,159.7c0.6-0.6,3-1,2.3,0.6c-0.7,1.6-2.1,2-2.3,2.1c-0.2,0.1-0.1-1.8,0-1.7"/>
	<path class="st1" d="M443.7,161.7c0.1,0.8,1.6,1,2.3,1.6c0.7,0.6-0.3,1.9,1.7,0.8c2.1-1.1,4.3-2,4.4-3"/>
	<path class="st1" d="M449.6,157.8c-0.8-0.4-1.2-1.8-1.7-0.5c-0.5,1.3-1.4,1-1.2,1.9"/>
	<path class="st1" d="M446.1,157.3c-0.8,0.2-2.7,0-3,0.7c-0.3,0.7-0.7,2.3-0.4,3.1"/>
	<path class="st1" d="M448.8,173.9c-1.1,0.7-2.5,4.2-2.7,2.1c-0.1-2.1-1.8,3.2-1.8,1.6c0-1.6-1.5,4.3-1.8,2.5
		c-0.2-1.9-1.1,4.2-1,1.6c0.1-2.5-0.5,3.5-0.9,1.8"/>
	<path class="st1" d="M444.3,173c-1,3.1-1.8,2.9-2.1,4.2c-0.3,1.3-1.5-2.2-1.6,0.3c-0.1,2.5-0.6,1-0.4,2.9"/>
	<path class="st1" d="M438,173c-0.6,1.1-1.2,1.2,0,0.9c1.2-0.3-0.3,3,0.8,1.5c1.1-1.5-1.4,4.7,0,2.5"/>
	<path class="st1" d="M440.6,169.6c-1.7,2.5-2.8,0.3-3.6,1.7c-0.8,1.4-2.6,0.9-3,0"/>
	<path class="st1" d="M449.6,173.6c2.2-1.4,3,0.2,3.7-1.4c0.8-1.6,0.2-3.2,1.5-3"/>
	<path class="st1" d="M456.7,169.6c-0.7,1.4-3.6,3.3-3.8,5"/>
	<path class="st1" d="M458,170.2c0,0.8-1.1,2.4-2,2.8c-0.9,0.4-2.7,0.6-2.7,0.6"/>
	<path class="st1" d="M459.5,166.4c0,0-2.5,1.9-2.9,0c-0.3-1.9,1.3-3.1,0-2.8"/>
	<path class="st1" d="M458.7,164.1c0,0,1.5-2.1,0.5-2.4c-1-0.3-0.9-0.4-1.2,0.3"/>
	<path class="st1" d="M456.7,160.7c-0.6,0-1.4,0-1.4,1.4c0,1.4,0.7,2.4,0.7,2.4"/>
	<path class="st1" d="M458.5,159.8c1.3,0.2,0.6-0.9,1.3,0.2"/>
	<path class="st1" d="M436.6,169.2c1.2-1,3.2-2.2,1.6-2.9c-1.7-0.8,0.4-0.1-1.6-1.3c-1.9-1.2-2.3-1.9-2.5-0.4
		c-0.3,1.5,1.1,2.1-1,1.9c-2.1-0.2-3-2.6-3.1-0.6c-0.2,1.9,0.6,2.9,1.8,2.9c1.2,0,0.8-0.1,2,0.9s0.7,1.6,1.7,0c0.9-1.6,2-3,0.8-2.5
		c-1.2,0.5-0.7,1.5-1.8,0.8"/>
	<path class="st1" d="M426,161.4c0.1-0.3-0.4-1.4-0.4-2.2c0-0.9,1.4-1.5,1.8-1.2c0.4,0.3-0.4,1,0.8,0.5c1.2-0.5,1.7-0.8,1.1-1.7
		s0-2.9-1.7-2.5c-1.7,0.4-0.8,1.4-2.5,1.2c-1.8-0.2,0.3-4.8-2.1-1.2c-2.4,3.7-2.2,5-2.2,5s1.9,1.9,2.8,2.2c0.9,0.3,0.3,1.1,2.1,1.2
		c1.8,0.1,1.2-0.7,2.5-1.2c1.3-0.5,0.2,1.6,1.3-0.5c1.1-2.1,1.2-2.4,1.2-2.9"/>
	<path class="st1" d="M422.3,153c0-0.3-1.3-3.3-2.3-0.9s-2.4-0.5-2,3.3c0.3,3.9,1.5,4.5,2.1,3.8c0.7-0.7,0.7-0.7,0.7-0.7"/>
	<path class="st1" d="M404.9,160.6c0,0-1.4,2.2-0.5,2.1c0.8-0.1,4.1-2.9,1.7-3.2c-2.4-0.3-2.5,0-2.7,1s-1.9,2.2-0.8,3.3
		c1,1.1,1.8,1.6,2.6,1.2c0.8-0.4,1.1-0.5,2.5-1.6s2.4-0.8,1.4-2.7c-1-1.9-0.7-1.8-1.1-2.9c-0.4-1.1-1.3-3.6-2.6-1.6s-1.9,1.4-3,2.1
		c-1.1,0.8-1.7,0.1-1.2,2"/>
	<path class="st1" d="M392.4,167.8c0,0,0.1,0.8,1,0.3c0.9-0.4,2.7-0.6,0.3-1c-2.4-0.4-2.8-1.4-2.7,0c0.1,1.4-0.4,3.9,1.2,3.5
		c1.6-0.4,2.2-1.9,3.5-2.1c1.3-0.2,3.7,0.3,1.4-1.4c-2.4-1.7-1.8-3.5-3.5-2.9c-1.8,0.5-0.3,2.2-3,0.8s-3.1-1.9-3.1,0.4
		s-1.9,4.5,0,5.2s1.4-1.8,3,0.3c1.5,2.1,3.1,3.7,4,2.1c0,0,22.1,26.9,50.4,30.6l18.3,0.9"/>
	<path class="st1" d="M380.7,160.2c0,0-0.1,2.5-0.9,0.3"/>
	<path class="st1" d="M378.1,160.8c0,0.2-1,1.6,1,2.2"/>
	<path class="st1" d="M384,159.8c-1-1.8-2.5-3.1-3.4-2.8"/>
	<path class="st1" d="M377,158.4c-0.2,1-0.8,0.9-0.7,2.5"/>
	<path class="st1" d="M379.1,158.8c-0.4-0.1-1-2.3,0-2.5"/>
	<path class="st1" d="M381.2,163.9c-1.5,1-1.5,1.9-2.7,0.9"/>
	<path class="st1" d="M382.9,163c1-0.5,2-0.5,1.1-1.6"/>
	<path class="st1" d="M388.4,162.2c0,0-0.3-1.9,0.8-3.9c1-1.9,0.6-1.2,1.3-2.1c0.8-1,3.2,2.4,2,3"/>
	<path class="st1" d="M388.4,151c0.9-0.1,3.7-2.3,3.7-2.3s0.1-0.8-3.2,0"/>
	<path class="st1" d="M386.2,149.7c-0.6,1.5-1.2,4.2,0.9,4.5s2.7-0.3,3.5-1"/>
	<path class="st1" d="M393.8,149.7c-1.1,0.7-2.6,0.2-2.6,1.8c0,1.5,1.6,0.5,0.4,2.3"/>
	<path class="st1" d="M375.1,145.6c0,0.2-1.8,0.7,0.4,0.7s2.1-0.7,2.4,0.4"/>
	<path class="st1" d="M375.8,148.9c-0.8,0.1-0.8,1-2-0.5c-1.2-1.6-2.5-1.2-1.3-2.7c1.1-1.5,1.5-2.7,2.3-2.4s1.8,0.8,2.2,0.5"/>
	<path class="st1" d="M376.6,150c0.7,0,1.3-2.3,1.9-2.3s2.6,0.5,1.4-0.9"/>
	<path class="st1" d="M373.9,151.9c-0.8,0.2-3.5-0.2-3-2c0.6-1.8,1-1.7-0.5-2.5c-1.5-0.8-1.2,0.8-1.5,1.1c-0.3,0.4-1.2-1.4-1.4,0.2"
		/>
	<path class="st1" d="M368.7,152c-1.8-0.2-2.2,0.2-2.7-1c-0.6-1.3-0.3-0.4,0-2c0.3-1.6-2-2.6,0.6-2.2s4,0.2,3.5-0.5"/>
	<path class="st1" d="M368.6,144.4c-1.1,0-2-1-2.8,0.3s-2.1,4.6-1.6,5.3c0.5,0.7-0.1,1-0.1,2c0,1.1,1.1,2.7,2.2,2"/>
	<path class="st1" d="M370.2,152.9c0.9,0,2.6,0.5,3.3,0.8"/>
	<path class="st1" d="M371,162.7c0,0-0.6-1.6-0.9-0.8c-0.3,0.8-0.7,1.2,0,1.4"/>
	<path class="st1" d="M372.9,162.2c-0.2-1.5-0.4-2.7-2.2-2.4"/>
	<path class="st1" d="M368.3,162.2c0,0.5,3.2,4,3.5,3.5c0.3-0.4,0.7-2.3,1.1-2.4"/>
	<path class="st1" d="M374.1,162.5c0-1.3-0.5-4.2-2.3-3.7"/>
	<path class="st1" d="M369.8,160.2c-0.5,0.5-1.4-0.7-1.5,0.4"/>
	<path class="st1" d="M369.8,158.4c-1.2,0.5-8.6,3-9,5.5c-0.4,2.5-1.6,1.3-1.6,1.3"/>
	<path class="st1" d="M358.4,159.8c-0.3-0.6,0-2,0-2s1.2,0.4,1.4,0.5"/>
	<path class="st1" d="M360.8,156.9c-0.3-1-2.3-1.8-2.5-1.2"/>
	<path class="st1" d="M356.5,158.4c-0.2,1.3,0.1,3.4,0.9,3.6c0.8,0.2,1.1-1.1,1.3,0.3c0.2,1.4-0.1,1.9,1,1.1"/>
	<path class="st1" d="M362.9,159.6c-1.1-2.2-1.6-1.5-1.3-2.6"/>
	<path class="st1" d="M357.2,156.6c-0.8,0.5,0.3,0.7-0.8,0.3"/>
	<path class="st1" d="M351.1,152c0,0,0.3,0.9,0.9-0.5c0.6-1.5-0.5-1.3,0.6-1.5c1.1-0.1,1.1,0,1.2,0.8"/>
	<path class="st1" d="M354.7,149.1c-1.3-0.7-0.7,0-1.5-0.7s-0.6-0.5-1.9,0c-1.3,0.5-1.3-1.1-1.8,0.1c-0.5,1.2-0.6,0.6-0.6,1.5"/>
	<path class="st1" d="M350.6,154.1c1.3-0.4,1.3-0.9,2.3-0.8c1,0.1,0.9,0.8,1.4-0.6"/>
	<path class="st1" d="M351.1,150.6c-0.3,0.6-0.4,1-1.3,1"/>
	<path class="st1" d="M346.1,156.6c0,0.8,1.2,0.2,0.3,1.2s-1,1.8-1.6,0.9"/>
	<path class="st1" d="M345.3,155.8c-0.8-0.4-0.8-1.7-1.3,0c-0.5,1.7-1.2,1.6-1.2,1.6l0.8,2.1"/>
	<path class="st1" d="M346.3,160.8c1.6-1.1,2.3-0.8,2-2.5c-0.3-1.7-1-1.5-0.4-2.1c0.6-0.6,1.1-1.2,0.2-1.6s-2.9-1.6-2.9-1.6"/>
	<path class="st1" d="M342.8,154.4c-0.7,0.8-1.1-1.4-1.2,0.6"/>
	<path class="st1" d="M332.1,156.2c0.7,0.5,0.8,1.7,1.3,0c0.6-1.7-0.1-1.3,0-2.4"/>
	<path class="st1" d="M331.8,152.7c0.3,1.5,0.7,1.3,0,2.3s-2.2,0.7-0.9,2.2"/>
	<path class="st1" d="M332.9,159.8c0.8,0.1,0.5-0.3,1.8-1s2.5,1,2.1-0.9s-0.7-0.3-1-2.4s-3-2.8-3-2.8"/>
	<path class="st1" d="M332.1,151.1c-1.7,0.1-2.1-0.4-2.3,1.2c-0.3,1.6-1.1,1.4-1.3,2.3s-0.8,1.5-0.3,2.7c0.5,1.3,0.3,1.9,1.9,2.3"/>
	<path class="st1" d="M327.7,159.8c-2.5,0.6-3.5,1.8-3.7,0.6c-0.1-1.2,0.3-0.9-1.2-2s-2.3-0.7-1.7-2.1s1-0.8,0.9-2.4"/>
	<path class="st1" d="M322.9,151.6c0.3-0.5,1.1-1.3,2.1-1c1,0.3,0.8-0.9,1.6-0.4c0.9,0.5,1.3,1,1.6,1.3"/>
	<path class="st1" d="M325.9,154.5c-0.3,1.1,0.6,1.6-0.3,1.7"/>
	<path class="st1" d="M324.3,153.8c-0.7,1-1.1,1.1-0.9,2.4"/>
	<path class="st1" d="M310.8,151.6c0,0-0.4,1.5,0.8,0"/>
	<path class="st1" d="M312,147.4c0,0-1.1,3.3-1.6,1.5c-0.5-1.8,0.1-2.3-1.3-0.8c-1.3,1.5-1.8,0.7-1.2,2.8c0.6,2.1-0.7,1.6,0.8,2.6"
		/>
	<path class="st1" d="M313.5,149.3c0.6,2.2,1.9,2.2,0,3.4c-1.9,1.2-2.3,1.7-2.4,2.3"/>
	<path class="st1" d="M318.4,156.9c0.1,0.3-3.7,1.3-4.4,5.2c-0.6,3.9-0.3,4.2-1.6,4.6"/>
	<path class="st1" d="M303.3,153.5c0,0-1,0.4,0,0.6"/>
	<path class="st1" d="M305.7,152.1c-0.3,3.4-0.7,4.5-2.6,4.4"/>
	<path class="st1" d="M300.5,155c-0.1-0.7-1.5-3.3,0-3.6"/>
	<path class="st1" d="M304.4,149.6c-0.4-0.6-0.7-2-1.5-1.1"/>
	<path class="st1" d="M300.2,148.7c-1.7-0.7-1.1-1.8-2-0.5s-2.3,1.7-2.3,1.7"/>
	<path class="st1" d="M296.4,152.7c0.3,0.6,1.5,0.6,2,1.7c0.5,1,1,1.9,2.1,2.5"/>
	<path class="st1" d="M306.6,156.9c0.3-0.2,1.7-0.3,1.1-1.9"/>
	<line class="st1" x1="291.3" y1="150.9" x2="290.3" y2="150.9"/>
	<path class="st1" d="M291.1,148.9c0.9,0.4,1-0.2,1.1,1.5"/>
	<path class="st1" d="M293.8,153.5c0,0,2.1,0,0.6-2.6c-1.5-2.6-1-4.1-2.7-4.1"/>
	<path class="st1" d="M290.1,147.6"/>
	<path class="st1" d="M286.4,149.6c0.3,1.3,1.6,1.5,1.7,3.1c0.1,1.6-2.3,2.1,0,2.3c2.3,0.2,3.6-1.2,4.1-0.6"/>
	<path class="st1" d="M286,141c0,0.4,1.9,0.7,2.7,0c0.8-0.7,0.2-2.5-1.3-2"/>
	<path class="st1" d="M285.7,139.9c0,0,0.1-1.3-0.8-0.5"/>
	<path class="st1" d="M283.4,143.1c-1-0.4-1.4-0.7-1.5-1.7"/>
	<path class="st1" d="M283.9,137.9c0.1-0.2,1.1-1.3,2-1s1.4,0.2,1.9,0.4"/>
	<path class="st1" d="M288.6,143.1c-0.8,0.1-1.2,1.6-2.7,0"/>
	<path class="st1" d="M282.7,138.5c-0.3,0-1.3-0.5-1.3,1c0,1.5,2,1.2,2.5,1.3"/>
	<path class="st1" d="M292.7,137.4c0.4-0.8,1.8-2.6,2.5-1.8c0.7,0.8-0.6,0.1,1.3,1.8"/>
	<path class="st1" d="M294.1,138.9c-1.1-0.8-0.6-0.9-1.5,0"/>
	<path class="st1" d="M291.1,136.9c0.1,0.5-1.3,2.2,0.2,3"/>
	<path class="st1" d="M294.9,140.8c1.3-0.4,2.6-1.2,3.1-1.7c0.5-0.5,1.1-1.3,0.5-2"/>
	<path class="st1" d="M302.1,140.4c0,0,0.9,1.4,1.5,1s1.7-0.7,0.8-1.6"/>
	<path class="st1" d="M303.1,137.4c1.3,0.2,2.6-0.2,2.9,1.5s0.6,2.8,0,3.7c-0.6,0.9-1.7,0.5-2.7,0.9c-1,0.4-1.9,0.8-2.4-0.4"/>
	<path class="st1" d="M300.2,139.6c1.1-1,1.2-0.7,1.3-1.7"/>
	<path class="st1" d="M311.5,139.5c0.2-0.4-1.3,0.5,0,0.7c1.3,0.2,1.7-0.2,1.8,0.5"/>
	<path class="st1" d="M310.7,142.7c-1.8-1.3-3,0.2-2-2c1-2.2,0.1-0.6,0.4-2.7s0.1-2.7,2-2.2"/>
	<path class="st1" d="M313.7,136.4c-1,0.3-2.3,0.7-1.6,1.5c0.7,0.8,2,0.6,2.3,1.6c0.3,1,0.5,3.3-0.7,3.2"/>
	<path class="st1" d="M316.9,142.7c1.1-0.4,1.8-2.8,2.5-2.5s0.4,1.7,0.5,2.5s1,0.4,2.6,0.8"/>
	<path class="st1" d="M322.9,146.5c-2.1-1.9-2.2-3.4-2.3-1.7c-0.2,1.6-0.8,2.4,0,2.8"/>
	<path class="st1" d="M323.1,148.2c1-0.8,1.4-0.4,1.2-2.2"/>
	<path class="st1" d="M323.9,141.1c-1.5-0.8-0.1-0.3-1.9-1.7c-1.8-1.4-1.1-2.1-2.3-1.5s-2.8,0.9-2.8,1.7"/>
	<path class="st1" d="M315.7,143.1c0.9,0.7,1.8-0.3,1.8,1.8s-1.6-0.2-0.3,2.3c1.3,2.5,1.3,3.1,2.9,2.7s0.6,0,2.1,0"/>
	<path class="st1" d="M325.6,148.2c0-1.3-0.2-0.6,0-2.4c0.2-1.8,1-2.1,0-2.3c-1-0.2-1.4,0-1.2-0.8"/>
	<path class="st1" d="M323.7,135.6c-0.3-0.8,1.3-1.6,1.4-1.6c0.1,0-0.1-0.8,0.9-0.7c0.9,0.1,1.9,2.1,1.9,2.1"/>
	<path class="st1" d="M327.1,137.1c0.7,0.1,0.3,0.3,1.1-0.4c0.8-0.7,2.3-0.1,2.2,0.6"/>
	<path class="st1" d="M329.1,140c-2-1-1.7-1.5-3-1.7s-2.4,0.6-1.7-1.1"/>
	<path class="st1" d="M328.8,133.3c0.7,0,2.1,0.3,2.3,1.7c0.1,1.4,0.8,4.2,0.3,4.5"/>
	<path class="st1" d="M338.7,148.2c0,0-0.7,0.1-0.7,1.1c0,1,0.8,1.4,2.1,0.7"/>
	<path class="st1" d="M340.1,148.6c0.2-0.7-0.7-2-1.6-2c-0.9,0-1.4-0.4-1.6,0"/>
	<path class="st1" d="M335.5,148.2c-0.1,1.5-0.7,3.4,1.1,3.7c1.8,0.3,2.8,0,4.1-0.3"/>
	<path class="st1" d="M343.4,148.6c-1.5-3.7-4.4-4-4.3-3.7"/>
	<path class="st1" d="M348.6,144c0.5-1.3-0.9-0.7,0.5-1.3c1.3-0.6,1.8,1.3,2,1.6c0.2,0.4,1.1,0.3,1.7-0.9c0.6-1.2,0.4-2.6-1-2.7
		c-1.4-0.1-2-0.4-2.9-0.7c-1-0.3-2.7-0.6-3.1,0.6c-0.4,1.1-1.3,1.7-1.7,1.6s-2.2,0.8,0,1.9c2.2,1,3.4,0.4,4,1.4c0.6,1,0.5,1,1.2,0.6
		"/>
	<path class="st1" d="M355.4,134.4c0-0.2,2.6-1.9,2.6-0.8"/>
	<path class="st1" d="M355.4,136.4c-2.2-0.5-3.3-2.2-2.6-2.6"/>
	<path class="st1" d="M355.4,131.6c0.7,0,1.1-0.1,1.8,0c0.7,0.1,2.5-0.4,2.6,0.3"/>
	<path class="st1" d="M359.1,135.6c-1.3,0.8-2,1.4-1.8,1.8"/>
	<path class="st1" d="M356.4,139.5c-0.8,1-1.4,0.6-0.8,1.6c0.6,1,1.6,3.6,1.6,3.6"/>
	<path class="st1" d="M360.8,143.7c0.2-0.8,0.8-1.8,0.7-2.3s-0.7-2.3,1-2.3"/>
	<path class="st1" d="M365.3,137.7c0-0.7,1.3-2.6,2.4-2.6"/>
	<path class="st1" d="M367.2,132.8c-1.2,0-3.5,0.4-3.1-1.6c0.4-2.1,1.8-1.3,3.1-1"/>
	<path class="st1" d="M366.5,128.2c-0.3-1.1,0.4-3.4-1.2-2.5c-1.6,0.8-2.7,0.3-3.7,2c-1,1.8-0.8,3.1-1.8,2.1"/>
	<path class="st1" d="M358.7,126.6c-2.3-0.6-3.7-1.3-4.4,1.2c-0.7,2.5-1.3,3.9-2.4,3.5c-1.1-0.3-1,0.7-1.2,1.5"/>
	<path class="st1" d="M362.9,134.9c-0.9-0.8-1.1-1.8-0.4-2s3.5,2.7,3.5,2.7"/>
	<path class="st1" d="M388.1,131.9c0,0-1.3,3.4,0,3.2s2.2-0.6,2.5-1.9"/>
	<path class="st1" d="M389,130.2c-3.1-0.2-3.9,0.2-3.9,2.2"/>
	<path class="st1" d="M387.1,137.4c1.7-0.1,2.9,1.6,4.1-0.4"/>
	<path class="st1" d="M392.1,132.1c0-1.3-0.2-2.5-0.9-2.6c-0.7-0.1,4.5,0.8,4.7,2.2c0.2,1.4-1.5,2.4-1.8,2.5"/>
	<path class="st1" d="M392.5,139.1c1.4-0.4,3.2-2.4,4.2-2.6c1-0.3,0.4-1.4,2,1.2s2,3.8,3.4,3.1c1.5-0.8,2.3-1.8,1.6-0.1"/>
	<path class="st1" d="M393,141c-0.4,0.5-1.6,2.6-3.9,2.8c-2.4,0.1-2.1,2.2-2.5-1c-0.4-3.2,0.9-3.8-2.1-4.3s0.3-1.9-2.5-2
		c-2.8-0.2,1.4,0-1.7,2.6s-6-1.4-3.6,1.4"/>
	<path class="st1" d="M373.6,136c0.4-1.6,1.5-2.9,0-4.1c-1.5-1.2-1.6-1.8,0.9-2.7s0.4-1.3,3.4-2s3.5-1.5,4.1-1.1
		c0.6,0.4,1.5,0,2.2,1.8s-0.1,1.8,2,1s1.4-1.1,4.1-1s3.8-1,4.8,0c1,1,0.8,1.5,2.4,1.6c1.6,0.1,3.7-2.3,4.8,0
		c1.1,2.3-0.1,2.3,1.9,2.4"/>
	<polyline class="st1" points="552.4,230.1 549.2,238.2 511.3,238.2 	"/>
	<polyline class="st1" points="549.2,241.3 549.2,259.8 515.1,257.5 	"/>
	<polyline class="st1" points="539.7,209.3 539.7,224.5 546.4,215.5 	"/>
	<line class="st1" x1="539.7" y1="207.3" x2="544.6" y2="201.7"/>
	<line class="st1" x1="544.6" y1="192.3" x2="544.6" y2="200.1"/>
	<line class="st1" x1="538" y1="208.5" x2="512.9" y2="209.3"/>
	<line class="st1" x1="539.7" y1="225.3" x2="513.6" y2="225.3"/>
	<path class="st1" d="M393.5,189.1c0,0,1,41.1,0,45.8c-1,4.7-0.4,5.2-0.7,6.9"/>
	<path class="st1" d="M400.8,244.3c0,0-5.1-16.6-6.9-13.2"/>
	<path class="st1" d="M396.3,191.4c0,0-1.2,12.8,0,18.9c1.2,6.1,2.5,8.1,3.2,14.2c0.7,6.1,3.4,16.2,3.9,17.2s3.4,1.7,2.4,2.5"/>
	<path class="st1" d="M305.6,218.4c0,0-5.2,2.2-5.2,0c0-2.2,1.8-22.6,1.8-22.6"/>
	<path class="st1" d="M300.1,216.4c0,0-2.1-1.9-2.5-2.2c-0.4-0.3-2.3,2.2-3,2.2s-3.1-1.1-3.7-1.5c-0.6-0.4,0.2-5.7,0.8-7.4
		c0.6-1.6-0.8-5.9-0.8-5.9l-0.8-7"/>
	<path class="st1" d="M307.6,216.4c0.3-0.1,18-0.4,18.3-1.9c0.3-1.4-0.7-4.3-2.2-4.2c-1.5,0.1-8.2-1.1-9.7-2.1s-4.2-4.9-4.6-6.6
		c-0.3-1.7-0.8-7-0.8-7l0.1-0.6"/>
	<path class="st1" d="M372.6,111.1c0,0-4.1-16.5-3.5-18c0.6-1.5-4.4-3.5-3.2-8.1c1.3-4.6,1.8-11.9,1.8-11.9"/>
	<path class="st1" d="M381.3,112.2c-0.6-1.3-4.4-0.9-5.6-0.6c-1.1,0.3-2.3,1.5-0.5,4.2c1.8,2.7-1.6,0.3-2.9,0
		c-1.3-0.3-4.2-0.5-4-2.3s-5.1,1.5-5-0.9c0.1-2.4-2.4-3.8-2.4-3.8s-5.6-17.7-6.8-19.5c-1.3-1.8,0.8-31.2,0.8-31.2s7.6-5.6,9.5-6.8
		s1.6-6,0.6-8.4s-0.6-1.8-2-4.6c-0.6-1.1-3.8-0.6-4.9-0.8c-1-0.3,0-2.2,3.3-4.6c3.3-2.4,12-14.8,18.1-11.2c5.5,3.3,2.1,7.8,2.1,7.8
		s-1.1,2.4-0.6,3.2c0.5,0.8,2.1,1.2,2.6,1.8c0.5,0.6-6.1-0.6-8.4-0.9c-2.3-0.3-6.3,1.6-6.3,1.6l-5.9,3"/>
	<path class="st1" d="M385.6,113.6c1.5,0,2.4-0.6,3.2-1.4c0.8-0.8,3.7-1,4.8,0"/>
	<path class="st1" d="M366.2,84.2c0,0,21.3,0.6,23.9,0"/>
	<path class="st1" d="M367.9,84.4c0,0,1.4,2.6,0.4,5l22-0.4"/>
	<path class="st1" d="M378.5,50.8c0,0,2.7,3.8,3.7,4.4c1,0.6,7.1,6.1,6.8,6.5s1.1,24.1,1.4,27.8c0.3,3.7-0.9,11.7,1,13.8
		c1.9,2.2,3.5,8.3,3.5,8.3"/>
	<path class="st1" d="M566.2,39.8c0,0-0.5,2.5,0.4,2.7c1,0.1,1.1,1.5,1.2,1.7c0.1,0.2-1.6,2.1,0,2.2c1.6,0.1,4.5-0.6,6-2"/>
	<path class="st1" d="M572.1,47.8c0,0,0,1.5,0.6,3.1c0.6,1.6,0.6,3.2,0,3.7s-3.5,3.8-4.2,6.1c-0.6,2.3-3.5,9.1-3.4,10.3
		c0.2,1.1-1.5,6.8-1.5,9.9s-0.2,12.9,0,14.5"/>
	<path class="st1" d="M584.8,67.4c0,0-1.6,12.6-2.4,17.3s-5.1,18.5-6,21s-1.9,9.1-4,10.2s-2.2,2.5-2.2,2.5"/>
	<path class="st1" d="M563.6,115.5c0.1-0.9,3.1-5.6,2.4-9c-0.7-3.4,1.2-7.1,1.4-9.5c0.2-2.5,1.7-15.5,2.2-16.1s0-16.1,0.7-17
		c0.7-0.8,3.4-7.7,3.6-8.3c0.2-0.6,3.8-1.1,5.5,0c1.7,1.1,4.1,5.2,4.6,7.8s0.8,4.4,0.8,4.4"/>
	<path class="st1" d="M588.6,34.1c0,0.3-1.3,1.4-1.9,1.9c-0.7,0.5-0.8,3.9-0.8,4.4c-0.1,0.5-1.9,4.8,0,6s8.3,10.6,8.3,15
		s-1.9,9-1.4,14s0.4,10.9,0.3,14.1c-0.1,3.2,0.4,9.6,0.7,12.3c0.3,2.6,1.8,9.7,2.1,11.1s-0.7,7.5-0.4,10.1c0.4,2.5,0,4.8,0,5.1"/>
	<path class="st1" d="M589.4,86.2c0,0-6,0.5-6.6,0"/>
	<path class="st1" d="M589.4,87.3c0,0,0.9,3.7,0.3,4.2c0,0-7-0.1-7.9-0.3"/>
	<path class="st1" d="M584.8,78.7c0,0,2.2-2.5,2.6-5.8s0-3.5,0-3.5s0.8-9.8-1.5-11.2c-2.3-1.4-6.1-6.5-9.2-5.6
		c-3.1,0.9-3.5,1.2-3.5,1.2"/>
	<path class="st1" d="M568.8,85.3c0,0-3.5-0.9-3.5,0c0,0.9,0,4.1,0,4.1s2.2,0.1,3,0"/>
	<path class="st1" d="M446.1,141.8c0,0-1.3,5.4-3.6,2.7c-2.3-2.6-1.1-5.8,0-5.1"/>
	<path class="st1" d="M444.4,140.5c1.7-1.3,0.6-0.9,0-2"/>
	<path class="st1" d="M432.7,141.7c-1-0.9-2.8-0.1-2.7,1.5s-2.5,3.1,0.3,4.2c2.8,1,3.1,0.3,3,1.7s2.9-0.6,3.4-1.6"/>
	<path class="st1" d="M436.4,144.5c-0.8-1.3,0.5-2,0.7-2.7c0.2-0.8,1.5-1.9,2.2-1.3"/>
	<path class="st1" d="M433.7,144.5c-0.6,2.6,0.1,2.9,1.8,2.2"/>
	<path class="st1" d="M422.3,147.5c1.6-0.3,4.5-0.6,5.2-3.6s1.4-5.4,1.4-5.4s-4.1-4.9-5.8-2.1"/>
	<path class="st1" d="M423.7,141c-2.1,2.4-1.2,5.5-3,2.2"/>
	<path class="st1" d="M419.4,139.3c0.8-0.8,1.4-2.1,2.9-1.3"/>
	<path class="st1" d="M420.1,135.1c-0.7-0.6-1.5-1.8-3.2,0c-1.8,1.8,0.5,4.3-0.7,5.2c-1.2,1-2.5-0.7-3.9-1.3c-1.4-0.7-3-0.6-3.7-0.5
		"/>
	<path class="st1" d="M409.3,135.5c0.7-1.2-1.3-0.6-0.8-2c0.5-1.3,0.8-1,2.9,0"/>
	<path class="st1" d="M414.8,132.9c0.3-1.5-1.5-3.7,0.5-1.9"/>
	<path class="st1" d="M414.9,136c-3.1,0.4-4.1,1.7-3.4,0"/>
	<path class="st1" d="M417.9,128.4c0.7-1.4,1.8-2.8,4.3-1.5"/>
	<path class="st1" d="M426.9,129.5c0.8,1.7,0.8,2.3,2.7,0.8c1.9-1.5,2.6-2.4,3.2-2.3"/>
	<path class="st1" d="M431.7,135.1c0,1.2,0.4,3.4-1.2,3.4"/>
	<path class="st1" d="M423.7,132.3c-0.7-1.6-3-3.1-3.6-1.2"/>
	<path class="st1" d="M417.9,131.9c-1.1-1.7-1.4-1.8-1.3-2.8"/>
	<path class="st1" d="M407.6,138.5c-1.4-2-4.6-2.2-3-4.3c1.5-2.1-1.6,1.4-3.3,0c-1.7-1.4-2.6-2.2-2.2,0"/>
	<path class="st1" d="M402.8,144c-1.6-0.1-1.6,0.1-1.5,1.8s0.2,2-1.4,2.3"/>
	<path class="st1" d="M397.8,150.5c-0.5,1.1-2,2.3,0,2.8"/>
	<path class="st1" d="M402.8,153.7c1.8-1.1,3.3-2.2,3.8-2c0.5,0.2-1.2-1.5-1.9-2.4"/>
	<path class="st1" d="M405.8,147c1-0.9-0.1-3.4,1.8-1.3"/>
	<path class="st1" d="M410,146.7c0,1.5,3,0.6,4-0.7c1-1.3,1.5-0.8,0.9-2"/>
	<path class="st1" d="M412.6,141.5c-2.9,0.1-2.4,1-3.2-0.5"/>
	<path class="st1" d="M375.8,138c2.5-0.6,3.4-2.3,2.7-4.1"/>
	<path class="st1" d="M377,134.4c-0.3-1.9,0.8-4.8,2.8-4.1"/>
	<path class="st1" d="M383.1,134.2c1.3,0.1,2.1,0,2.1,0"/>
	<path class="st1" d="M359.8,136.9c1.5-1.7,2.2-2.2,1-2.7"/>
	<path class="st1" d="M345.3,138.8c-0.5-0.5,3.2,0.4,0.4-2.3c-2.7-2.7-1.9-0.9-3-1.1"/>
	<path class="st1" d="M340.7,134.4c0.8-0.5,1.6-2.5,4.6-2.5s2.2-0.6,0.4-1.7"/>
	<path class="st1" d="M343,127.8c-1.9,0.1-0.3,2-1.9,0.1c-1.6-1.9-1.8-1.4-3.1-2"/>
	<path class="st1" d="M334.2,126c-0.8-1.1,0.5-2.2-2.1-2.3"/>
	<path class="st1" d="M329.1,123.1c-0.9,1.3-0.9,2.4-2.5,2.4"/>
	<path class="st1" d="M324.4,126.9c-4.5-1-2.5-0.5-4.5-1s-2.6-1.8-4.2-1"/>
	<path class="st1" d="M312.4,126.5c-1.9,0.6-1.7,1.2-4.1,0s-1-1.5-3.1-0.6"/>
	<path class="st1" d="M300.9,126.3c-2.6-2-3.8-2.9-5-2.7c-1.2,0.3-1.9-1.7-2.6,0.7"/>
	<path class="st1" d="M295.9,127.2c3.9,0.7,4.9-0.7,5,1.4c0.1,2.1-3.9,2-5,1.4"/>
	<path class="st1" d="M294.1,128c-1.5-0.8-3.7-0.6-1.9,1.9"/>
	<path class="st1" d="M303.6,129.8c2-1,2.5-0.1,2.1,1.4"/>
	<path class="st1" d="M306.3,133.3c3.8,0.2,4.4,0.2,4.4-1.2c0-1.4-0.7-2-2.2-1.8"/>
	<path class="st1" d="M315.7,131.8c1.4,1.5,1.2-1.6,2.7-1.4c1.5,0.2-1.4,2.1,1.4,1.8c2.8-0.4,1.4-1.4,2.8-1c1.4,0.4,1.4-1,0.3,1"/>
	<path class="st1" d="M331.5,131.4c0.4,0.3-1.6,0-0.2-1.5"/>
	<path class="st1" d="M336.2,130.6c0.7,2.1,4.1,1.3,3.3,2.6"/>
	<path class="st1" d="M333.7,134.4c2.1,0.1,2.7,0,2.5,0.7"/>
	<path class="st1" d="M337.9,139.4c2,1.5,1.5,3.4,1.2,3.7"/>
	<path class="st1" d="M315.4,134c0.8,1.9-0.8,2.9,1.5,2.3"/>
	<path class="st1" d="M299.3,137.1c0-0.4,0.7-2.9-1.9-3.9s-1.3-2.3-4.2-1"/>
	<path class="st1" d="M285.3,132.3c0.1-0.8,4.1-2.5,4.1-2.5s-2.3-0.7-2.4-1.1"/>
	<path class="st1" d="M285.3,126.9c0.2-0.3,2-1.8-0.8-2.1c-2.8-0.3-2.4,1.4-3.5,0c-1.1-1.4-2.3-2.5-3.5-1.6
		c-1.3,0.9-1.9-1.4-2.7,1.2"/>
	<path class="st1" d="M275.9,127.2c1-0.9,3.1-1.8,3.5-0.3c0.4,1.4,1.9,3.3,3.2,3"/>
	<path class="st1" d="M278.5,131.7c-1.2-1.9-3.9-2.9-4.1-1.9"/>
	<path class="st1" d="M275.1,133.4c-0.8,1.2-0.8,2.7-1.8,1.1s-1.9-1.8-1-2.6"/>
	<path class="st1" d="M271.1,128.8c-3,0.2-3.5,1.2-3.7-0.1"/>
	<path class="st1" d="M265.9,126.1c-0.9-3.6-0.6-4.7-2-4s-1.5,0.8-2.1,0.3c-0.6-0.5-1-1.1-2.3,0.8c-1.3,1.9-2.9,1.6-1.1,3.7"/>
	<path class="st1" d="M260.4,126.9c0.7-0.8,2.7-1.6,2.5,0.3"/>
	<path class="st1" d="M261.6,130.6c-1.9,1-2.6,0-2.6-1.1c0-1.1-1.1,1.2-1.9,0.4"/>
	<path class="st1" d="M254.8,128c-1.5-0.4-3.5-1.2-3.9,0c-0.3,1.2-0.8,3.3-1.4,3.3"/>
	<path class="st1" d="M248.1,129.3c-0.6,0.1-0.8-2.3-1.1,0.5c-0.3,2.8,0.8,2.9,1.6,3.3"/>
	<path class="st1" d="M250.9,135.9c0.8-1.6,0.5-3.4,1.6-1.5"/>
	<path class="st1" d="M252.5,135.9c2.3-0.3,2.5-0.6,2.3-1.5"/>
	<path class="st1" d="M254.3,132.8c0-0.4,1.4-3.3,2.4-1"/>
	<path class="st1" d="M258.4,135.9c-2.5,0.4-2.7,1.7-1.8,2.5"/>
	<path class="st1" d="M258.8,136.4c1.4,0,1.8,0.1,1.9,1.9"/>
	<path class="st1" d="M257.6,140.2c-2.8,0-2.9,0-2.7-1"/>
	<path class="st1" d="M259.8,140.8c2.1,0.7,2.7-0.6,2.4-1.7"/>
	<path class="st1" d="M261.7,134.8c0,0-1.2-2-3.3-1.1"/>
	<path class="st1" d="M264.8,135.2c-0.1,0.6-1.9,1.8,0.3,2.7"/>
	<path class="st1" d="M266.6,135.9c0.8-1.5,2.5-2.7,2.6-1.1c0.2,1.6-1.1,2.8-0.5,3.6"/>
	<path class="st1" d="M265.9,140.8c-1.8,0.1-1.9,0.5-1.9-0.7"/>
	<path class="st1" d="M273.5,145.5c0.5,0.3,2.2,0.2,2-0.8"/>
	<path class="st1" d="M272.9,143.1c-0.1,0.6-1,0.1-0.9,2"/>
	<path class="st1" d="M276.4,147.7c0.6-0.5,0.6-1.3,0.6-2.1"/>
	<path class="st1" d="M275.5,142.3c-2.3-1-0.7-1.5-2.3-1"/>
	<path class="st1" d="M269.9,144.7c0,0,0.9,3.2,2,4.2"/>
	<path class="st1" d="M275.1,149.9c0.3-1-0.1-2,0.8-2.5"/>
	<path class="st1" d="M263.7,150.9c-0.7,0.8,0.1,2.2-1.4,1.7"/>
	<path class="st1" d="M260.7,151.8c0,0.4-1.2,2.7,0,3.2"/>
	<path class="st1" d="M264,155c0.6-1.9,1.6-1.6,0.9-3.2"/>
	<path class="st1" d="M261.6,150.1c-0.3,0.4-1.4-0.3-1.9,0.2"/>
	<path class="st1" d="M262.2,155.4c0.3,0.4,1.3-0.3,1.4,1.1"/>
	<path class="st1" d="M258.4,159.1c0,0-2-1.6-3.6,1.8s-1.5,0.8-1.5,3.4c0,2.5-0.6-0.5-0.8,1.6c-0.3,2.1-0.8,0.5-1.6,2.7
		c-0.8,2.2-1.4-0.6-1.9,2.2c-0.5,2.8-0.8-0.8-1.3,1.4"/>
	<path class="st1" d="M251.3,161.8c-3,2.7-2.9,1.9-2.7,4.2c0.2,2.3-0.8-0.8-0.8,1.7c0,2.5-0.2,1,0,2.5"/>
	<path class="st1" d="M275.1,158.8c-1.1,1.1-4.1,2.2-4.1,4.4c0,2.2-1.5-0.6-2.1,2.8s-0.6,1.3-0.4,4.2c0.2,2.9-3.7-2.1-2.1,0.9
		c1.6,3-2.3,0.8-0.4,3.5c1.9,2.7,3,1.6,3.4,2.5"/>
	<path class="st1" d="M267.9,162.4c-1.6,2.3-3.3,0.3-2.6,3.1c0.8,2.8-0.4,1.7-0.4,3.6"/>
	<path class="st1" d="M270.9,158c0,0-2.7-2.9-5.1,0c-2.4,2.9-2.9,3.2-3.6,2.2c-0.8-1-0.8-1.4-1.9-0.1"/>
	<path class="st1" d="M255.5,149.6c-1.2-1.1-3.1-2.6-1.2-2c1.9,0.6,4.8,1,3.3-0.2"/>
	<path class="st1" d="M253.7,145.6c-2.9,1.2-2.9,0.2-2,2.1"/>
	<path class="st1" d="M256.2,145.6c1.4,0.3,2.2,0.5,2.3,1.1"/>
	<path class="st1" d="M253.1,150.3c-1.2-0.5-1.5-0.2-2.2-1.5"/>
	<path class="st1" d="M244.1,150.1c-0.6,0.5,1.2,1.6-1.2,1.2"/>
	<path class="st1" d="M241.4,147.7c0.2,2.7-0.3,4.7-1.4,2.2"/>
	<path class="st1" d="M240.7,145.6c2.8-1.2,2.8-1.6,4.2-0.5"/>
	<path class="st1" d="M244.2,142.3c-1-1-2.7-2-1-2.1c1.8-0.1,2.3,0.7,2.5-0.5c0.2-1.2,2.1-2.1,1.3-3.7c-0.8-1.6-1.8-1.6-1.4-3.6"/>
	<path class="st1" d="M247.8,143.1c0.7-1.5,4.7-3.6,5.3-2.9"/>
	<path class="st1" d="M251.7,143.5c-1.1-0.2-2.8,0.6-3.1,1.5"/>
	<path class="st1" d="M246.2,151c0.7,1.2,1,2.6,0,3.1c-1,0.5,0.6,0.1-3.3,2.6"/>
	<path class="st1" d="M240.7,155.4c-0.1,2.4,0.2,3.3,2.1,3.3"/>
	<path class="st1" d="M338.5,123.6c2.4-1-1.1-2,2.7-3c3.8-0.9,7.3-2.4,7.2-3.2"/>
	<path class="st1" d="M348.3,116.8c2.4-0.6,4.8,0.3,4.8-0.8c0-1,0-2.4,0-2.4"/>
	<path class="st1" d="M351.5,110.7c-0.8,0.1-4-0.6-4.2,0.4s-2.1,2.7-2.5,2.5"/>
	<path class="st1" d="M341.8,113.7c0,0-2.1-1.8-2.8,0.6c-0.7,2.4-1.8,2.9-2.9,3.6c-1.1,0.8-2.5,1.9-1.9,3.2"/>
	<path class="st1" d="M354,112.6c1.1-0.6,3.2,0.4,4,0c0.8-0.4,0.8-1.3,1.8-1.5"/>
	<path class="st1" d="M348.1,121.1c0.5,1,1.5,1,3.4,0.7c1.9-0.3,1.6-1.5,3.5-1.6c1.9-0.1,2.9,1,3.1,0"/>
	<path class="st1" d="M358.1,117.5c-0.2-1.7,3.5-1.2,3.5,0s0.9,0.3,1.5,2c0.6,1.7,1.4,3.6,2.1,2.8"/>
	<path class="st1" d="M367.7,119.7c2.7-0.6-0.4-1.5,3,0c3.4,1.5,4.5,0,5,1.7"/>
	<path class="st1" d="M380.6,122c2.2-0.3-0.4-1.6,1.8-1.8c2.2-0.2,2,0.9,2-0.7"/>
	<path class="st1" d="M383.6,117.2c-1.5-0.9-3.2-0.1-3,1"/>
	<path class="st1" d="M387.1,119.5c1.4,0.6,4.1-0.4,2.5,1.2s-0.1,3.2-2.9,3.2s-4.2,1.2-3.7-0.2"/>
	<path class="st1" d="M387.5,118.9c1.3-1,1.4-2.6,3.7-1.9c2.3,0.8,1.6,2,3.8,2.7c2.2,0.7,2.7,1.7,4.2,0.9s3-0.9,4-2.1
		c1-1.3,1.6-2.2,2.2-1"/>
	<path class="st1" d="M397.8,112.1c1.5,1.1,0.1,1.3,3.4,0.5c3.2-0.8,2.6-1,5.1,0c2.5,1,2.3,0.4,2.6,1.7c0.3,1.3-4.3,2.1-4.8,0.9"/>
	<path class="st1" d="M411,114.9c0.3-0.6,3.8-2.9,5.1-1"/>
	<path class="st1" d="M411.5,116.2c0.4,2.5-1.1,2.6,1.6,2.7s-1.5-2.6,0.9-3.1"/>
	<path class="st1" d="M415.4,117.4c1.9,2.2,3.3-0.2,3.7,1.5c0.3,1.6-2.1,0.2,0.4,2.2c2.5,2,3.7,3.1,4.3,1.3"/>
	<path class="st1" d="M423.7,118.9c0.3-1.1,2.5-2.3,2.4-0.6c-0.1,1.6-1.6,1.5-1.2,3.3c0.4,1.8,1,2.5,0,2.7"/>
	<path class="st1" d="M421.6,120.3c-1.5-1.2-2.2-1.6-0.8-2.7"/>
	<path class="st1" d="M419.4,114.9c1.8,0.7,3.3,0.7,4.3,0.5c1-0.1,1.6-0.1,1.9,0.6"/>
	<path class="st1" d="M429.9,116.2"/>
	<path class="st1" d="M433,114.9c0.6,0.6,0.5,3-0.6,3.1s-2.6-1.8-2.6-1.8"/>
	<path class="st1" d="M436.6,116c2.4,0.1,2.1,0.1,2.6-1c0.5-1,1.6-1.5,2-1.3"/>
	<path class="st1" d="M427.3,126.9c2.7,0.2,3.7-0.3,3.8-1.8c0.1-1.5-1.6-1.9,0-3.4"/>
	<path class="st1" d="M420,124.9c0,0-1.7-3-3.4-1.7s-2.1,2.2-1.7,3.7"/>
	<path class="st1" d="M383.6,122.5c2.4-0.5,2.7,0.1,2.7-1.5"/>
	<path class="st1" d="M378.7,115.7c-0.2-1,0.7-2.9,1.9-1.5"/>
	<path class="st1" d="M395.9,115.5c0.6,1.2,1.3,2.5,1.3,1.3s0.6-2.7,1.7-1.6c1.2,1.1,2,2,2.4,0.9c0.4-1.1,1.3-1.8,1.9-1.7"/>
	<path class="st1" d="M316.1,128c3.7,0.8,0.6,2.1,3.6,1.4"/>
	<path class="st1" d="M440.6,134c0.4,0.2-0.2-2.5,3.4-1.7"/>
	<path class="st1" d="M446.1,135c-1.9-0.2,1.1,0.7-2.1,1"/>
	<path class="st1" d="M440.1,138.9c-0.4-1.4-2.7-2.3-0.3-2.5"/>
	<path class="st1" d="M557.1,129.1c-0.1-1,2.9-3.7,3.6-0.8c0.7,2.9,0.2,4.8,4.1,3c3.9-1.8,4.8-3,6.1-1.9"/>
	<path class="st1" d="M578.4,135.3c-2.2-3.1-2.3-4.9-3-3.4"/>
	<path class="st1" d="M579.9,126c-0.8-3.1,0.9-4.8,1.2-2.6c0.3,2.3,1.6,4,0,4.3"/>
	<path class="st1" d="M553.1,127.9c-0.5-2,1.2-4.3-0.5-2.6"/>
	<path class="st1" d="M542.3,135.6c3,2.3,3.1,3.2,4.1,0.9c0.9-2.3,1.6-2.2,1.6-1.7"/>
	<path class="st1" d="M543.5,132.8c1.4-1.6,2.5-2.5,2.5-2.5"/>
	<path class="st1" d="M542.3,138.8c-1.5-1.1-2.1-3.6-0.8-4c1.3-0.4,3.2,0.7,3.6,1.2"/>
	<path class="st1" d="M327.6,129.1c0.3-0.9-0.3-3.1,1.4-1.9c1.7,1.2,3.4,1.6,4.6,1.3"/>
	<path class="st1" d="M340.1,138.3c1.6,1.2,0.1,1.5,1.7,1.9"/>
	<path class="st1" d="M323.9,165.5c-0.8,1.5,2-0.1,1.9,2.3s0.9-1.7,1.3,1.3s2.2-2.3,2,1.5c-0.3,3.8,3-0.7,2.2,2.4
		c-0.8,3.1,0,2.5,0,2.5"/>
	<path class="st1" d="M332.9,169c0.3-0.8-2.5-2.3,0-2.8c2.5-0.5-1.5-2.6,0-2.2s-2.1-2.1,0-2.1"/>
	<path class="st1" d="M338,168.1c0.1,0,4.7-1.1,5-1.9c0.2-0.8,1,0.3,1.5,1.9s1.4-1.4,1.2,2.4c-0.2,3.8,0.7-0.2,0.4,3"/>
	<path class="st1" d="M345.3,165.9c-0.2-1-1.2-2.2,1.4-1.9c2.6,0.3,2.2,1.7,3.1-0.7s1-2.2,1.3-3.2"/>
	<path class="st1" d="M347,177.8c1.3-0.4,4.5-0.4,5.4-2.3c0.9-1.9,1.6-3.7,1.8-4"/>
	<path class="st1" d="M352.4,172.5c-0.5,1.7-3,1.9-3.3,2.2c-0.3,0.2-0.9-0.1-0.5,0.9"/>
	<path class="st1" d="M353.7,169.7c0.7-0.7,4.2-0.5,4.3,0.8c0.1,1.3-2.2,0.6-1.6,3c0.6,2.4,1.1,2.2,1.2,2.8"/>
	<path class="st1" d="M358.3,173c0.3-0.3,0.3,0.5,0.9-1.5c0.6-2,0.5-1.8,0.6-2.8"/>
	<path class="st1" d="M362.9,169.7c-0.7,1-1.5,2.3-1,3.8c0.5,1.5,1,1.9,0.3,2.8"/>
	<path class="st1" d="M303.3,167.8c-0.1,1.8-1.6,4.6-1.5,3.4c0.1-1.3,0.1-2.6-0.8-1s0.6-0.5-1.5,1.3c-2,1.8-1.1-2.2-1.8,0
		c-0.8,2.2-0.3,2.6-0.3,2.6"/>
	<path class="st1" d="M297.3,170.2c-0.1-0.2,0.7-3.6,2-3.1c1.3,0.5-0.4-2.3,1.3-2.3"/>
	<path class="st1" d="M295.4,161.8c-0.8,0.3-4.1,3-3.7,3.9s-2.3-2-1.3,1c1,3,0,3.5,0,3.5"/>
	<path class="st1" d="M289.6,167.4c0-0.4-3-2-1.8-4.2c1.1-2.2-1.5-0.6-0.5-2.5c1-1.9,1.4-2.9-0.2-3.1"/>
	<path class="st1" d="M274.4,157.6c-0.4-1.6-0.6-2.2,1.1-2.4c1.7-0.3,0.6-1.2,1.5-2.1c0.9-0.8-0.2-1.3,1.5-1.4
		c1.7,0,1.9-2.6,1.9-2.9"/>
	<path class="st1" d="M246.6,157.6c1-1.8-0.7-3.2,2.6-2.6c3.3,0.6,2.4-0.5,3.9-0.7c1.5-0.3,2.4-1,1.9,0.4c-0.5,1.4-2.9,1.2-2.6,2.9
		c0.3,1.7,0,2.6-0.7,2.9"/>
	<path class="st1" d="M264,147.7c-0.2-0.2-0.1-1.7,1.2-1.1c1.2,0.6-1.1,1.3,1.2,0.6"/>
	<path class="st1" d="M270.9,142.7c-0.7-1.6,0-2.4,1-2.1"/>
	<path class="st1" d="M289,149.3c-1.2-2.2-0.7-3,0.4-2.2"/>
	<path class="st1" d="M404,175c-1.6,1.5-3.4,0.4-3.1,2.3s0.1,2.9,0,3"/>
	<path class="st1" d="M401.6,174.3c-0.1-1.6-1.1-2.9,0.5-3s2.1,1.1,1.9-1.1c-0.2-2.2,1.3-2.2,1.7-2.2"/>
	<path class="st1" d="M400.4,181.8c-0.1,2,0.7,2-0.4,2"/>
	<path class="st1" d="M407,172.5c2.3-0.7,2.9-0.2,2.7-1.9c-0.1-1.7-1.2-1.7,0-3.5"/>
	<path class="st1" d="M413.6,181c1.2-3.2,0.6-5.3,2.7-4.3c2.2,1-0.4-1.5,2.4-0.7c2.8,0.8,3.2,1.3,3.1-0.1s-0.8-3.1,0.3-3.3"/>
	<path class="st1" d="M417.5,160.7"/>
	<path class="st1" d="M419.9,173.9c-0.3-1.9,1.1,0,0-2c-1.1-2,0-0.2-0.8-2.3c-0.8-2,1.3-2.1-0.3-2.3c-1.5-0.2,0.6-0.3-0.4-1.9
		c-1-1.6,1.1-1.3-0.2-2.6"/>
	<path class="st1" d="M415.1,159.5c-0.6-1.9-1.2-2.3-1.5-1.5"/>
	<path class="st1" d="M412,156.4c0,1-0.8,0.9-0.8,2.1s0.6,2.4-0.6,2.2"/>
	<path class="st1" d="M408.8,155c0.7,0.6,1.7,0.3,2.5-0.3c0.8-0.6,2.6-1.6,3.1-0.8"/>
	<path class="st1" d="M456.9,152.7c0.2-0.2,3.2-4.2,3.8-1.8c0.6,2.4,0.6,2.6,0.3,3.9"/>
	<path class="st1" d="M461.2,138.9c-2.2,0.5-3.5,0.1-2.7-1"/>
	<path class="st1" d="M461.2,136.4c0.3-2.2,0.6-3.1-0.3-3.6"/>
	<path class="st1" d="M520.1,142.6c1.1-0.6,2.3-1.7,0.5-2.1"/>
	<path class="st1" d="M510.1,172.3c2.5,0.7,2.4,0.4,2.6,1.6s2.4-0.6,1.9,1.8c-0.5,2.4,0.1,1.9,0.5,3.2"/>
	<path class="st1" d="M517.4,175.2c0.1-1.7,2.9-0.4,1.4-1.7c-1.4-1.3,1.5-1.4,0.8-1.7c-0.6-0.3,2-0.6,1.3-1.1"/>
	<path class="st1" d="M549.2,162.4c0,0-0.4,1.5-1.6,1.9"/>
	<path class="st1" d="M546.9,160.2c-0.4-1.8-0.6,1.2-1.6-0.9c-1-2.1-1.2,0.9-2.2-1.4c-1-2.3-3.1,1-3.4-0.5c-0.4-1.6-1.3,0.5-0.4-2"
		/>
	<path class="st1" d="M569.9,176.9c1.2,1.6,1.7,0.6,1.8,2.5c0.2,1.9,0.9,1.4,0.1,2.9c-0.8,1.6-1,1.2-0.6,1.8"/>
	<path class="st1" d="M579.1,171.3c0.7,1.9,1.7,1.1,0.5,2.9c-1.1,1.8-0.8,1.7-0.3,2.8"/>
	<path class="st1" d="M594.5,164.7c0.5,0.6,2.3,0.4,1.4,2.7s-0.9,1.5-0.5,3.4c0.4,1.9,0.5,1.6,0.4,2.2"/>
	<path class="st1" d="M593.9,163.1c-0.5-1.6-0.5-1,0.2-2.5c0.7-1.5,1.1-2.7,1-3.3"/>
	<path class="st1" d="M669.7,167.5c-1.6,0.5-2-0.8-1.7,0.9s0.1,1.5-0.7,2.1c-0.8,0.6-1-0.2-1,1.3c0,1.4-1.1,0.8,0.5,1.9
		s1.2,1.5,1.9,2"/>
	<path class="st1" d="M669.7,173.1c0-1.1,0-0.6,0.7-1.5"/>
	<path class="st1" d="M231.7,252.8l137.7,25.4c0,0,1.6-0.3,0-1.8l-146.4-27.8"/>
	<path class="st1" d="M212.7,254.1l160.1,33.2c0,0,23.3,13.8,35.2,14.5s75,17.2,80.8,16.6c5.7-0.7,69.3,17.6,78.1,17.6
		c8.8,0,42.6,8.8,51.7,7.8"/>
	<path class="st1" d="M512.3,281.2c0,0,111.7,18.3,113.2,19.3c1.5,1,18.8,2.8,18.8,2.8h1.9"/>
	<path class="st1" d="M643.8,309c-2.7,1.7-98.2-16.8-98.2-16.8"/>
	<path class="st1" d="M496.6,289.3c0,0,143.3,29.5,143.9,28.1"/>
	<path class="st1" d="M478.3,291.1c0,0,149,33.5,154.1,33.5"/>
	<path class="st1" d="M478.3,293.5c0,0,154.1,34,155.5,33.5"/>
	<path class="st1" d="M117.9,250.8c0,0,90.8,20.9,98.4,24.2"/>
	<path class="st1" d="M68.6,296.7c0,0,100.7,19.9,113.2,23"/>
	<path class="st1" d="M91.6,267"/>
	<path class="st1" d="M155.8,286.6c17.2,6.1,24.3,6.4,24.3,6.4"/>
	<path class="st1" d="M82.1,265.5c10.1,3.2,49,12.7,49,12.7"/>
	<path class="st1" d="M249.5,235c0,0,47.8,7.8,50.6,9.5"/>
	<path class="st1" d="M319.8,248.6c9,1.6,26.2,6,31.8,5.5"/>
	<path class="st1" d="M367.1,254.1c1.9-1.5,3.2-3.2,4.2-4.2"/>
	<path class="st1" d="M364.2,248.6c-2.7,0.4-33-7.1-39.2-6.5"/>
	<path class="st1" d="M306.3,239.8c-8.8-0.4-53.4-9.8-58.6-9.8"/>
	<line class="st1" x1="246.9" y1="225.4" x2="388.2" y2="233.5"/>
	<path class="st1" d="M260.1,229.5c0.5,0.2,81.5,6.4,81.5,6.4"/>
	<path class="st1" d="M348.8,237.5c21.1-0.6,42.4,3.3,42.4,3.3"/>
	<line class="st1" x1="408.5" y1="244.3" x2="465.9" y2="249.2"/>
	<line class="st1" x1="473.1" y1="249.2" x2="485.8" y2="250.5"/>
	<path class="st1" d="M324.3,216.4c0,0,58.8,4.4,62.2,4.1"/>
	<path class="st1" d="M325,218.5c5.7,0.3,20.3,1.2,23.8,2"/>
	<path class="st1" d="M369.2,222.7c5.2,0,20.4,0,20.4,0"/>
	<path class="st1" d="M613.8,376.2c-1.5,0-102.7-15.7-107.2-20.3"/>
	<path class="st1" d="M484.7,343.8c-7.6-0.6-45.4-11.5-54-11.7"/>
	<path class="st1" d="M398.8,324.6c-9.9-2.7-25.9-7.2-25.9-7.2"/>
	<path class="st1" d="M326.3,299c17.5,3.7,45,9.5,45,9.5"/>
	<path class="st1" d="M463.3,279.4c0,0-13.2-2.6-19.3-3"/>
	<path class="st1" d="M453.6,269c5.2,1.4,6.9,1.6,8.6,2.1"/>
	<path class="st1" d="M453.6,271.1c3.7,0.3,8.6,2.3,8.6,2.3"/>
	<path class="st1" d="M244.7,244.3c0,0,47.7,10,49.9,9.8"/>
	<line class="st1" x1="312" y1="256.5" x2="340.1" y2="261.4"/>
	<line class="st1" x1="242.9" y1="248.6" x2="276.9" y2="254.2"/>
	<line class="st1" x1="302.2" y1="258.9" x2="329.1" y2="263.8"/>
	<path class="st1" d="M229.1,165.1c0,0-4.8,3.4-4.2,5.1c0.5,1.7,1.1,2.4,1.4,4.9s1.4,9.8,0.8,13.4s-1.9,9.7-2.2,13.2
		c-0.3,3.5,0.6,17,0,18.2c-0.6,1.2-1.7,2.5-1.7,3.6c0,1.1,1.2,1.9,4.3,2.6c3.1,0.8,5.5,1.2,5.5,1.2"/>
	<path class="st1" d="M242.5,227.2c0.4,0.3,3.4,2.9,1.8-6.4c-1.6-9.3-0.5-17.5-0.7-18.4c-0.1-0.9,0.1-6.5,0.3-7
		c0.3-0.5,0.9-3.4,0.8-3.8c-0.1-0.4-1.9-0.9-3.6-2.2s-1.2-16.8-1.2-16.8s0.7-0.6,1.2,0.4c0.2,0.4,22.9,19.2,47.5,21.7
		c19.4,2,86.7-7.2,93.2-17.3"/>
	<path class="st1" d="M650.2,189.4c0,0,0.9,9.1,0,13.5s0.2,11,0,14.8c-0.2,3.8,0,12.9,0,12.9"/>
	<line class="st1" x1="642.9" y1="268.2" x2="649.6" y2="268.7"/>
	<line class="st1" x1="654.2" y1="268.7" x2="657.9" y2="269.2"/>
	<path class="st1" d="M190,146.2c0,0,15.7,1,20.3-0.1"/>
	<path class="st1" d="M213.1,146.2c0,0,10.2-0.1,12.4-1.4"/>
	<path class="st1" d="M222.9,71.4c0,0,1.8,11,1,16.1c-0.8,5.1-0.4,10.9-0.4,10.9"/>
	<path class="st1" d="M206.8,56.7l-1.7-0.7v-2c0,0-2.5-0.4-4.1-0.8c-1.5-0.3-6.6-3.3-6.6-3.3"/>
	<path class="st1" d="M208,52.6c0,0,1.2,0.7-0.3,1.4c-1.5,0.7-1.9,0.1-1.6,1.1c0.3,1,0.8,1.5,0.8,1.5"/>
	<ellipse class="st1" cx="378.2" cy="58" rx="0.8" ry="1"/>
	<ellipse class="st1" cx="381.8" cy="65.7" rx="0.9" ry="1.1"/>
	<ellipse class="st1" cx="382.9" cy="74.4" rx="0.6" ry="1"/>
	<ellipse class="st1" cx="383.9" cy="82.5" rx="0.7" ry="1"/>
	<ellipse class="st1" cx="384.9" cy="91.2" rx="0.8" ry="1"/>
	<path class="st1" d="M371.3,53.4l-5,3.1c0,0,13.9,15.9,10.8,26.8l-0.6,1.4"/>
	<path class="st1" d="M368.3,89.5c0,0-0.1,1-0.3,1.3"/>
	<path class="st1" d="M382.1,36.8c0,0.5-0.5,2.3,0.1,3.3s1.6,1.5,0.9,2.5c-0.7,1-1,0.5-1,1.6c0,1.1,0.1,1.7-0.2,2.8
		c-0.3,1.1-0.5,1.4-0.9,2c-0.4,0.7-5.7,0.5-6.8-1.2"/>
	<path class="st1" d="M469.9,216.9c0,0,1.6,0.5,1.6,1.1s0.2-0.9,0.2-2.2c0-1.3-0.3-0.9,0-1.6s0.2-0.2,1.3-0.2s1.6,0,1.6,0
		s0.2,6.2,0.1,7.9s-0.6,2.5,0,2.7c0.6,0.2,1.1-0.6,1.1,0.7s0.4,8.2,0.4,8.5s0-0.1,0.4,0.3s0.3,3.4,0.5,5.3c0.2,1.9,0.8,7.3,0.8,8.7
		c0,1.4-1.2,1.8-2.4,1.1s-0.5-0.4-0.4-3c0.1-2.6,0.3-3.9-0.6-6.9c-0.9-3-1-3.2-1.6-6.5c-0.6-3.3-0.7-3.1-0.8-4.9
		c-0.1-1.8-0.2-0.9-1.1-2c-1-1.1-1,0.2-1-1.5S469.9,216.9,469.9,216.9z"/>
	<path class="st1" d="M206,233.9c0.8,0.4,2.1,1.2,1.7,2.8s1.4,4.7,3,6.9s4.8,4.7,5,5.5"/>
	<path class="st1" d="M187.9,200.5c0,0,11.2,1.4,15.6-1.2"/>
	<path class="st1" d="M216.7,198.7c-0.3,0.3-12,2.2-12.6,1.4"/>
	<path class="st1" d="M456.2,139.7c0.1,0.3,1.2,5,1.2,7.8c0,2.8,0,3.4,0,3.4"/>
	<path class="st1" d="M461.4,150.7c0,0,0.5-4.6,0.3-6.3c-0.3-1.8,0.6-1.8,1.3-1.6"/>
	<path class="st1" d="M463.2,141.1c0,0-1.4-0.1-1.8-0.1s-0.7-0.3-0.6-1s-1.3-0.7-2.5-0.7c-1.2,0-1.7,0.2-1.7,0.2"/>
	<path class="st1" d="M562.1,105.7c0,0-0.5-16.5-0.5-16.8c0-0.3-3.3-4.1-3.3-4.5c0-0.4,0.8,18.4,0.8,19.2"/>
	<path class="st1" d="M561,113.2c0,0-0.3-0.2-0.8-0.2s-0.1-3.5-0.4-3.8c-0.3-0.3-0.8-2.2-0.1-2.3c0.2,0,2.3,0.8,2.6,0.2
		c0.3-0.6-0.6-1.3,0.4-1.3c1,0,1.5-0.1,1.5,0.7"/>
	<path class="st1" d="M561.4,113.9c0,0,0.3,0.2,0.1,1s-0.7,0.7-1.2,0.8c-0.5,0.1-0.4,0.2-0.3,0.8c0.1,0.6-0.2,1.6,0.3,1.3
		s1.4-1.4,1.6-0.1c0.2,1.3,1.3,2.2,0.8,2.9c-0.5,0.7-0.4,1.6-1.3,1.6c-0.9,0.1-1.6-0.5-2.7,0.1"/>
	<path class="st1" d="M563.7,95.3c0,0,0.7,17,0.2,18.7"/>
	<path class="st1" d="M576.3,40.1c0,0,2.3,0.3,2.7-1.7c0.5-2,0.6-3.9-0.6-4.2s-2.5,0.8-2.5,1.8c0,1-0.4,1.7,0.3,1.8
		c0.8,0.1,1.2,0.4,1.2-0.2"/>
	<path class="st1" d="M507.5,158.4c0,0,0.6,42.7,1.3,45.2c0.7,2.5,6.1,9.2,5,20.1c-1.1,10.9-1.8,42-2.7,43.3
		c-0.9,1.3,1.1,14.1-0.2,15.1c-1.3,1-5.7,1.7-5.7,1.7"/>
	<path class="st1" d="M467,60.7c0,0-5.2,2.5-4.9,13.4c0.3,10.9-0.4,11.7-0.4,11.7s-3.8,2.5-3.8,5.6c0,3-0.9,8.3-0.3,8.6
		c0.6,0.3,0.7,0.7,2.3,1.5c1.6,0.8,1-1,2-2c1-1-0.2-3.1,0.7-3.9c0.9-0.8,1.3-3.3,1.1-4.6c-0.3-1.3-1.1-1.6-1.3-1.9
		c-0.2-0.3,0.1,2.2,0,3.9s-1.1,7.6-1.6,5.8s0.5-8,0.1-8c-0.4-0.1-1.1-2-1.3,3.2c-0.2,5.1-0.2,5.1-0.2,5.1"/>
	<path class="st1" d="M460.6,102.5c0.1,0.3,1.8,6.7,2,10.2c0.2,3.5-0.7,27.4-0.7,27.4"/>
	<path class="st1" d="M187.2,100.4c0,0,18.7-0.3,21,0.8c0,0,1.3-0.4,9.7,0"/>
	<path class="st1" d="M200.2,57.6c0,0-12.9,3.2-13,4.2c-0.1,1,26.5,22.2,21,39.4"/>
	<path class="st1" d="M361.6,37.6c0,0,3.3-7.4,11.2-8.1c7.9-0.7,8.5,0.3,8.5,0.3"/>
	<path class="st1" d="M185.4,29.4c0,0,5.2-6.1,10.3-7.1c5.1-1,12.1-2.1,17.5-1.2"/>
	<path class="st1" d="M186.7,33.5c0,0,9.3-4.4,11-4"/>
	<path class="st1" d="M570.2,17.8c0,0-0.1,8.1,18.8,15.1c3.1,1.1,4.6-2.2,5.1-3c0.4-0.8-14.4-9.7-17.9-12.8s-6.8,0.4-6.8,0.4
		s-1,1.9-0.3,2.6c0.7,0.7,0.8,1.5,0.3,3.2c-0.5,1.7-1.1,2.7-1.1,3c0,0.4,0,2.4-1.2,2.2c-1.2-0.2-2.5,0.4-2.1,1.1
		c0.4,0.6,2.5,1.2,2.6,1.4c0.1,0.3,0.5,0.8-0.1,2.6c-0.6,1.8-2.4,4.1-2.5,4.4c-0.1,0.3,2.1,1.3,2.3,0.8c0.3-0.4,0.5-1,0.5-1"/>
	<path class="st1" d="M568.4,31.7c0,0,17.9,2.9,18.3,4.2"/>
	<ellipse class="st1" cx="220" cy="111" rx="1.2" ry="1.5"/>
	<ellipse class="st1" cx="219.4" cy="98.3" rx="1.1" ry="1.5"/>
	<ellipse class="st1" cx="218.1" cy="85.5" rx="1.2" ry="1.6"/>
	<ellipse class="st1" cx="214.3" cy="73.1" rx="1.4" ry="1.6"/>
	<ellipse class="st1" cx="208.7" cy="61.7" rx="1.2" ry="1.6"/>
</g>
</svg>
