<svg xmlns="http://www.w3.org/2000/svg" viewBox="0 0 614 559" xml:space="preserve"><style>.st1{fill:none;stroke:#ffffff;stroke-miterlimit:10}</style><g id="Слой_2"><path class="st1" d="m425.25 115.32 20.96-4.56M472.58 74.93s-21.8-16.73-67.94-13.18l-11.49 1.35M432.86 75.77l31.59-5.4M310.83 97.15l-49.69 8.37-102.93-3.89s-22.18 16.65-24.21 20.2c0 0-25.1 16.48-24.97 18l1.69-.34 163.27 9.13 135.21-30.08M467.05 71.63l-34.19 7.02"/><path class="st1" d="M212.8 84.06s-49.02 11.45-51.21 14.54l98.37 2.37 50.87-7.61M161.59 98.59l-3.38 3.04M140.59 147.69l-30.04-.76v-5.83s-.19-1.27-1.52-1.27M148.32 148.62l125.88 6.04 135-31.77"/><path class="st1" d="m398.21 136.28-125.24 30.26v-11.88M408.18 134.25l8.62-2.53M272.97 166.54l-99.72-5.75M161.76 160.79H150.1M123.06 159.27s-7.94-12.17-12.51-12.34"/><path class="st1" d="M274.2 154.66s.46-5.37-.21-6.04-12.85-43.1-12.85-43.1c-1.14-.53-1.18-4.56-1.18-4.56M251.25 165.94l.93 3.46s24.17.68 31.01-1.27l1.32-4.39"/><path class="st1" d="M283.2 168.14s1.42 4.06 0 4.56c-11.39 4.08-31.94.85-31.94.85s-.68-3.55.93-4.14M250.62 175.32l.49 33.09M252.77 177.99l.64 30.42M256.07 177.99l.76 31.05M259.96 177.99l.67 31.05M264.18 178.37v42.08c7.35 2.03 18.76-2.66 20.33-3.04 1.57-.38-.69-42.08-.69-42.08M268.92 177.99l.61 39.08M273.65 177.99v37.56M277.87 177.99v36.88M280.58 177.18v36.68"/><path class="st1" d="M258.1 214.54c.59-1.27 1.1-5.32 3.3-2.45 2.2 2.87 3.72.59 2.2 3.46M261.82 220.96c1.01-1.44 3.13-1.61 1.35-2.96M258.77 218.93c-.51-1.35-1.35-2.11 0-2.62M259.96 222.31c-1.77 1.01-2.7 2.11-3.13 0M262.84 222.31c-.77.68 2.3 2.79-1.68 3.72-3.98.93-3.98 2.2-5.08 0M253.09 226.79c-.4-1.18-3.19-2.45-1.42-4.48s.66-2.2.42-2.83M250.32 216.31c-.17-.17-1.52-2.44-.85-3s.77-.81 1.61-1.82c.84-1.01.84-1.86 2.95-1.35M258.77 210.39c-1.77.51-2.54-1.35-2.7 1.18-.17 2.54-.42 4.31-1.69 4.73M255.14 219.86c1.18.85 3.88.76 4.52.34"/><path class="st1" d="M261.15 216.65c-.26-.76-.75-1.61 0-1.77M259.96 241.75c-.08-.76-7.16-8.87 1.19-5.07M264.21 241.75c2.01 1.01 2.06 2.79 3.68-1.27"/><path class="st1" d="M266.05 233.38c.17-.76 4.79-2.53 8.31 2.29s5.63 6.59 6.22 10.14c.59 3.55-3.13 2.54-7.61 7.86l-4.48 5.32"/><path class="st1" d="M267.88 257.59s-3.27-.25-1.84-2.03c1.43-1.77 2.24-1.9 3.49-2.41 1.24-.51 1.37-1.39 1.62-2.03.25-.63-1.62-1.39-1.62-1.39s-.91-1.39 1.12-1.77 3.42-1.14 1.77-1.65-2.74.95-2.89-.6-1.11-3.58-1.65-2.19M262.84 249.23c-.55-3.17.64-3.17 2.85-4.44M261.15 251.13s2.57.63 3.05 2.28"/><path class="st1" d="M258.41 234.39c-.31-.13-3.18-1.89-3.27 1.27-.08 3.16.17 4.31-1.73 6.08-1.9 1.77-3.52 1.71-1.32 3.96s4.11 1.49 3.98 3.52c-.13 2.03-.17 1.77 2.7 2.41 2.87.63 2.21 2.41 4.06 4.82 1.85 2.41 3.76 2.54 3.76 2.54M246.94 206.76s-4.18-4.06-4.18-7.23c0-3.17 1.14-10.65 1.14-11.66s0-6.59-1.14-8.24M241.24 179.63s-.25 14.7-1.65 16.8M221.72 196.77c0-.65-2.28.11-1.9-3.25.38-3.36 4.18-3.11 4.44-2.47M224.25 195.52c1.14 1.1 2.66.23 2.66-1.81M216.9 191.87c0-1.96-3.17-3.8.63-3.83"/><path class="st1" d="M223.11 186.48c-.76-.38-1.01-2.28-2.15-1.9-1.14.38-1.65.79-2.28-.05-.63-.84.54-2.08-2.08 0s-1.47.81-3.12-.2-1.65-3.77-2.54-.94c-.89 2.84-1.14 2.58-1.65 4.1-.51 1.52-2.41 1.9 0 4.37s1.52 3.27 2.54 5.66c1.01 2.39 1.39 2.51 2.54 4.42M219.77 206.76c3.85-1.77 3.21-.13 6.51 0s5.83 1.03 4.94-.82c-.89-1.84-1.65-2.1-1.14-4s1.39-1.35.51-4.42c-.89-3.06-1.14-4.33-1.14-5.66s-.38-2.38-1.77-1.92-3.8.08-3.42-.81"/><path class="st1" d="M221.59 201.94c-1.9-2.66-4.53-4.99-4.99-6.42M225.59 201.94c2.34-1.39 2.85-1.73 2.97-3.21M215 193.71c-1.9-2.67-4.31-3.18-3.17-4.57M315.39 19.66c.34 1.52 4.39 3.04 5.75 1.86 1.35-1.18 1.86-3.89-1.69-3.89M312.01 16.96c-1.18-1.01-4.06-3.89 0-3.21M309.14 19.79s4.9 5.11 6.93 5.11M321.48 27.94c.68 1.01 3.04 2.2 4.56 0M326.04 23.04c0-2.54-.51.08-2.28-3.25M318.78 27.27c-4.06.34-7.57-1.52-8.86-2.37M296.97 18.31c1.35 3.21 4.23.85 3.89 5.58M296.97 34.7c-1.86.85-.51 1.52-.85 3.72-.34 2.2-4.06 2.03-4.06 0M292.07 31.66c-.51-1.69-3.04-1.69-3.55-1.69-.51 0-.68 1.81.85-.79 1.52-2.59 2.54-3.78 1.52-5.3M288.16 18.31c-.99.34-4.54-2.96-4.37 1.48s2.87 7.35-.85 6.32M295.45 23.04c-2.03 2.7-3.21 1.4-3.38-1.16M300.01 28.56c.34.73-1.69 3.44-3.72 3.94M292.58 15.3c-2.03.14-4.42-3.75-4.42-3.75M289.03 15.3c-2.37.47-4.39-1.66-4.39-1.66s-1.52.07-3.04 0M279.06 16.96c.34 1.18 3.89 3.21 3.89 4.14M313.54 10.03c3.55-1.18 5.41 0 6.08-1.18s3.3-4.06 5.28-2.37M324.9 12.73c-.21 2.03-1.23 4.56 1.14 5.58 2.37 1.01-1.52 3.55 2.03 4.73M335 26.1c2.87-.53 1.01-1.29 3.04 1.2s1.86-1.82 3.89 0c2.03 1.82-1.35 1.76.85 3.23M346.83 28.56c2.03-3.49 3.38-1.8 0-3.66s-6.25-.68-7.94-1.69M335 18.31c-1.01-2.7-3.55-3.14-4.56-3.01M330.44 19.03c6.08 1.48 5.92 3.34 5.92 4.01M329.59 5.96c3.38 1.03 3.21 2.13 5.41 1.11s1.61-2.57 2.62.4M341.85 12.73c.08 2.11-3.21.76-1.61 3.55M353.51 21.04c3.72 1.58 5.24-1.29 6.85.91M360.35 25.57c.25 1.7 2.87 2.77-.34 3M355.87 37.83c1.27 1.86 0 1.94 2.87 2.37M356.46 44.25c1.69.76 1.61 2.2 3.89.93"/><path class="st1" d="M358.41 42.65c-3.89-1.1-4.9.93-5.58-2.45-.68-3.38 1.27-6.42 1.27-6.42M350.72 31.75c-2.28.51-2.62-.25-3.89 2.03M343.89 36.06c-.94 1.44-3.45 2.28 0 3.3M347.68 41.72c-.17 2.11-5.75-.42-.85 3.63M355.03 51.01c1.27 1.61 1.1 3.46 2.7 1.61M361.96 47.89c-.42-1.27-.34-3.13 0-3.63M360.81 41.3c-1.3-1.35-1.47-2.37-1.47-3.08M357.73 34.87c-.85 0-.51-.17-1.27-1.69"/><path class="st1" d="M362.89 52.96c.25 1.61 1.16 2.87-2.08 2.7-3.24-.17-.03.76-.45 2.28-.42 1.52-.42 2.54-2.62 1.18-2.2-1.35 4.06 4.99-1.35.17s-1.22 2.03-3.69-.93c-2.48-2.96-6.03-2.45-3.41-3.97s-.93-1.61-2.45-3.38M360.01 49.92c-1.61-1.18-3.63-4.14-2.7-1.35M350.3 46.62c-.25-1.18-1.86-3.13.42-1.65M350.72 41.72c-1.01-2.03-2.92-2.7-1.21-4.01"/><path class="st1" d="M352.69 49.92c-1.29 1.69-.45 2.11-1.97 0M339.8 61.25s-1.56-7.87 1.02-4.7M343.89 62.89c-2 2.66-5.47 5.96-6.27 4.18-.8-1.77-.21-4.06-1.27-4.94M335 58.07c-.34-1.27 1.31-3.93 3.34-3.93M343.89 55.8c1.55 1.01 3.24 2.15 3.79 3.29M344.82 66.69c-.52 1.77.07 2.41-2.7 3.04M336.65 52.21c.93-1.87 5.82-.29 7.24 0M333.39 52.21c-.63-1.36-2.79-3.2 0-3.55M329.72 56.93c-1.01-2.03-2.15-2.76-1.27-3.53M328.07 51.31c1.39-2.11 3.85 1 2.37-2.65M326.93 59.08c-1.14 1.9-1.4 2.03 1.2 4.44M332 65.93c.38 2.54-1.4 3.17 1.39 4.69M339.33 70.62c2.05 1.9 1 2.54 2.79 1.9M334.15 64.85c-1.65-2.85-5.24-3.36-2.37-4.24"/><path class="st1" d="M336.65 59.97c.93 2.15.89 3.42 2.24 3.55M332.43 56.93c-.43-1.27-.43-2.28.96-2.28s2.53-2.22 2.28-2.44M328.07 65.55c-.63 1.33 0 2.35 1.14 2.66M335.71 71.44c1.23 1.39-.54 2.47 1.49 3.23s2.22.51 2.54 1.08M349.87 63.52c2.54 2.03 3.11 3.11 4.31 5.13s3.12 2.35 2.89 3.42M351.58 71.13c2.54 1.9 2.54 1.96 3.04 4.25.51 2.28.57 3.93 1.96 4.44M358.11 77.34c2.28 1.58 2.98.7 2.54 2.79M359.82 82.98c1.01-.19 2.41-.76 3.42-.89 1.01-.13.44-1.65 0-2.6M350.19 69.73c-.89-1.96-.89-4.18-1.9-3.55-1.01.63-1.14 1.46-1.84 2.73M343.03 76.26c-1.39 2.79-2.2 4.88-2.91 4.31M338.53 84.88c1.27-.76.59-2.47 2.2.32M343.89 88.3c1.93.13 2.5-1.39 3.01.32.51 1.71 1.58 2.03 2.6 2.35 1.01.32.89 1.06.7 1.54-.19.49 0-1.26 1.39-2.35M355.45 89.13c2.09.89.7 2.28 2.35 2.03 1.65-.25 3.23-.95 2.98-3.04s-2.66-2.41 1.71-2.92c4.37-.51 3.17-.06 3.17 1.14M367.37 89.44c1.58 1.77 7.48 5.32 6.59 6.65-.89 1.33-2.41 3.8-3.93 2.54M368.95 101.49c-1.33 2.79-1.41 4.06-3.14 1.39M361.82 101.23c-1.61-.06-1.42.96-2.37 1.68-.95.73-5.64-.73-3.99-3.93M359.06 95.46c1.01-1.52 4.88-3.39 5.01-1.25.13 2.14-.2 2.73 1.74 2.94M355.1 96.86c-.35-.63-2.57-.76-3.52-1.08M350.89 97.87c.32 1.71 1.33 2.66.7 5.23-.63 2.57 1.77 3.9.82 4.79M324.9 92.51c1.39 4.23 10.61 18.17 11.45 21.72.84 3.55 8.23 13.18 8.47 14.96M327.12 109.41c.45 1.77.7 6.59.7 10.9s2.62 6.63 3.97 7.5M316.92 91.19c.38 7.07-1.65 6.31 0 12.52s1.9 8.62 1.9 8.62M312.61 88.09c0 4.08-2.15 8.84-.76 10.9 1.39 2.06 1.9 1.42 2.15 3.9s1.73.57 2.26 3.74M320.72 96.86c-.76 3.8-.25 5.2 1.27 6.97 1.52 1.77 4.31 2.79 4.12 4.06M323.24 108.39c-1 5.32.65 2.03.77 3.93M324.01 115.37c.38 1.39.89 3.3.89 4.69 0 1.39.02 2.24 1.21 2.83M324.9 98.98c1.27 2.44-.13 2.58 1.2 5.36 1.33 2.78 4.84 1.51 4.61 3.54M339.73 115.37c1.65.76 7.03-.63 6.05 1.01M346.45 117.52c.89-.51 1.9.4 2.54 1.09M348.32 123.61c.67-.38 1.17-1.06 2.57-.72M351.58 128.55c.7-.38.98-1.91 2.5 0M351.58 115.37c-.44-.25-6.28-5.96-8.11-6.46s-7.76-5.47-7.76-5.47M329.48 88.09c1.88 3.95-1.41 5.22 3.91 3.83M320.37 87.8c.48-2.98 4.28.31.48-2.98M307.79 84.06c.76-1.27 2.28 0 0-2.03s-3.04-.38-3.8-2.22c-.76-1.84 1.01.06-.76-1.84-1.77-1.9-1.38 2.15-2.34-.63s-1.82-1.9-1.96-3.17-2.72-1.77-2.63-3.04c.08-1.27-2.62 1.52-2.54-1.39.08-2.92-4.35-2.16-2.32-4.88s.27-1.33-1.32-4.88M296.97 61.13c1.31 2.52 2.33 1.24 2.58 3.72.25 2.47-.26-.88 2.28 2.95s4.82 3.55 4.56 4.96c-.25 1.41 4.06 1.66 4.44 5.09.38 3.42 3.74 2.66 3.52 4.31-.22 1.65 3.45.38 3.2 1.9M374.05 88.09c4.47 4.33 7.9 1.55 6.37 5.16-1.52 3.61 0 4.12 1.77 6.4 1.77 2.28 2.15 3.8 5.7 6.08M379.66 100.28c1.9 2.03.89 4.82.76 7.61s.34 4.31.55 6.59"/><path class="st1" d="M382.83 112.96c0-1.65-2.03-1.9-4.94-4.56s-3.84-6.91-3.84-6.91 1.05.19 2.06-3.11M375.99 92.46c-4.06-4.73-5.32-4.73-3.68-6.76s3.3-4.72 0-7.24M369.77 78.73c-1.9-.25-3.8-1.58-2.41-3.26 1.39-1.68 5.19-1.11 4.24 0s-5.53-.04-2.29 1.1M372.94 74.93c-.51-2.92-2.15-4.2-3.99-3.24M377.13 76.57c-.25-2.28 1.31-4.88 1.31-4.88s2.49-2.46 3.63-1.96c1.14.51-.63-.25-.51 2.28s2.16.95.89 3.45-2.54 2.76-.26 4.02c2.28 1.27 2.54 1.52 2.66 2.92M381.94 82.98c-1.14 2.73-.25 6.09-2.28 3.33s-1.45-4.15-2.56-3.33"/><path class="st1" d="M380.32 81.9c-.91-2.54-2.72-3.05-1.88-5.33M374.97 64.85c.89.19 3.68.25 4.69-2.12M374.97 62.13c1.9 0 3.78 1.05 4.3-.99s.52-2.05.52-2.05M377.1 56.93c-.35 1.27 1.68 2.92-1.11 3.04M373.8 59.08c-1.61-2.28.79-3.66 1.17-3.92M370.71 61.13c-.55-.15-2.24.11 0 2.39M374.97 67.57c-.38 1.53-2.12 2.48-3.21.23-1.1-2.25-2.44-2.87-2.44-2.87M365.81 63.52c.29-.13-.22-1.52 2.32-3.55s.49-.5 1.2-2.53-.22-1.91.12-3.3M368.13 54.57c-.38.9-1.65.65-1.46 2.36M373.51 46.62c2.47 1.25 2.41 2.15 1.84 4.39s1.9 2.46 2.6 3.55M382.96 58.07c0 2.22-.38 2.37-1.46 3.18M388.92 56.93c-1.71 1.77-3.11 3.2-.57 5.47 2.54 2.26 6.59 5.5 6.97 6.07"/><path class="st1" d="M392.72 63.83c-.13-.75 1.52.21 0-3.09s.38-1.72-1.27-4.67-.25-3.31-1.52-5.06-2.47.32-3.99-1.1M383.53 47.4c-.25-2.83-.76-4.29-2.03-2.7M376.73 43.54c1.53-.23 3.81-.11 2.17-1.5-1.65-1.39-3.42.25-2.92-1.46M373.83 39.35c-2.15-.68-2.09 2.68-2.79-.68M368.44 37.83c.19-2.2-.55-3.02-1.79-3.34-1.25-.32-.61 1.71-1.25-.32M356.46 29.8c.19-2.79-1.35-1.98 1.27-3.11M361.22 24.54c1.39-1.2 1.63-2.6.38-2.6M351.52 17.63c-3.04 0-.13 1.77-2.15 2.15M344.87 16.28c-1.71.91-.89 1.61-2.54 1.35M334.35 12.12c.38-2.09.63-.82 2.85-1.14M326.8 14.51c.32 1.92-.51 1.54 2.79 2.87M330.1 24.23c2.28.19 3.21.13 3.51 1.08M325.54 25.57c-1.46-2.17-3.42-1.32-4.06-.67M318.12 15.94c-.95-1.29-2.22-4.2-3.11-1.86M298.17 26.1c-1.41 2.37-3.82 5.6-4.07 2.46M291.06 19.79c.76-1.39.63-2.91-.32-2.34M274.45 26.57c-1.01.7-.25.25-.51 2.41s-4.5 1.61-2.22 3.53M276.29 33.92c2.03 2.09-.13 2.47-1.2 2.35M272.49 38.61c-1.9-.51-3.04 1.1-2.28-1.26M267.99 33.92c1.46-2.98 1.65-4.36 0-3.39M273.44 24.54c.57-2.34 2.41-2.41 3.23-2.22M273.44 18.31c0 .85.82 3.4-1.71 2.79M272.11 19.03c-.76-1.39-1.2-2.85.95-2.85M280.35 15.3c.19-.46-2.35 1 1.77.87M292.07 10.03c1.58-1.39-.38-.95 2.41 0M296.14 6.23c2.65.25.59 2.03 2.79 2.03s2.58-2.02 3.22-1.64M301.89 9.58c-.82 1.27-.76 2.75.44 3.15M303.16 15.21c-2.22 2.42-2.1 3.37-3.11 1.41M298.93 16.45c-1.22-2.36-.63-2.15-2.79-1.94M304.75 8.57c-.38.19.39-2.22 2.25 0s1.25 1.94 2.92 2.59M309.37 8.25c-.25-1.84-1.32-3.17-2.37-2.79M304.65 4.89c.86-3.23 2.38-3.11 2.63-1.9M308.19 21.42c-1.22-1.5-.68-2.62 0-3.11M307.29 16.45c-1.52-1.47-.76-1.82.54-2.06M314.35 17.89c.48-.57 1.7-.25 1.72 0M260.8 50.17c-.25-.17-8.87-7.01-7.86-3.55M256.24 50.17c-.76-.25-.59-1.1-1.94-.42M249.73 50.93c-.51-.85-.51-1.69.51-2.2M257.93 54.56c.42 0-.34 2.03 1.86 0M264.35 50.17c0-3.21.76-3.38-1.44-3.63s-2.62-.59-4.99-1.61M253.37 43.92c-1.35-.17-2.7.17-3.55 0M251.08 41.38c3.21-1.01.08-1.65 3.21-1.37M256.83 38.02c3.21 1.25 2.11 2.26 3.72 1.92M264.48 41.72c-.55 1.1-3.25.77-1.56 2.25M251.08 58.96c3.63.68 4.99-.93 4.65 1.01M255.27 65.13c5.28 1.69 3.17-.17 6.72 1.44M267.31 63.77c.17-2.96 1.86-2.96 0-5.49-1.86-2.54-2.11-2.31-3.89-3.27M251.59 55.83c-1.52-1.69-3.04-2.2-.51-2.87M253.79 55.01c2.7 1.07 1.44-2.23 4.14-2.06M243.39 29.19c-1.18.11-8.11 4.46-9.3 4.74-1.18.27 4.06 2.87 0 3.43s-5.92-3.82-5.92 1.33 2.87 7-3.55 10.81c-6.42 3.81 1.52 3.97-5.75 6.34M213.48 59.46c4.39 4.99 4.23.25 6.59 4.06 2.37 3.8 2.37 3.38-3.89 4.69-6.25 1.31-6.59 3-5.58 5.7 1.01 2.7-4.56 6.76 1.01 4.9M217.2 79.29c4.39.37 5.07.2 7.1-1.82s5.92-1.23 4.23.99c-1.69 2.22-11.83 1.88 1.86 1.88s9.8 1.73 14.87.02M255.27 79.29c3.17-1.15 1.82-4.53 5.54-4.19 3.72.34 3.06-3.13 5-3.08 1.93.04 6.89-1.31 5.26 2.92M271.23 79.29c2.25-2.5 5.15-2.67 5.9-5.54s1.28-2.47 2.62-1.15M282.94 69.38c.85-1.55-.17 2.91 2.37 3.22 2.54.31-1.18-1.89 3.72 1.32s6.25 5.78 4.73 2.38M278.04 59.08c-.68 3.85-.97 9.89-5.56 7.8"/><path class="st1" d="M276.11 55.23c3.29 2.29 4.13-2.1 4.89 1.7.76 3.8-4.82 6.7 1.94 6.27M286.83 59.39c0-1.54-1.49-6.44-5.9-6.44M276.11 52.21c-.09-1.78-3.7-.58-3.84 0M248.21 29.19c3.68 2.9 3.93 2.08 6.08 1.35M256.83 26.57c1.65-3.36 4.87-4.67 6.49-2.68M265.8 21.19s2.44-.27 2.19 1.76M263.42 31.66c.63 1.69-5.07-1.23-2.22 1.69M294.1 44.25c5.2.25 1.26-.01 5.95.18 4.7.2 7.39 1.08 8.14 3.11M303.86 48.66c-3.04-3.26-7.69-3.1-8.41-2.04M299.55 49.83c3.67 1.77 2.66 5.26 6.08 2.37M433.41 202.96s17.87 1.27 21.04-.63c3.17-1.9-6.46-3.17-10.52-2.79-4.06.38-15.08-.26-10.52 3.42zM432.32 202.58v21.93M455.08 201.42v20.81M451.54 209.04s-5.32 2.79-5.15.34.42-2.87-.68-3.38M434.46 209.3c.42-.17 4.82-.34 6.76-.59s1.1-.42.93-2.2c-.17-1.77.33-2.45.33-2.45"/><path class="st1" d="M443.08 202.2s-.49-.58 0-1.61M442.87 222.23s-2.36 3.17-1.47 5.7M443.7 223.87s3.27 2.15 3.27 4.06M445.7 229.07c-.51-1.27-1.98-4.18-2-2.03M446.97 230.59c.38 1.14 0 2.54 2.15 4.69 2.15 2.15 4.55 2.54 5.95 3.68 1.4 1.14 1.65 2.66 3.93 1.39M442.48 230.59c-.71.63-1.73.76-4.01 1.9s-.12 2.79-3.04.63c-2.92-2.15-1.01-.51-1.9.38-.89.89-2.41 1.9-2.41-.38M428.46 232.55c-.13.83-3.04 2.85-1.65 5.26 1.39 2.41.64 5.32.64 5.32M439.11 243.14c0-2.15-7.99-3.8-7.99-3.8s-4.31-4.31-.51 3.8 2.41 5.32 6.97 3.3M444.7 250.62s-.27-.76 2.27-2.54c2.54-1.77.51-2.66 2.54-4.06s2.28-.25 3.49 1.14c1.2 1.39 3.11 2.79 2.73 3.42M452.99 250.62c-2.35-1.77-3.75 0-6.02 0h-2.27M455.77 272.93c1.98.51 2.61 1.77 3.25-1.14M459.01 268.49c-1.14-3.3-4.19-1.9-3.93-1.14M457.04 270.14c-2.84.25-4.62-.13-4.62-1.65M450.23 266.97c-.98 1.52-1.81 4.52 0 5.74M452.99 264.44c-.19-.89 2.45-2.41 4.05-1.14M460.79 268.49c0 2.15 1.9 4.06 0 5.96M454.73 275.72c-3.32-.89-4.5.47-4.5-1.27M446.97 267.45c1.14-2.5-.76-4.61 1.65-4.63M453.69 260c2.92.89 4.18 1.82 5.32 2.81M463.7 265.7c-.13 1.65-1.77 1.97 0 3.65M463.7 274.45c-1.39.76-4.39 3.93-6.31 3.93M451.54 277.37c-2.66-1.65-4.69-1.11-4.56-3.72M445.34 270.21c-.77-1.21-3.89-1.22-1.64-3.81M448.85 261.41c3.45-.52 3.45-.9 3.57-1.79M462.89 262.81c1.58 1.37 3.48 1.12 3.1 2.89M465.1 270.77c1.27 1.27 2.66.92 1.65 2.87M427.45 256.7c-.38.76-6.59-.48-2.41 4.7M428.46 261.41c2.03 3.66 5.7 4.55 2.15 5.57"/><path class="st1" d="M425.53 265.7c1.92-5.07-1.88-6.58 1.93-6.65"/><path class="st1" d="M434.08 261.41c.97 2.27 1.94 4.27 0 6.12-1.94 1.85-5.74 1.85-7.14 3.25-1.39 1.39-3.93-.89-4.18-2.28-.25-1.39-1.01-6.11-1.01-6.11s-2.92 3.35-3.42-.97c-.51-4.32 0-5.21 0-5.21s.25-3.3 2.66-2.79M422.25 251.38c.51 0 3.18 1.59 4.19-1.55M432.1 251.78c.29.99 2.62.61 3.1 2.26M439.11 259.05c-1.14.44-3.25-1.84-3.91-2.35M431.13 253.36c-.51.31-3.67 1.57-3.67 2.46M432.1 257.91c-.22 1.71-3.05 0-3.05 0"/><path class="st1" d="M439.11 255.82s1.88 2.4 2.08 3.29c.2.89-4.04 3.27-4.04 3.27l-3.5-4.09M422.25 247.01c-.63-1.08-3.93-5.83-2.54-9.16M421.75 237.85c0-.54 1.68-.57 1.85 4.58.17 5.15 4.86 1.98 4.86 1.98M432.32 217.03s-16.15-2.03-14.76 1.65c0 0 10.83 2.03 14.54 0M419.38 224.51c.85.13 8.2.89 11.75-.63M415.54 224.34s-1.52.15-1.52 1.93-5.45-1.38-6.08 1.66c-.63 3.04-4.69-2.28-4.69 2.15s-2.66-1.52-1.77 3.68M401.28 237.61c-3.11.84-3.49-.86-4.51 3.22-1.01 4.08-6.08-1.37-4.56 3.07 1.52 4.44 3.04.13.89 4.69-2.15 4.56 2.03 3.44-.38 4.76-2.41 1.32-4.56.31-5.96 3.35-1.39 3.04-1.01 1.79-4.94 3.81-3.93 2.02-5.83 4.18-5.58 5.19"/><path class="st1" d="M392.21 247.96c-.51-.38-6.97 2.41-8.37 0-1.39-2.41-3.68-2.31-2.03-5.53 1.65-3.22 6.34-6.79 7.99-4.82s3.04 2.81 3.93 3.22M380.17 271.21c1.01-.05 3.1-5.76 7.32-2.72M379.28 271.21s7.86 2.94 10.9 1.51M393.73 272.16c.38 1.02-.13 4.19-3.55 4.26M413.13 289.54c-.51 2.03-2.41 7.61-5.2 3.93"/><path class="st1" d="M411.61 294.69c1.77-.34 6.85-5.03 4.44-7.31-2.41-2.28-6.72-6.76-10.01-7.88s-5.45-.02-6.59 0-.17.46 0 1.54c.06.38 1.01 7.48 4.82 7.73 3.8.25 5.83-2.28 7.35-1.14M444.12 280.79c-1.83 1.27-4.62 1.9-1.83 3.93 2.79 2.03 3.07-.51 3.05 2.92-.01 3.42-.02 4.69 1.63 5.7 1.65 1.01 4.32.51 4.57 2.66M449.25 296.89c-.5.89-2.43 2.54 1.38 3.8M450.23 291.06c-.6-3.04-.09-2.21-1.61-4.21s.96-1.62.23-3.77c-.74-2.15-2.42-.68-2.53-3.57-.11-2.89 2.64-2.94 0-4M441.2 271.21c-.95-3.22-1.71-5.77-2.09-3.61M441.2 275.08c-.06 1.65-.57 3.36-.1 5.32M454.73 297.52c.35 1.27.86 2.54-1.04 2.54s-2.03-.13-2.15-1.27M457.04 301.32c-.56 2.15-1.73.51-1.97 4.31s.24 2.41.7 3.8M449.25 301.32c-.25 1.77-4.1 1.9-.4 4.06 3.7 2.15 4.19 1.65 4.14 3.17-.05 1.52-.94.38-1.45 2.15M450.64 314c.27 2.28 4.58 1.52 1.79 3.55s-3.48 2.15-2.95 3.68M454.73 314c-.66.63.71.38 1.04 3.61s.55 2.85-.7 4.63-.9-.25.7 3.17-.25 1.39-1.04 3.8M449.48 323.38c.28 1.52 3.58.25 2.06 2.92-1.52 2.66-3.48-.13-3.26 2.92.22 3.04.76 4.18-.02 6.85-.78 2.66.24 1.65-.78 2.66M453.3 330.23c.64 3.04-4.2 4.69-2.67 7.86s1.39 3.3-1.33 5.58c-2.72 2.28-3.22 5.58-4.24 4.82M447.25 341.25c-1.29 2.66-1.04-1.01-2.18 3.17M390.18 321.61l-15.46 19.9s-6.85-11.28-2.54-15.08c4.31-3.8 14.12-13.94 16.57-14.2M373.7 321.61s-1.01-14.45 1.27-19.01M393.84 323.38c-.15 3.3-15.07 9.89-16.08 17.87-1.01 7.99 6.07 10.77 6.07 10.77s.52-11.41.9-15.21c.38-3.8 9.11-2.54 9.11-2.54s-3.66 9.13-6.35 15.46c-2.7 6.34 9.03 9.89 9.03 9.89-.25-1.27 7.35-8.11 12.68-9.89 5.32-1.77-1.41-22.88-1.41-22.88s-2.64-9.82 5.34-2.22c7.99 7.61 4.97 19.77 4.97 19.77s9.78-9.38 8.55-11.15c-1.23-1.77-14.67-18-14.41-19.27M460.55 321.61s5.31 3.17 3.16 3.93-3.68 1.39-3.68.63-1.14 1.77 0 2.15 2.04.51 1.84 1.9c-.19 1.39-1.97 2.54-2.35 1.27s0 2.54 0 2.54 4.44-.25 4.18 1.01c-.25 1.27-1.44 2.66-2.49 1.77s.72 3.55 1.99 4.44c1.27.89 2.92.89 3.93 1.58 1.01.7-.63 2.09 1.14 2.35"/><path class="st1" d="M466.49 344.93s-6.85-.89-6.59-3.04c.25-2.15-2.87-1.28-2.51-2.48.36-1.2-1.3-3.1-.03-3.35s-.96-2.15-.96-2.15-2.11-2.03 0-3.68 1.22-7.23 1.73-11.79c.51-4.56 2.83-4.06 1.23-5.7M464.46 278.38s-2.21-.54-1.17.62c1.04 1.16 1.04 3.57 1.8 1.79.76-1.77-.55 1.01-1.29 1.9-.74.89-3.33.76-.51 1.65 2.82.89.24.45.51 2.51.27 2.06-.03.66 1.52 2.06 1.54 1.39-.87 3.04-.87 4.56s.38.51 2.03 1.77 1.52 4.31 1.77.76"/><path class="st1" d="M468.27 289.54c-.63-1.52-2.15-.69 0-2.69s2.66-.56 2.15-3.56c-.51-3-2.15-7.78-2.15-7.78M468.27 282.52l-2.17 2.2M468.27 293.08c1.52-.63 2.77.25 2.34 1.14M469.48 300.06c.44.76 1.83 1.27 1.83 1.27s1.39 2.54 1.01 2.92M470.6 297.66c.07-.4.33-1.16.33-1.16s1.14-5.2 1.01-5.45M471.95 306.01s-2.19 3.85-2.47 1.06c-.28-2.79.56-2.83.56-2.83M470.6 302.15c-.48.11-4.34 2.3-3.42-.82M469.48 287.96c.48-.07 1.85 1.37 1.12 2.38M466.1 279.18c.23-.25.36-.25 0-2.2-.36-1.94.56-.68-.53-2.54M476.72 259.11c-.34 1.31-2.54 3.96-.34 6.02 2.2 2.05-.31 3.36-.31 3.36s-5.86-4.35-3.66-8.87M471.06 258.67s-8.96 1.59-9.04-3.57-.99-3.8-1.46-5.58c-.48-1.77-.48-3.8 1.89-4.99M464.46 246.48c3.3 1.18 4.69-1.35 4.42 2.12s-.61 4.25 2.18 4.32M474.6 252.06c1.11-3.97 1.27-2.83-.5-5.05"/><path class="st1" d="M463.3 241.49c.92-1.52.09-3.55 3.8-1.94 3.71 1.61 2.69 2.06 5.99 1.28s1.52-.69 3.3 1.93 1.35 6.25 2.11 7.86 3.46 3.8.93 4.82M473.17 256.7c-.59-1.61-1.18-1.61-2.87-.89M465.14 253.36c.25-2.48 1.78-1.5-.04-3.13M495.39 269c.59-4.85-13.18-12.3-13.52-12.3M479.17 264.44s-2.37 9.46 15.55 7.04M493.11 261.41c.42.03 4.39 1.81 5.15.54M496.32 258.9c1.86-.93 2.03 2.88 3.89-1.01M503.08 252.91c0-.43-1.1 1.26-2.87 2.44M497.76 253.36c1.77-1.89 2.2-.62 2.45-2.4M500.21 247.01c-.76-.02-.76 1.84-1.52-.53s-.08-2.87-.93-3.09-1.1.63-2.07.38c-.97-.25-3.05-2.62-.28-3.55M492.01 235.07s-.12 1.18 2.01 2.7M490.58 233.89c-1.18 1.77-4.56 2.62-4.99 3.04s-2.79.77-3.72 2.03c-.93 1.26-1.52 3.29-1.94 3.38-.42.08-2.57.93-.86 3.63M482.3 245.04c.08 1.77 3.95 5.58 4.6 5.92M490.15 253.36c2.45-.2 4.26-.79 5.26.39M491.34 257.3c-1.61-1.94 1.54-2.62-2.69-2.62s-4.06-.34-4.15-.93M492.01 249.53c.93-2.63 2.94-.5 5.11 0M489.06 246.48c-.76-3.72-3.04-4.62 0-5.65M490.92 244.54c1.86-1.44 1.77-1.86 1.1-3.3"/><path class="st1" d="M483.65 241.24c.34 1.35 1.1 5.11 2.79 6.44M494.03 257.3c1.87-.34 3.65-1.09 4.24-1.94M533.17 239.93s3.55 10.94 6.08 2.96 7.48-2.05 7.1 1.07-.76 12.5-2.03 12.75c-1.27.25-7.1 3.93-7.48 5.2-.38 1.27-6.85-5.62-8.24-9.85-1.39-4.23-7.98-16.86 4.57-12.13zM551.17 259.68s-1.01 7.29-8.11 4.13"/><path class="st1" d="M548.76 250.96s7.23-1.18 8.49 6.34c1.27 7.52 7.61 12.21 3.42 16.65-4.18 4.44-7.99 6.97-8.24 9.89-.25 2.92-2.03 3.42 0 5.32M548.76 286.87c-.51-.63-7.35-1.9-5.7-4.82s-.51-4.56-2.66-7.61c-2.15-3.04-2.15-10.79 0-12.05M550.41 245.97c.76-2.96 2.03-5.62.76-7.52M552.31 236.42c.38-1.01 2.66-1.65.89-4.06M554.46 229.45c.89-1.01 2.68-1.14.96-4.44M553.86 220.32c-2.32-3.68-.79-1.65-1.56-6.46M555.42 213.86c2.59.38 1.07-.13 2.97-.89 1.9-.76 1.42-.38 3.69.51s4.42 1.34 3.66-.92M566.51 211.58c3.93.76 5.58 2.66 5.07-.63-.51-3.3-3.8-4.82-4.31-9.25M564.48 208.41c-3.68-1.77-7.97 5.2-9.06 1.01-1.09-4.18-3.46-1.39-.12-6.34s-.71-3.93-.84-6.21M553.09 184.07c1.88-2.54 1.38-3.04 5.94-4.82 4.56-1.77 5.95-7.23 7.48-3.04M569.55 184.07c0 2.79-.38 1.01 2.92 6.08s4.18 5.58 3.04 8.11M564.48 187.87c.25 2.41-4.69 6.85 0 9 4.69 2.15 7.15 1.9 7.19 3.3M557.89 188.89c.76-2.41 3.04-3.3 5.83-4.82M524.68 162.01s-5.45 33.46-9.63 39.68M520.75 196.87s.38-7.86 3.17-4.06c2.79 3.8 5.83 9.51 7.1 8.87 1.27-.63 4.44-4.69 2.66-9.38-1.77-4.69-6.46-1.01-7.86-3.42M525.31 176.59c1.65 3.93 1.9 4.54 3.17 2.78 1.27-1.76-.25-2.65 3.93-3.28s6.34-2.37 6.46 2.11c.13 4.48.76 7.02 5.07 7.52M550.03 182.42c0-2.92.89-6.59-1.39-9.51s-2.92-3.3 0-3.93c2.92-.63 4.72-2.28 4.45-3.8M543.94 157.7s-8.58-.76-9.74 4.31M530.63 161.38s-3.28-.89-3.16 2.79M534.2 170.25c.49-.63.61-3.68 4.16-1.27M543.44 173.8c0 1.39-2.15 3.68 0 6.21 2.15 2.54 5.07 4.82 5.07 5.7s-3.01.76-3.01.76M545.08 114.23c2.41 1.14 8.62 9.13 3.17 21.17 0 0-5.08 1.9 1.64 7.1 6.72 5.2-21.42-3.93-19.9-8.87s-9.63-2.92-7.48-9.38"/><path class="st1" d="M542.04 115.49s4.82 6.72-4.82 4.69-11.66-7.23-9.63-2.03c2.03 5.2 7.35 9.38 4.82 10.27M535.06 93.06s-4.3 3.55.64 5.2c4.94 1.65 6.85 1.52 7.54 0M540.27 96.25c-.89-2.31.25-6.74 2.41-4.59M530.7 92.7s.76-7.48 5.45-6.34c4.69 1.14 8.24.89 8.24.89M546.55 91.82c-.25 2.79 1.14 8.24-1.52 9.38M292.24 260.85l140.03-53.75M451.54 199.66l14.95-6M288.01 269.63l129.55-50.95-.08 22.81M455.17 203.04l15.17-7.9M240.35 462.69l.26 17.49-19.27-4.18M266.34 459.9l.76 46.65s-2.79 2.66-3.55 2.41M283.45 441.01s.51-5.7 11.92-5.32c11.41.38 13.31 2.92 13.44 4.69.13 1.77-5.58 4.94-10.52 4.94-4.95 0-14.21.13-14.84-4.31z"/><path class="st1" d="m283.45 441.01.89 41.45s10.77 8.49 23.7.76l.76-42.85M328.58 399.94l3.72 79.78 4.05 2.03 65.24-11.16-3.21-73.69z"/><path class="st1" d="M363.56 411.1s-5.07 5.92.85 9.46 6.76-6.42 6.76-6.42-3.89-4.9-7.61-3.04zM328.75 390.65l-.17 7.1 69.29-3.89-.67-9.97z"/><path class="st1" d="M319.26 438.92s.89-10.77.76-13.18-1.33-13.82-.44-15.34c.89-1.52 2.03-14.07.82-17.68-1.2-3.61-1.96-21.34-1.96-21.34l10.31 19.27M319.26 370.09l64.2-3.67 13.74 17.47M403.24 441.9l1.01 51.97s17.75 11.28 25.73-1.77l.25-48.3-.38-37.27M499.7 426.69c1.39.25.25 3.8.25 3.8-3.42 4.31-12.42 2.92-12.42 2.92-8.62 1.14-12.3-4.44-12.3-4.44s-2.15-3.68 5.96-4.56 10.39-.51 10.39-.51"/><path class="st1" d="M505.28 419.85s-7.1 9.38-15.85 11.03c0 0 1.01-10.01 7.61-11.66 6.59-1.65 8.62-.89 8.62-.89l-.38 1.52z"/><path class="st1" d="m474.1 428.85.76 48.8s14.83 13.56 26.11-.13l-.13-49.56M594.01 405.77s0 67.44-.76 68.96-92.28 2.79-92.28 2.79M430.75 432.14l42.84-.51M491.59 390.31v33.59M401.85 363.94l-13.7 8.62M402.61 373.58l-9.13 5.83M403.11 406.03l-.76-44.62M383.46 366.42l13.06-6.79M318.69 404.51l-66.42 40.56M259.87 454.7l59.07-38.28M319.96 427.83l-13.44 9.63M282.69 451.41l-15.97 11.66M205.79 445.24c.25 0 12.68.76 14.2-3.38s-6.34-6.17-15.21-5.15M243.52 458.38l-2.28-114.34M259.62 337.07l2.53 99.55M288.35 309.52l.34 40.56M288.86 363.77l.68 22.82M317.59 303.44l.85 38.87M318.61 352.62c0 .68.17 14.54.17 14.54M326.21 265.24l1.18 41.07M306.61 268.45l.84 19.44M334.66 258.65l.34 21.29M358.15 248.68l1.19 29.07M343.45 256.79l.34 13.86M343.79 276.06v4.05M372.18 244.79l.51 24M175.62 346.7c0-.51 7.61-10.14 8.45-.68.85 9.46-5.75 9.13-3.21 14.87 2.54 5.75 7.77 17.58 4.73 20.28s-.68 5.24-.17 6.42c.51 1.18-21.46-14.37-19.94-20.96 1.52-6.59 3.72-21.97 5.92-22.48 2.19-.49 4.22 2.55 4.22 2.55zM162.77 317.97l.63-.11c2.74-.42 13.39-1.64 13.39 4.84 0 7.44-1.18 14.2-5.58 18.93-4.39 4.73-11.15 6.93-11.83 8.62-.68 1.69 0 5.75-1.01 6.42s-1.86 1.69-1.86-3.21-1.52-9.63-2.54-13.18c-1.01-3.55-.34-11.66 1.18-13.52 1.52-1.86-.17-6.76 2.54-9.46s5.08.67 5.08.67zM134.38 362.08c.85 0 6.76-4.73 12-2.2s7.77 2.7 7.77 6.76 3.55 5.75.85 8.62-3.72 3.21-4.56 5.58c-.85 2.37 1.52 4.23-2.7 4.73-4.23.51-5.58 0-7.77-1.86-2.2-1.86-2.54.85-6.08.51-3.55-.34-5.75-1.86-7.1-3.38-1.35-1.52 1.69-4.23-2.54-5.07-4.23-.85-2.7-2.54-3.21-6.08-.51-3.55-1.52-2.7 3.04-5.24 4.56-2.54 5.41-3.89 8.62-2.87 3.2 1.01 1.68.5 1.68.5z"/><path class="st1" d="M134.55 370.2s3.21-5.24 6.76-5.41M150.77 372.73c-.51 0-.34 3.55-4.73 6.25M152.3 434.59c2.2 1.35 6.08-.68 6.42 1.35s-1.86 7.44 1.18 4.73 4.39-4.73 7.77-4.9c3.38-.17 6.93-1.01 7.27-3.04s4.73-3.04 4.56-5.07c-.17-2.03-2.54-2.54-.68-4.56 1.86-2.03 3.04-.85 2.37-3.21-.68-2.37-2.2-1.52-2.54-4.56s1.69-4.39-1.18-4.73c-2.87-.34-2.54 1.18-5.75 1.52-3.21.34-3.89-2.03-6.42-1.86-2.54.17-5.75 3.04-7.61 4.73-1.86 1.69-1.18 2.87-2.7 5.58s-1.69 4.9-2.87 7.27c-1.18 2.37-1.69 4.39-1.35 5.07s1.53 1.68 1.53 1.68zM150.94 460.28s-3.72 6.42-8.96 6.42-9.97 0-8.11-7.77c1.86-7.77-2.2-5.58-3.04-9.3-.85-3.72-1.01-10.14 1.52-12.51 2.54-2.37.85-2.37 6.25-2.54s7.27-3.21 7.1-.85c-.17 2.37-3.55 3.72 1.86 4.56 5.41.85 5.41-.51 6.42 2.2s3.38 2.37 5.24 3.89c1.86 1.52 5.41 3.21 5.07 5.41-.34 2.2-4.23 4.56-8.79 6.59-4.56 2.04-4.56 3.9-4.56 3.9z"/><path class="st1" d="M135.56 454.54c2.2 0 3.55-2.87 4.39.17.85 3.04-4.73 3.72.68 4.06 5.41.34 7.27.34 7.27.34M152.13 454.54c.51 0 5.92-1.52 5.92-2.03M150.1 496.96s0 5.41 4.06 5.58c4.06.17 8.28 1.69 10.82 0 2.54-1.69 1.35-2.37 2.54-5.07 1.18-2.7 2.87-3.72 2.87-3.72s-.68.68-.85-2.54c-.17-3.21-2.54-3.04-2.2-6.76.34-3.72 2.54-7.61.34-8.79-2.2-1.18-3.72 2.87-7.77 1.35-4.06-1.52-2.54-4.23-5.58-1.86s-5.75 2.54-7.61 3.72c-1.86 1.18-2.87.68-1.52 3.89s1.69 3.89 1.69 6.76c0 2.87 2.54 3.04 3.04 5.24.51 2.2.17 2.2.17 2.2z"/><path class="st1" d="M170.04 481.75c2.03-1.18 2.87-4.9 6.25-1.35 3.38 3.55 6.93 1.35 5.07 6.59-1.86 5.24-1.01 12-6.25 11.32-5.24-.68-6.08-1.18-6.08-2.2M198.94 500.34c.27-.1.53-.18.78-.24 3.67-.98 5.38 1.03 9.02-2.29 3.89-3.55 7.44-3.72 11.32-4.56 3.89-.85 7.27-3.72 6.76 1.52-.51 5.24-.68 7.1 1.18 10.14 1.86 3.04 3.38 3.72 1.01 4.9-2.37 1.18-3.38-2.37-5.41 3.72-2.03 6.08-2.7 10.99-6.25 8.62-3.55-2.37-3.55 1.35-7.44-3.21-3.89-4.56-2.87-5.41-5.92-7.27-3.04-1.86-4.23-2.7-5.24-6.25s.7-5.25.7-5.25M188.3 516.23s-9.97-1.01-7.94 6.59 6.59 8.11 6.59 8.11 5.58-3.72 5.92-5.24 3.71-7.94-4.57-9.46z"/><path class="st1" d="M240.86 499.49s18.08-2.54 20.11 4.06 3.72 10.99 3.72 12.85c0 1.86-1.69 13.18-2.2 15.38-.51 2.2-14.2 8.79-16.06 4.06-1.86-4.73-3.89-10.82-6.42-10.82s-2.87-.17-3.89 4.23-3.72 7.94-5.41 2.37-2.54-7.94-4.23-12.17c-1.69-4.23-2.54-4.56-1.35-6.59"/><path class="st1" d="M227.17 498.48c-.34.51 6.59 10.65 8.62 6.59s2.7-9.63 3.21-9.63 8.79.34 10.31-2.03c1.52-2.37 2.54-6.08.68-7.94s-6.08-5.24-6.76-5.75c-.68-.51-6.76 3.72-8.96 4.73-2.2 1.01-7.1-1.69-7.1-1.69M246.1 507.1c.68.17 10.14-.68 12.51 1.01M467.89 410.59s1.14-6.34 9-7.48 11.79-13.56 12.42-14.32c.63-.76 2.41-.63 9.76-1.77 7.35-1.14 8.11-3.3 8.11-3.3"/><path class="st1" d="M466.75 410.21c.25-.63 3.17-6.08.38-6.21s-6.46 2.03-5.2-1.01c1.27-3.04 1.9-.89 1.9-4.18s1.27-3.93 2.54-3.17c1.27.76 0-2.54 1.65-3.42 1.65-.89 2.79-.89 3.68-.51.89.38-2.28-3.55-.25-3.42 2.03.13 2.54-2.28 2.66-3.17.13-.89.76-4.82 2.28-3.93s-1.14-2.03 2.41-1.52c3.55.51 2.28-6.85 3.04-7.61s4.18-5.07 6.59-4.06 3.68.76 4.69 1.01c1.01.25 4.31-1.14 4.44-2.66"/><path class="st1" d="M491.59 366.99s-2.03-13.06 4.56-15.34 6.97-4.82 9.51-3.68c2.54 1.14 4.31 1.27 4.94 3.8.63 2.54 1.01 7.86-2.66 9.76-3.68 1.9-6.72 1.9-8.24 3.04-1.52 1.14-2.54 1.14-1.9 4.44M495.52 371.3s2.92 3.93 4.94 6.46 2.79 5.96.38 5.32c-2.41-.63-2.54-5.58-3.93-3.68-1.39 1.9-.38 6.72-4.06 4.94s-4.94-.38-5.58-1.39c-.63-1.01.63.51-1.77 1.52-2.41 1.01-.89 5.45-2.41 2.92-1.52-2.54-1.9 3.3-2.92 1.77-1.01-1.52-1.65 7.48-2.79 3.8-1.14-3.68-1.65 4.94-3.17 2.92-1.52-2.03-.76 5.2-2.28 2.28s-1.39 6.59-3.68 3.55c-2.28-3.04-2.54 2.03-2.92 1.65M459.01 381.69c-.51-.13-1.9-3.42-3.68-7.48-1.77-4.06-3.8-4.56-.51-5.96 3.3-1.39 3.17-2.41 6.08-3.42 2.92-1.01 1.39-2.15 5.83.13s6.85-.51 5.83 2.28c-1.01 2.79-.63 4.94-1.9 10.27s0 7.86-3.04 7.23c-3.03-.64-8.61-3.05-8.61-3.05zM470.55 359.76s4.82-11.79 11.15-12.04c6.34-.25 7.61.25 11.41-1.52s4.94-2.92 5.58-2.54c.63.38.38 2.92-.25 3.93-.63 1.01-5.58 3.17-7.23 5.45-1.65 2.28-6.46.38-10.14 2.28s-3.93 4.18-6.85 5.7-4.18 4.06-3.67-1.26zM492.99 334.15c-.37-1.22.63-8.49-1.14-9.89-1.77-1.39-2.15-2.66-2.54-.38-.38 2.28.63 1.9-.38 3.17s-3.3 1.14-3.8 1.14c-.51 0-3.3-.63-3.42 3.3-.13 3.93 2.54 7.35 5.83 8.37 3.3 1.01-2.79 1.65 1.01 2.28 3.8.63 6.08-2.53 4.44-7.99zM528.73 309.31s.09.12.3.32c.98.91 4.44 3.39 12.37 2.34 8.21-1.08 12.37-1.24 12.95-2.99.1-.3.09-.65-.02-1.06-.76-2.79-11.15-2.66-11.15-2.66s-14.51-1.15-14.36 4.18M554.59 332.25l-.23-23.27"/><path class="st1" d="m529.04 309.63-.05 28.96s4.56.38 6.97 3.04 7.23 2.03 7.48 5.07M527.72 339.23s-3.68 5.2-2.41 7.86-1.52 6.59 2.54 8.24 4.44 1.27 5.32 2.15 5.45.38 5.45.38-8.49-5.32-5.45-5.7 5.2-.13 5.2-.13l-2.41-9.13s4.69 3.3 5.7 4.69M541.41 351.9s2.92.38 4.94 1.14c2.03.76.89 2.66 2.03 4.18 1.14 1.52 4.44.25 3.55 2.41-.89 2.15-2.92 1.77-3.93 3.04s-4.82 5.58-.38 7.1c4.44 1.52 5.83 1.39 4.18 3.8s-5.07 2.79-1.65 4.82c3.42 2.03 2.03 4.69 5.07 2.03 3.04-2.66 2.15-1.01 5.32.13 3.17 1.14 1.65 1.52 3.93.89 2.28-.63 3.93-2.03 4.94-3.17s1.65-2.54 3.3-3.68.25-4.18 2.41-5.32c2.15-1.14 4.82.51 3.3-2.41s-1.39-4.69-2.41-5.96-2.28-1.77-4.44-1.9c-2.15-.13-2.66-.25-2.41-1.52s4.06-2.03.25-2.41c-3.8-.38-.25-4.06-3.55-2.79-3.3 1.27-3.68-6.46-4.56-3.42-.89 3.04-.76 7.23-3.8 4.06-3.04-3.17-2.66-7.1-4.06-3.55-1.39 3.55.76 5.32-2.66 4.06-3.42-1.27-6.08-3.42-6.08-3.42l-3.29 1.89z"/><path class="st1" d="M549.39 367.75c3.3 1.52 4.44-2.15 4.56 1.39M536.85 392.46s-5.96-1.39-3.42 1.65 5.2 6.08 4.31 2.15"/><path class="st1" d="M533.93 400.58c0-.38 1.01-6.85-1.14-3.3s-1.65 4.69-3.17 5.45c-1.52.76-1.65.13-1.27 2.15s.89 1.65-.63 2.03-1.52.38-1.52 2.54c0 2.15-1.9-2.66-1.9 1.39s-2.66 1.9-2.28 4.82c.38 2.92-2.66-1.65-2.41 4.69s-2.41 3.42-.25 6.46c2.15 3.04 0 1.9 2.03 3.42s2.28.51 3.42-1.52c1.14-2.03 3.68 5.32 2.54-.38-1.14-5.7-.89-2.92 0-7.1s3.68.76 3.8-3.55c.13-4.31 1.65-3.42 1.65-5.32 0-1.9 2.66-.89 2.79-3.04s4.69.63 3.93-3.68 2.41-1.9 2.15-4.56c-.25-2.66-.63-.63-1.14-2.03-.51-1.39-2.41-4.06-.63-6.08s3.04-3.17 3.8-1.14 1.9 2.54.25 4.69M546.1 387.27c.63 1.9 2.15 6.21 2.92 3.17.76-3.04 1.39-3.42-.25-4.31s-2.79-.51-2.79-.51M543.31 386.89c-.38-1.14-.38-6.21 1.39-5.96s2.28 2.15 2.15 2.92M536.34 389.42s6.34 1.39 3.3-1.65-4.44-.89-3.04-3.04 2.28-1.14 2.66-2.92c.38-1.77 1.14-1.52.38-3.42-.76-1.9-1.27-2.15-1.65-1.01-.38 1.14-1.39 5.45-1.39 5.45M552.82 391.58c.14.52 13.06 12.8 20.28 13.18s5.83-.25 5.83-.25-11.79-10.9-12.55-15.08c-.76-4.19-15.46-5.08-13.56 2.15z"/><path class="st1" d="M548 401.21c0 .08-.04.42-.12.96-.44 3.11-2.13 12.69-4.83 14.63-3.17 2.28-3.93-4.69-3.17-9.38.76-4.69 6.08-11.79 6.85-11.79M548.89 412.75c-.13 2.92-.38-11.54-.38-11.54M552.94 402.86s-3.55 9.89-3.93 12.42M552.44 410.59s-.13 16.1 1.52 20.79M555.1 408.82s4.69 10.52 2.79 16.61-2.54 6.72-3.55 8.49M561.44 424.92c-.13.51 2.79 14.58 2.54 17.24-.25 2.66-1.77 3.04-1.77 3.04 0-.89-.38-2.03-1.39-6.59-1.01-4.56-1.27-15.08-1.27-15.08M563.72 423.39c.38.13 14.2 14.83 13.94 15.85M561.56 446.08c.89.13 3.8 17.49 7.35 21.55"/><path class="st1" d="M563.21 445.32c1.14.63 12.04 3.04 8.49 3.04s2.15 3.42-1.52 2.15c-3.68-1.27 4.56 2.66.38 2.03-4.18-.63 4.44 7.1-.25 4.18s5.7 5.96-.38 2.28 4.82 6.34-.89 2.28 4.69 5.7 0 2.92c-4.69-2.79-.89 2.15-.89 2.15M559.41 446.34c.13.38-11.03 13.31-8.62 11.41 2.41-1.9-3.3 4.56 1.27.89s-1.39 4.82 3.04 1.65c4.44-3.17-.13 4.94 2.54 2.79 2.66-2.15-.76 2.41 2.66 1.27 3.42-1.14 5.2 1.39 6.21 2.03 1.01.63-.25 2.41 1.39 2.15M553.07 438.23s-1.01 15.97-4.31 18.76M548.25 451.54c0-1.77-4.06-7.1-1.27-9.89 2.79-2.79 2.28-.76 3.42-2.92M556.62 437.21c.63 0 .38 11.54-3.3 15.08M547.62 434.17s-8.62 1.39-8.87 5.83-2.28 4.94-2.28 4.94-1.27-3.55-1.27-7.23-5.58-8.24 1.14-8.87c6.72-.63 5.45-3.42 7.99-3.17s5.7 2.28 5.96 2.66M572.72 439.37c-.13.63 4.82 9.13 4.82 9.13l-6.59-1.77M579.18 406.54c.38 0 12.3 12.68 13.56 14.32M582.73 405.27c3.04 1.14 5.32 2.15 3.3 2.15-2.03 0 4.94.51 1.77 2.15s.13 1.77-.13 2.54c-.25.76 2.66-.51 2.28 2.28-.38 2.79 2.03 2.28 2.03 3.8M587.42 398.68c.11.51 8.37 8.11 10.27 6.72 1.9-1.39 6.34.13 3.04-3.8-3.3-3.93-4.56-3.55-3.04-5.45 1.52-1.9 4.31.38 5.07-3.42.76-3.8-.25-4.18 1.39-5.96s1.39-3.68 1.01-6.08c-.38-2.41-2.66.76-4.56.76-1.9 0 .63-.89.25-4.18-.38-3.3 1.9-5.45-2.03-2.54-3.93 2.92-5.07 7.1-4.82 2.79s.38-5.83-2.15-3.42-2.03 8.37-3.3 3.17c-1.27-5.2 3.68-9.51-1.9-6.59s-5.96 2.41-7.48.13c-1.52-2.28 1.01-.63-2.15 1.27-3.17 1.9-3.55 4.06-2.15 6.34 1.39 2.28-2.28 3.17-3.68 2.92-1.39-.25-.38 2.54-2.28 2.66-1.9.13-.63-.13-2.92-.76-2.28-.63-.13 0 1.9 3.93s-.13 6.46 3.8 8.75c3.94 2.25 15.23.47 15.73 2.76zM600.61 371.17s-2.28 1.39-4.82-2.15c-2.54-3.55-4.56-6.72-6.72-5.32-2.15 1.39.63 4.18-3.93.63-4.56-3.55-4.94-3.8-6.59-2.66-1.65 1.14-2.54-.76-2.54-.76"/><path class="st1" d="M598.7 370.03s2.41-3.04-.89-6.08c-3.3-3.04-4.44-3.42-6.46-3.17-2.03.25-2.28 1.52-2.41-2.03-.13-3.55 1.39-4.06-.38-5.96-1.77-1.9 0-5.2-2.28-5.96s-5.32-.76-7.48-1.65c-2.15-.89-.25-2.41-3.55-2.28-3.3.13-3.3 1.77-5.32-.76-2.03-2.54-.51-3.55-3.42-5.07-2.92-1.52-2.79-3.55-7.73-2.03s-9.63 2.66-11.79 5.45c-2.15 2.79-3.8 1.52-1.65 4.82"/><path class="st1" d="M570.44 344.04c.89 1.14 6.21 5.32 3.42 10.77M583.75 348.23s2.28 7.1 1.14 11.28M555.35 338.72c.51 0 5.45 2.66 4.69 7.73M588.18 340.62c1.65.76 10.14 5.7 12.8.38s3.04-4.94 1.9-7.86-1.01-3.8-4.06-9.63-4.31-8.62-2.79-9.51 5.2-.63.63-2.66c-4.56-2.03-4.31-6.08-2.92-7.61s9.76 1.39 7.48-4.82 2.41-10.01-2.03-9.89c-4.44.13-6.34.13-8.37.13-2.03 0-2.41-1.52-2.41-3.8s-.63-1.39-5.32 2.41-4.44 2.66-7.73 0c-3.3-2.66-1.01-2.41-4.31 3.17s.25 8.24-3.42 9.63c-3.68 1.39-3.42 6.97-3.42 7.99 0 1.01 4.56-2.79 5.45-4.44M590.38 279.27c-1.18-1.01-6.08-10.65-9.13-12.17-3.04-1.52-8.79-10.82-12.34-10.31-3.55.51-5.92.51-8.62 1.01-2.7.51-3.04.68-3.04.68M546.1 304.11s8.45-1.52 8.96-7.44 2.37-7.94 3.55-6.42c1.18 1.52 1.18 4.73 2.37 7.1 1.18 2.37 2.03-1.52 2.03-4.23s-3.04-7.44.51-7.44 6.42 2.2 5.92 3.21c-.51 1.01-1.52 2.54-1.52 3.89M536.13 279.77s1.52 9.63 1.86 13.52 1.69 4.56 1.69 6.25c0 1.69-1.01 4.56-1.35 5.07M527.51 314.76s-8.45-15.21-9.46-16.23c-1.01-1.01-2.87-3.72-1.01.34 1.86 4.06 2.03 11.32 5.07 13.69 3.04 2.37 3.72 4.06 3.72 4.06s-7.94-1.35-8.62-2.87c-.68-1.52-5.75-11.32-6.59-14.03-.85-2.7-1.35-5.58-1.86-6.76-.51-1.18-2.37-4.06-2.54-1.52s-2.03 8.11 0 13.35 2.03 6.59 2.03 6.59-10.48-5.92-10.48-9.13c0-3.21.17-8.28.85-9.8M516.35 289.58c.85 0 5.24-.17 5.24 3.04s.85 3.38 5.75 4.06c4.9.68 6.42 2.2 6.42 2.2s-4.56-4.56-6.76-7.1M514.15 264.73c1.18 5.24-1.35 9.97 6.25 10.48s11.83 2.87 11.83 2.87 5.58-.85-1.35-7.61-6.42-10.82-8.28-12.51c-1.86-1.69-3.72-3.89-4.23-3.72M489.31 277.24c3.72 1.69 7.1 4.9 7.77 10.82M476.63 283.66c3.04 1.86 4.39.68 5.75 2.87s-1.86 4.56-1.86 4.56 2.03-1.69 3.38 2.03c1.35 3.72 2.54 4.39 1.18 6.25s-1.35-1.35-2.03 2.03-.51 2.03-3.38-3.89-7.27-.34-6.76-8.11M509.59 257.63c2.87 1.86 4.73 2.7 4.9-.34.17-3.04 3.89-6.42.34-4.9-3.55 1.52-1.69 4.9-4.06 1.52s-2.2-7.1-2.7-2.2c-.51 4.9-.34 5.92.34 6.08.67.18 1.18-.16 1.18-.16zM472.24 226.54s-1.18-5.92.68-5.75c1.86.17.85-3.55 3.21-2.7 2.37.85 1.01-4.56 4.39-2.87s2.7-1.86 5.24 0 3.72.34 4.39-1.35 8.62-3.21 8.62-3.21 2.03 3.89.34 4.9c0 0-3.04 2.37-3.21 3.04-.17.68 1.86 3.38 3.38 5.24 1.52 1.86 2.87 1.69 0 2.54-2.87.85-1.86-.34-4.06 2.2-2.2 2.54-3.72 4.73-5.41 2.37-1.69-2.37-.85-4.56-3.21-3.04-2.37 1.52-4.9 3.38-4.9 3.38M543.06 218.76c.85 1.01 3.21-1.35.68 3.38-2.54 4.73-2.87 2.2-2.7 5.58.17 3.38.34 2.2 1.35 5.58s3.89 7.61 4.9 4.06"/><path class="st1" d="M545.76 229.07c0-2.2 1.01-7.44 2.7-3.89 1.69 3.55.34 5.58-.34 6.59-.68 1.01-.17 2.2.34 5.58s.85 3.89-.17 5.75M542.21 211.66c-1.52-.51-5.58-4.23-1.86-4.56s6.25-1.18 5.24 2.37c-1.01 3.55-1.52 6.59.85 7.61 2.37 1.01 3.72.68 3.72.68M484.58 187.83c-.68 1.69.17 7.77-4.73 8.45-4.9.68-7.44.68-8.79-.51"/><path class="st1" d="M473.42 191.04c-.17-2.37 1.18-4.73 5.07-6.93 3.89-2.2 4.73-7.1 7.61-2.03 2.87 5.07 1.52 11.66.34 14.2-1.18 2.54-.34 4.56-4.56 4.73M470.38 190.37s.68-10.65 2.03-8.28 2.7 3.38 2.7 3.38"/><path class="st1" d="M468.86 173.8c.51-.17 0 .68 4.06 1.69 4.06 1.01 7.94 1.18 8.62-.68.68-1.86-4.06.34 3.04 0s13.69.17 8.11-3.38-11.83-2.54-10.65-5.75c1.18-3.21 1.69-2.03 4.39-3.89 2.7-1.86 5.07-5.58 5.41-7.77.34-2.2 2.2-2.87-.51-2.87-2.7 0 2.7-1.69-.68-1.69-3.38 0 1.01-4.39-2.03-3.04-3.04 1.35.68-3.72-1.52-3.04s-1.86-3.38-3.72-1.18-2.03-5.07-2.87-2.2c-.85 2.87-1.35-2.03-2.03 1.01s.34 3.04-5.58 6.42-4.39.85-6.25 4.73c-1.86 3.89-4.06 11.15-1.35 12.51 2.7 1.35 4.9 1.52 5.24 2.37.34.85-3.38 4.06-4.39 1.52-1.01-2.54-2.2-2.87-2.2-2.87-.68-2.7-1.35 1.52-6.93 2.37-5.58.85-5.41 1.86-3.72 2.54 1.69.68 4.73 1.52 4.39 3.72-.34 2.2-2.2 4.06-1.18 6.93 1.01 2.87 1.86 1.86 6.42 1.86s5.24-3.04 5.58-5.41M459.73 157.07c-1.17.67-6.42 5.24-8.28 1.01-1.86-4.23-1.18-7.61-1.35-9.46-.17-1.86.51-3.38 6.08-3.21 5.58.17 3.38-4.23 4.06 2.87s.68 8.11-.51 8.79z"/><path class="st1" d="M448.58 148.11c-.17-1.52 3.04-4.56-1.52-5.41-4.56-.85-9.8 1.86-5.92-2.54 3.89-4.39 3.89-7.27 7.94-6.59s4.23-.85 4.23-.85c3.72-1.18 2.7-5.92 7.1-2.37 4.39 3.55 7.1 2.7 5.58 7.1-1.52 4.39-3.38 3.55-4.56 6.93-1.18 3.38-.51 3.89-.51 3.89"/><path class="st1" d="M470.04 125.8c.17-3.38-1.18-6.59 4.56-5.24 5.75 1.35 7.1 4.73 7.94 5.58.85.85 1.01 1.18-1.69 5.58s-6.93 4.39-10.31 3.38-7.44-1.18-5.07-5.07c2.38-3.89 4.57-4.23 4.57-4.23zM491 110.59c1.18.34 7.1 5.75 7.94 7.77s2.87-6.93 4.56-8.11c1.69-1.18-3.55-3.89-.17-8.96s6.93-6.93 5.58-9.97-8.45-7.1-9.97-6.93-2.37-.85-2.7 2.37"/><path class="st1" d="M490.32 86.42s-7.44 2.7-4.9 7.44c2.54 4.73 5.58 3.72 5.41 7.77-.17 4.06 6.59-1.52 4.56 3.89-2.03 5.41-1.01 5.75-6.42 5.41M480.18 108.06s6.42 5.41 1.35 6.93c-5.07 1.52-10.99 5.07-8.45 1.01s0-6.25-1.86-4.23c-1.86 2.03-4.39 4.73-4.39 4.73s1.52.68 2.54 2.37c1.01 1.69 1.18 2.37-4.56 5.07-5.75 2.7-6.59 6.08-8.79 1.86-2.2-4.23-6.59-15.55.68-11.83 7.27 3.72 8.45 9.3 6.59 2.03-1.86-7.27-4.56-9.13-2.37-10.14M479.34 107.38c0-.85-3.72-7.27-4.9-7.61s-3.72-5.07-6.25-2.2c-2.54 2.87-4.06 3.89-5.41 4.73"/><path class="st1" d="M466.83 92.85c-2.03-.51-2.2-4.39-6.76-4.39s-2.7 1.01-5.92 3.38-6.08-.17-6.25 3.89c-.17 4.06 2.2 4.73.85 7.77s-4.23 3.89-2.03 6.42c2.2 2.54 4.23 1.69 6.93 1.18s4.06-.85 4.39.17M468.01 84.39c-.17-1.01-7.27-9.63 1.86-8.45 9.13 1.18 5.75-1.35 7.94-5.07 2.2-3.72 2.03-6.59 11.49-6.25 9.46.34 9.8 1.52 14.03 3.72 4.23 2.2 1.69-6.42 8.45-3.72 6.76 2.7-2.87-2.7 7.44 2.87 10.31 5.58 6.76-9.3 12.68-3.38 5.92 5.92 4.56 3.55 10.99 3.55s14.2-3.04 9.97 2.87c-4.23 5.92 14.54-5.58 14.37 3.38s-6.25 10.82-2.03 12.34c4.23 1.52 12.51-4.23 10.14 1.86-2.37 6.08.68 1.01 6.76 5.07 6.08 4.06 11.15 6.42 10.99 11.49-.17 5.07 2.03 5.75-.17 10.14-2.2 4.39-1.35-11.15 3.72-1.52s5.58 13.18 4.9 15.89c-.68 2.7-3.38 3.21-3.38 8.28 0 5.07 4.23 4.73-1.86 12.34-6.08 7.61-9.46 8.62-11.83 12.85s3.72 13.35-5.24 12.85c-8.96-.51-8.28-.17-8.96-.51"/><path class="st1" d="M558.1 116c3.38-.17 12.68-4.39 10.65 2.87-2.03 7.27-1.01 12.85-6.42 9.8-5.41-3.04-7.27-2.2-5.75-7.27M576.69 130.37c4.9-5.75 10.82-8.62 7.27-13.86-3.55-5.24-4.73-8.28-7.94-2.7-3.21 5.58-4.06 8.45-4.23 11.49M554.89 150.31c3.38 2.54.68-2.87 3.21-1.35 2.54 1.52-5.75-5.24.51-3.38 6.25 1.86 4.23-5.41 7.61-.51s2.87 3.04 5.58 6.08c2.7 3.04 6.93 3.72 2.7 6.25-4.23 2.54-8.62-3.72-11.15-2.03s-1.69 3.55-4.23 5.24"/><path class="st1" d="M564.01 160.28c0 .51 2.7 16.56 7.1 10.99s7.77-4.73 5.92-7.61c-1.86-2.87 3.04 4.39 3.89 1.18.85-3.21 4.73-3.89.68-8.79s.34-5.92-3.55-7.94-6.93 1.01-6.93 1.01M566.21 139.49c.68-4.39-1.69-6.25-.51-8.45 1.18-2.2 1.86-6.59 4.23-1.69s5.58 1.35 8.79 3.21c3.21 1.86 3.38 1.18 3.04 3.89s-1.18 4.9-2.54 8.11M589.87 134.76c3.21.17 1.52-4.9 4.73-3.89 3.21 1.01 1.18 4.9 1.52 7.94.34 3.04 4.56 2.7.51 5.41s-4.23 6.93-6.76 3.89"/><path class="st1" d="M588.52 150.99c.17-.68-3.72-8.28-1.69-13.69 2.03-5.41 4.39-7.94 2.87-11.15s-2.7-3.38-2.7-3.38M570.94 94.2c-1.18 1.52-7.44-1.35-1.35 6.42s5.07 7.27 3.04 7.94c-2.03.68-2.2 2.03.68 2.7M558.27 112.79c1.35-3.21 6.59-5.24.34-7.61s-3.72-.85-6.08 2.03c-2.37 2.87-6.59-2.2-5.41 3.55M559.45 93.69c-1.35-.68 1.18-4.56-3.89-4.39-5.07.17-7.94 1.86-5.24-2.7 2.7-4.56 6.76-4.56-1.01-4.56s-10.65 3.89-12.17-1.18c-1.52-5.07-1.86-5.75-.51-8.11M562.66 92.34c3.04-.34 5.07-1.69 5.24-3.04M510.77 71.21c.68 4.39 8.28 13.69-1.01 10.65s-10.82-4.39-14.37-4.9c-3.55-.51-4.06-3.89-7.61 1.18-3.55 5.07 2.54 8.62-3.21 10.31-5.75 1.69-7.27 1.69-7.27 1.69s2.03 4.73-.34 5.41-3.21 1.86-5.58-.17M522.61 94.2c-.17 1.01-7.61.17-7.27 9.8M519.23 79.49c0 2.7-4.39 14.7-5.75 9.3M523.62 83.72c1.01 5.07-1.18 5.75 2.54 8.79M516.86 130.03c1.35 2.03 12.68 13.01 11.83 22.82"/><path class="st1" d="M518.21 135.27c.68.85 2.7-.68 2.2 4.06s-1.69 7.27.51 4.9c2.2-2.37-1.01 2.7 1.18 4.23 2.2 1.52 0 6.42 2.7 4.9s-.34 1.69 2.2 2.2M524.97 135.77c1.86 2.54 3.04 3.38 2.37 4.56-.68 1.18 2.54.17 1.35 2.54s1.18 2.03 1.01 5.24c-.17 3.21 2.03 3.89.34 6.25M540.18 143.04c0 .51-.85 5.58 3.55 12M505.7 149.8c2.03-3.04 5.07-1.18 6.08-4.23s-2.87 0-3.38-3.55-2.7-5.07-2.03-6.42-1.69-.51-1.18-4.23c.51-3.72-.17-1.35 1.01-5.41 1.18-4.06 1.18-2.7 1.52-8.79M520.58 108.06c0 2.54-.68 8.11-.34 15.89M512.8 144.73c1.35-1.52 4.56 4.9 5.24 7.77.68 2.87.17 1.86-1.01 5.24s-1.52 3.38 3.38 2.03 3.72-.34 5.92.68M505.54 152.51c.17 5.41-2.03 4.39-1.52 9.3.51 4.9 1.86 4.56 2.2 8.96.34 4.39-.34 3.72.34 6.42M507.56 187.66c-1.52-1.52-3.21-8.79-8.62-6.25-5.41 2.54-9.8 1.86-2.03 7.27s9.8 3.04 9.8 5.24M499.11 193.24c-.85.17-8.45-.17-9.3 2.03"/><path class="st1" d="M518.21 178.03c-.51-.17-5.58 4.56-7.77.51-2.2-4.06-4.23-6.42-4.23-10.14M511.28 184.62c-1.18.17-5.24 9.63-2.7 13.01 2.54 3.38 2.54 1.69 2.54 5.07s1.86 4.56 2.7 3.04M483.9 82.2s3.55-5.24-4.39-4.39M503.85 134.42c0 1.18-1.01 8.62-3.89 12.85-2.87 4.23 4.73 2.54 4.73 2.54"/><path class="st1" d="M491.85 148.62c2.87.17 7.1 0 7.1 0"/><path class="st1" d="M495.23 115.15c.51 0-.34 33.97-.34 33.97M519.9 222.99c-3.38 2.03-16.23 7.27-16.56 9.97M505.54 233.3c1.35 0 1.69.68 3.89-.85 2.2-1.52 1.52 3.55 4.39.85s1.69 3.38 4.56-1.69c2.87-5.07 3.89-1.86 3.89.85s-1.69 4.06-5.24 5.24c-3.55 1.18-4.23-1.01-6.42 1.18-2.2 2.2-1.35 3.04 1.86 3.72 3.21.68-3.21 1.86-4.9 3.04-1.69 1.18-2.2 4.73-1.52 6.25"/><path class="st1" d="M507.73 244.28s-7.94-3.55-8.96-3.38M499.96 217.75c.51.34 6.08 7.77 7.1 3.89 1.01-3.89 1.18-1.18 3.21 0 2.03 1.18.85-1.69 2.54-4.06 1.69-2.37.85-5.24.34-6.76-.51-1.52-6.25 4.23-8.11 4.39-1.86.17-2.7-.68-4.39 0-1.71.68-.69 2.54-.69 2.54zM529.87 210.48c.17.51-3.38.17-2.54 8.62.85 8.45 3.21 12 3.04 13.35M537.65 240.9c-.17-.68 5.75-11.49 1.86-21.46M543.56 190.54c1.35 1.01 7.61 3.04 4.73 5.75s6.42-1.18 4.9 2.87M282.94 251.89l176.71-65.41M280.15 240.99l175.7-63.64M270.52 224.51s14.45 1.77 16.73-4.82l160.48-51.21M315.56 188.93s6.42 2.7 5.49 7.69-3.04 6.25-5.32 6c-2.28-.25-5.92-2.2-5.32-6.25s-.85-4.4 5.15-7.44zM319.7 190.03l12.6-3.47M337.54 184.96 383 171.01M389.68 169.07c.08-.42 34.48-11.49 34.48-11.49"/><path class="st1" d="M425.51 145.92s2.62-1.86 3.38-.59-.08-2.45 1.27 1.86c1.35 4.31 5.32 13.69 4.14 18.68s-6.42-.51-6.42-.51 2.87.59 2.54-2.7c-.34-3.3-1.44-5.49-2.37-6-.93-.51-.51 1.44-2.03 1.1-1.52-.34-3.55 1.27-3.38-2.7.17-3.97 1.01-6.42 1.52-8.11.5-1.71 1.35-1.03 1.35-1.03zM380.72 157.58c.25-.25-.59-4.31 1.52-3.13 2.11 1.18 3.63 3.55 4.06 5.15s3.21 4.23 3.04 11.83c-.17 7.61.51 9.55-1.27 10.14-1.77.59-4.82-.25-4.9-1.86s.93-1.86 1.94-1.1c1.01.76.17-3.89 0-4.99s-1.1-1.86-1.69-2.62-3.72 1.18-4.82-1.18c-1.1-2.37-1.44-7.94-.17-9.55s2.29-2.69 2.29-2.69zM329.34 168.31s3.04 1.1 2.7 3.3c-.34 2.2 3.13 3.97 3.21 6.25.08 2.28 3.04 7.69 2.96 11.49s1.18 8.79-1.61 8.62c-2.79-.17-6.08-.25-5.49-2.11.59-1.86 1.27-.76 2.03-1.69.76-.93 1.18-.76.51-2.87s-2.54-7.35-2.96-8.54c-.42-1.18-3.04 3.72-4.65 1.52-1.61-2.2-2.45-3.46-1.27-6.85 1.19-3.37 2.79-9.71 4.57-9.12zM187.79 172.79c-1.94-3.04-1.61-5.41-5.41-8.37-3.8-2.96-4.65-3.04-9.97-1.77s-4.23-.76-5.75 5.07c-1.52 5.83-4.99 4.65-5.32 8.11-.34 3.46-2.2 2.79 1.52 4.9 3.72 2.11 6.34.08 8.54.76 2.2.68-.42 2.96 3.38 2.45 3.8-.51 5.15.25 4.9-2.7s1.1-.17 2.2-3.13 4.06-2.11 4.56-3.3c.5-1.18 1.35-2.02 1.35-2.02zM159.48 166.62c-1.27-.17-2.2-2.37-5.66-2.62s-1.01.08-5.75 2.28c-4.73 2.2-4.73-3.72-5.83 2.62-1.1 6.34-4.73 8.37-1.1 8.87 3.63.51.08 4.73 3.89 2.96 3.8-1.77 6.25 2.54 9.8.08 3.55-2.45 3.8 1.86 4.48-1.77s2.87-9.55 1.44-10.39c-1.44-.85-1.27-2.03-1.27-2.03z"/><path class="st1" d="M117.06 162.99c.05 0 .23.02.5.05 1.5.14 5.79.47 6.93-1.31 1.35-2.11 2.54-2.87 4.23-3.8s1.27-3.89 5.49-.68c4.23 3.21 5.75 2.62 6.34 4.82.59 2.2 2.37 2.7 2.7 2.79.34.08-.51 2.28-4.99 6.42-4.48 4.14-6.68 3.13-8.28 6.34-1.61 3.21-3.97 5.24-8.03 3.3-4.06-1.94-5.32-4.31-8.62-3.13-3.3 1.18-5.41 2.54-6.25-.34-.85-2.87-1.1-4.99-.42-7.18.68-2.2 1.77-2.2 4.23-3.97 2.45-1.77 4.14-3.13 5.07-3.21.93-.1 1.1-.1 1.1-.1zM103.62 177.94c.76.51-.85-.68.93 3.8 1.77 4.48 8.11 3.38 2.11 4.56-6 1.18-6.42-2.45-8.2-.51-1.77 1.94.25 1.1-2.2 3.63-2.45 2.54-.59-.34-1.94 1.69s4.56 1.18-4.31-.08-10.14-.17-11.58-.08c-1.44.08-2.03-.17.34-2.87 2.37-2.7-1.01-.93 4.48-3.21s8.7-2.87 8.7-2.87-2.11-4.31 4.14-3.97c6.26.34 7.53-.09 7.53-.09zM103.96 173.21c0-.93-5.07-8.54-9.55-8.37-4.48.17-19.94-.25-19.94-.25s-9.04 14.45-7.44 17.58c1.61 3.13 1.86 5.15.68 5.32M66.35 187.58c-1.18-.08-4.73-.76-7.69 1.44s-4.56 1.35-3.21 7.18c1.35 5.83 1.52 8.96.85 11.49-.68 2.54 1.44 1.94 2.03 2.79.59.85 3.63-.34 1.61 2.45-2.03 2.79-3.97 2.54-3.89 4.82.08 2.28.17 2.7 2.2 4.06s1.69 1.44 2.79 3.3c1.1 1.86 3.3 1.27 5.58-2.7 2.28-3.97 3.04-6.68 5.07-9.13 2.03-2.45 1.35-7.61 3.21-8.87s-.51-2.87-2.03-5.15 1.61-1.77-1.35-4.39c-2.96-2.62-4.73-.93-4.65-4.56.07-3.66-.52-2.73-.52-2.73z"/><path class="st1" d="M74.63 209.8c-.32-2.6 5.83.59 5.41-1.69-.42-2.28-.76-3.3 1.94-2.37s6.08.93 8.2 2.28 6.85 1.01 6 3.89c-.85 2.87 1.94 2.37-.34 6-1.33 2.11-2.51 3-3.62 4.26-.8.91-1.56 2.02-2.3 3.94-1.77 4.56-3.46 7.27-4.9 6.17-1.44-1.1-3.97-1.1-6.51 0s-5.32 2.03-7.35 1.18c-2.03-.85-.85-1.69.25-2.11 1.1-.42-6.76-4.31-3.72-4.06s-1.86-3.46 1.01-4.73c2.87-1.27-1.01-2.96 2.28-5.49 3.32-2.53 3.82-5.92 3.65-7.27zM93.73 222.23c1.35 0 2.11-1.69 7.69.08s8.03.76 7.35 4.14-.34 4.48.76 3.72c1.1-.76 3.89-.42 1.35 3.21s-4.31 5.49-4.82 6.76c-.51 1.27-2.54 6.85-7.52 3.72-4.99-3.13-6.34-.68-7.77-5.75-1.44-5.07-2.28-5.49-.51-9.13 1.78-3.63 3.47-6.75 3.47-6.75zM132.27 215.3c-.68.42-6.51 2.37-9.38 4.06-2.87 1.69-7.01 6.17-5.49 8.54s4.14 1.44 2.2 4.56c-1.94 3.13-6.34 2.45-2.96 4.99s3.38 2.11 9.89-.25c6.51-2.37 9.21-3.63 13.61-2.2 4.39 1.44 5.66 5.15 5.66 7.35v5.49s7.61 1.44 9.13 3.72c1.52 2.28 1.86 3.38 1.86 3.8s-2.03 1.44-3.3 0-8.03-4.9-9.63-3.63c-1.61 1.27-1.1-3.97-.85-3.97"/><path class="st1" d="M140.63 248.08s-1.1-8.37-3.89-8.45c-2.79-.08-5.83 1.01-7.61 2.87-1.77 1.86-4.73 1.94-4.9 4.31-.17 2.37-2.79 3.63-1.1 7.01s1.1 2.37 4.48 5.92c3.38 3.55 3.46 6.68 5.32 5.92 1.86-.76 8.45 2.2 10.14-.59 1.69-2.79 3.72-8.03 5.32-8.96 1.61-.93 1.69-2.2 1.69-2.2"/><path class="st1" d="M141.23 255.77s-.25 4.65-3.3 5.49-6.59-.34-6.59-.34M134.89 205.66s-3.8-1.18-2.37 3.3c1.44 4.48 2.03 6.59 3.21 8.28 1.18 1.69 1.01 1.52 2.79 3.97 1.77 2.45 1.94 3.13 1.94 3.13s.42-4.48 1.77-6.08 10.56-8.03 12.68-8.96c2.11-.93 4.39-3.21 3.38-4.65s-3.55.51-4.9-1.35c-1.35-1.86 2.45-8.2 2.45-8.2s-2.03-2.79-4.06-2.28c-2.03.51-1.35 2.54-3.8 5.24s-5.24 3.46-8.03 3.46-4.47 3.97-5.06 4.14z"/><path class="st1" d="m136.92 199.66.34-.34c1.4-1.39 6.43-6.42 2.02-3.04-5.07 3.89.51-7.44-1.52-5.75s-5.92-3.55-5.92-1.01-2.7-4.73-2.87-1.18c-.17 3.55-5.75-3.04-4.56 1.35 1.18 4.39-6.59-4.06-5.07-.34s-1.69-1.86-2.2 1.86c-.51 3.72-2.54 4.23-4.73 3.38-2.2-.85-2.2-3.89-2.37.34-.17 4.23-3.72-1.86-3.21 1.69s-2.2 2.2-2.87 2.2-1.01-2.37.17 1.18-5.92 3.55-1.52 4.23c4.39.68.17 2.7 3.55 3.55 3.38.85-1.52 7.27 2.54 6.42 4.06-.85 1.69 2.87 6.76.85 5.07-2.03 3.89 3.89 6.08.34s5.92-1.69 7.61-3.38c1.69-1.69 0-5.41 1.86-7.1s5.91-5.25 5.91-5.25z"/><path class="st1" d="M92.63 205.24s1.86-2.03 3.89 1.01-1.35 5.41 2.37 6.76c3.72 1.35 4.06-3.38 5.24-3.72M100.92 219.44c3.89 1.69 6.42 4.23 10.65 1.86s.85-1.35 7.44-2.7 7.44-2.87 7.44-2.87M141.14 179.38c.34.85 3.21 9.97-.51 5.41-3.72-4.56 0 6.25-2.54 3.21s-6.08-3.72-8.45-2.37-5.58 3.55-5.24.68 3.55-3.55 3.55-3.55M158.72 195.61c1.01-.17 11.49 1.01 10.82 6.42s-5.41 4.56-5.92 4.39M163.79 209.97c2.87-.51 2.7-2.7 2.87-.51.17 2.2-1.52 3.21 1.86 2.7 3.38-.51 2.87-5.92 5.24.17s2.54 6.25 1.01 7.44c-1.52 1.18.17-.17 1.01 3.04.85 3.21-.68 6.25 4.23 4.56s8.96-4.9 8.28-2.7.34 5.41-3.55 5.41c-3.89 0-7.27.68-10.82 1.18-3.55.51-8.28-1.52-9.3.34M160.24 228.56c1.35-4.06 3.38-6.93 3.38-11.66M157.87 218.59c-1.35 0-2.54 1.18-2.54-1.52M149.76 215.21c-.51 0-4.56 1.18-3.38 7.94 1.18 6.76-2.7 8.96 2.03 10.65M151.96 243.44c2.03.51 4.56 3.04 4.73 3.55.17.51 6.93.68 3.38-3.38s-4.9-5.07-1.86-6.93M197.42 234.31s3.21-1.01 5.75-1.18c2.54-.17 5.58 1.69 5.92 7.1.34 5.41.51.68.51.68s1.35 0 4.56-.34c3.21-.34 1.52 2.7 2.37 5.24.85 2.54.85.51 2.2-.34 1.35-.85 3.89.68 4.23 3.04.34 2.37-1.18 4.06-2.87 6.25s-1.52 2.37-2.87 5.07-1.01 2.7-5.07 2.54c-4.06-.17-4.56 0-6.08.51-1.52.51-2.7.68-7.61-1.18-4.9-1.86-1.01-.17-3.04-1.18-2.03-1.01 0-3.04-2.7-5.24s-1.52-.68-.68-3.89c.85-3.21 0-1.52-1.69-4.06s-.85-.85.51-2.87c1.35-2.03 1.52-2.37.68-5.58-.85-3.21 2.03-4.23 2.03-4.23l3.85-.34z"/><path class="st1" d="M210.1 220.96s4.06-5.07 6.42-2.87c2.37 2.2 4.73 2.7 4.73 4.56s-1.18 3.04.85 2.03 2.03-4.56 3.21-1.18c1.18 3.38 6.08 6.25 2.54 8.45-3.55 2.2-2.2-5.41-4.23-.17-2.03 5.24 1.86 8.79-3.55 6.08-5.41-2.7-5.92 5.41-7.77-.34-1.86-5.75-7.44-.68-4.39-8.28s2.19-8.28 2.19-8.28zM197.59 202.54s.85 17.07-7.44 11.49c-8.28-5.58-10.31-1.69-8.45-6.76 1.86-5.07-1.18-6.93-2.54-9.13-1.35-2.2-1.01-1.18 2.87-5.07 3.89-3.89-.17-6.76 4.39-5.41 4.56 1.35 6.59-1.35 7.77.68 1.18 2.03.85 4.73 2.03 5.75 1.18 1.01 2.37 1.18 1.69 4.56s-.32 3.89-.32 3.89zM199.96 200.68c2.37 1.52 2.2 7.27 6.93 6.42 4.73-.85 8.45-3.04 5.41-6.42s-5.41-7.1-7.44-6.25c-2.03.85-3.89-.17-4.39-.34-.51-.17-1.52 1.18-1.35 1.69M240.35 216.56c-1.35 1.01-5.07-1.18-3.38 2.37 1.69 3.55 1.01 2.87 3.04 3.55s.34 4.56-1.69 5.24-5.92-.85-4.23 4.06c1.69 4.9 6.42 6.76 4.23 9.13s-7.94-1.35-6.76 2.37c1.18 3.72 8.45 7.1 7.94 8.96-.51 1.86-.17-1.01-4.39 6.59-4.23 7.61-5.92 7.77-6.42 7.77M206.72 264.39c0 1.35 4.56 4.39 9.3 6.76 4.73 2.37 5.24 2.37 5.41 4.9.17 2.54-.51 2.03-.85 7.1-.34 5.07-.68 10.14-2.2 13.52-1.52 3.38-2.37 3.72-3.04 5.24s-4.06 8.45-2.87 11.66c1.18 3.21 7.77 13.35 8.45 17.07"/><path class="st1" d="M236.46 349.58c-.17-1.52-4.56-1.69-.51-6.08 4.06-4.39.51-2.87 1.18-7.94.68-5.07.68-2.54.68-6.25s-3.72.34-7.44 1.35-6.93 2.7-3.55-2.7c3.38-5.41 6.76-7.61 5.58-12.68-1.18-5.07-1.86-2.03-1.35-4.56.51-2.54.34-6.93-5.92-2.03-6.25 4.9-5.24 7.94-7.94 5.07M237.31 351.27c.68-1.86 5.58-15.38 7.27-10.99 1.69 4.39-.51 7.77-.85 10.99s3.21-3.38 4.56-6.76 1.01 2.03 2.54 4.23c1.52 2.2 8.45.51 7.44 4.39-1.01 3.89-2.7-8.28-1.52-11.66M259.45 331.66c-2.2 1.18-3.38 1.52-2.2-2.37 1.18-3.89 3.38-8.62 1.35-10.48s-2.7.51-2.2-3.38c.51-3.89.17-5.41-2.54-9.3-2.7-3.89-3.38-5.92-.85-4.9 2.54 1.01 10.65 3.04 10.82 9.63.17 6.59 2.2 8.96 1.86 2.7M265.7 304.79c1.52 6.93 9.8 10.82 5.07 2.2-4.73-8.62-4.73-15.21-2.2-14.03M273.31 291.27c-.17.68-1.01 14.87 6.59 14.54 7.61-.34 16.56 6.59 10.99-.51-5.58-7.1-14.37-12.85-10.65-14.87 3.72-2.03 10.82 13.86 20.28 10.82 0 0 7.27 3.72 7.27 5.92 0 2.2.68-5.92-.34-8.45-1.01-2.54 4.39-5.58 2.7-9.13-1.69-3.55-5.58-3.38-8.11-6.25-2.54-2.87-4.73-6.08-8.28-8.11s-5.41-2.87-6.42-4.23c-1.01-1.35 1.01-2.87-2.54-1.69-3.55 1.18-4.73 2.2-5.75 1.18"/><path class="st1" d="M283.45 281.3c.68 1.18 5.92 5.58 7.27 5.58s6.76-1.52 8.11.17"/><path class="st1" d="M289.7 283.83c-.85-2.54-2.87-4.73-5.92-4.73M270.27 262.7c2.2 4.73 3.04 12.85 2.03 20.45-1.01 7.61-1.01 9.13-.68 11.32.34 2.2-2.7-1.69-8.28-2.37-5.58-.68-10.82-4.73-10.99-5.58-.17-.85-.68-4.23.17-7.44.85-3.21.68-6.25 4.39-5.24 3.72 1.01 4.39-2.87 5.41.68 1.01 3.55 3.55 6.42 4.23 8.11s-.51 3.21-1.52 3.04c-1.01-.17-.51 1.69.85 2.87s1.69 3.04 1.69 3.04"/><path class="st1" d="M263.17 266.76c.51 0 2.03 3.89 3.04 8.11 1.01 4.23 2.03 14.87 1.86 2.54-.17-12.34 0-10.14-.17-11.49M256.24 252.9c.17 2.37-2.54 13.52 0 15.21 2.54 1.69-5.58-3.04-7.77.17-.32.47-.8.86-1.37 1.15-3.32 1.67-9.98-.01-10.12-8.08-.17-9.46 6.59-9.3 6.59-9.3s1.18 4.9 1.69 2.54c.51-2.37 2.2-.51 4.39.68s.68 1.86 3.21-.68"/><path class="st1" d="M253.54 273.18s-4.9 0-4.56-3.72M235.96 283.83s-10.31 2.37-11.32 9.3M236.8 288.73c-.17.85 2.87 4.73 2.37 9.97M234.27 294.14c.51 2.37 4.06 4.23 2.87 9.13M232.58 298.87c.34 2.54 1.01 2.7.68 6.42"/><path class="st1" d="M231.39 288.56c-2.7 1.01-7.1 2.2-9.13 7.1M228.18 294.82c-.51.68-5.58 4.06-6.42 5.58M227.34 300.56c-.51.34-4.06-2.7-5.41 3.72M240.52 306.99c-.85 3.04-1.86 12.85-2.37 11.83-.51-1.01.17 6.08-.85 4.23-1.01-1.86-1.35 4.56-1.69 3.04s-2.2 3.38-3.55 1.69M244.75 307.83c0 3.21.68 6.59-.17 8.45-.85 1.86 4.23-2.03.85 2.37s3.55-.17.34 3.38-1.01 1.18-1.86 3.89c-.85 2.7 2.37-.85.17 3.38-2.2 4.23 1.35 5.58-.85 7.94M250.49 314.59c1.18-.51-3.21 12.51 0 12.68 3.21.17-3.04 9.97 1.18 8.45 4.23-1.52-.51 7.27 2.2 6.59M190.32 284.68c-.51 0-3.21-6.93-9.3-.51-6.08 6.42-6.76 2.7-3.89 10.31 2.87 7.61 6.59 8.45 9.97 13.69s1.52 6.42 4.23 8.11c2.7 1.69 8.45 6.59 8.62 7.77.17 1.18-.17-4.73 2.2-7.44 2.37-2.7 7.44-5.92 6.93-11.49-.51-5.58 2.2-13.01-1.35-14.87-3.55-1.86-11.32-6.59-14.03-6.59s-3.38 1.02-3.38 1.02zM174.27 288.9s-19.44 4.23-22.65 1.69M171.73 298.03c-1.35-1.35-6.76.34-7.1-.51-.34-.85-6.42 1.18-5.41-1.69 1.01-2.87-2.54 3.21-3.04-.34-.51-3.55-3.89.51-5.24-1.86M156.01 289.07c3.72-1.52 2.2-6.93 7.1-3.89 4.9 3.04 7.61-3.04 10.82-1.18M155.85 285.18s-1.18.68-3.72-.17c-2.54-.85-3.21-3.04.34-4.39 3.55-1.35 6.08 1.86 6.42-4.73M168.69 275.89c-7.77 1.52-9.97 7.77-12 8.11M179.85 258.99c0 2.87 1.52 11.49-2.54 13.86-4.06 2.37-6.42 3.55-6.42 3.55M182.89 274.37s2.37 3.55 1.18 4.56M187.28 267.61c-.51.17 14.03 6.25 11.66 3.89-2.37-2.37 9.3 3.21 5.07-.51M213.14 276.23c0 .85-.68 9.8-4.06 11.49"/><path class="st1" d="M147.06 265.58s-2.7 33.3 10.14 46.65M133.2 289.58s3.72-11.49 7.94-4.9c4.23 6.59 4.73 15.21 2.87 19.27s-7.1 15.55-7.77 16.06 1.35 3.72 1.86 4.56c.51.85-2.03 4.39-3.89-.17-1.86-4.56-13.35-9.46-13.69-10.82s-3.38-10.99-3.38-16.73c0-5.75 1.35-12.17 4.56-12.34s5.58 4.06 7.94 6.76 3.56-1.69 3.56-1.69zM126.94 262.7c0 .68.17 8.96-3.55 7.1-3.72-1.86-.17-5.07-4.9.17s-7.61 11.15-7.1 5.92M114.1 262.87c-2.2 2.7-3.89 9.8-7.44 9.46-3.55-.34-4.23-4.56-6.25-6.93-2.03-2.37 2.03-7.44 3.72-8.45 1.69-1.01 2.37.85 2.87-.85.51-1.69-4.06 2.2-3.55-1.69s4.06-.68 6.93-.85c2.87-.17 1.86-2.37 1.69-3.72s1.18-3.89 4.39-2.7c3.21 1.18 5.07 1.69 4.73 4.23-.34 2.54 1.01 4.23-2.2 6.25M72.35 257.8c2.87.34 4.39-.68 8.96-2.54 4.56-1.86 1.69-3.55.51-7.1s-3.38 2.54-6.76-4.06c-3.38-6.59.85-5.24-6.25-3.04s-7.44-4.56-8.28 0c-.85 4.56-5.07 6.59-2.03 9.46 3.04 2.87-3.55 7.61 4.56 7.27 8.11-.33 9.29.01 9.29.01zM71.85 290.93c-.17-1.52 3.72-5.92-2.2-5.75s-5.92-5.58-9.13-1.86c-3.21 3.72-3.04 3.55-3.38 6.08s0 6.59 0 8.79c0 2.2-5.41 3.38.51 3.72 5.92.34 5.24.68 8.28 3.38 3.04 2.7 3.55 7.94 6.76 2.87s3.55-2.87 1.18-9.63-2.02-7.6-2.02-7.6zM63.06 315.44s-10.31 5.07-10.65 8.79c-.34 3.72-.68 8.79-1.69 10.48-1.01 1.69-4.56 6.25 2.37 4.39 6.93-1.86-6.59 13.18 7.94-.51 14.54-13.69 14.03-10.99 13.01-15.21s-1.01-5.75-2.87-8.28c-1.86-2.54-5.92-.17-7.1.34-1.18.5-1.01 0-1.01 0zM84.18 381.18c-2.87-2.87-10.65-9.46-10.31-11.15.34-1.69 6.76.68 8.28 2.87 1.52 2.2 3.38 4.23 3.72 5.24M87.39 378.99c-2.2-4.23-9.46-11.49-6.93-11.66s9.3 3.04 13.18 4.56 4.9 3.72 6.25.51c1.35-3.21 6.76-7.27 6.76-7.27M100.75 375.27s5.24 3.72 1.18 5.92c-4.06 2.2-10.65.34-11.32.68M93.82 384.23c-4.06.51-10.48 4.06-10.48 1.18M113.76 293.8c0 1.35-11.83 18.42-12.85 27.89-1.01 9.46.34 8.96 3.04 19.1s3.38 12.17 3.72 13.18"/><path class="st1" d="M102.61 328.62c2.7 1.86 14.7 12 11.83 12-2.87 0 1.86 5.92-2.54 1.69-4.39-4.23 1.35 3.38-.68 3.21-2.03-.17 1.18 7.61-1.01 3.89-2.2-3.72-.34 5.92-1.69 4.06s2.87 5.58.85 3.89"/><path class="st1" d="M98.55 331.15c-.34 4.06-1.18 7.1.34 6.08 1.52-1.01-1.01 7.94 1.69 6.42 2.7-1.52-.68 6.93 2.2 5.75 2.87-1.18-2.37 7.27 2.2 5.58 4.56-1.69-1.86 2.7 3.04 3.72l4.9 1.01M102.61 322.03s8.96 11.49 14.54 14.03c5.58 2.54 5.24 0 6.08 1.69M112.92 287.38s-7.27-3.55-8.11 8.45 0 12.34 0 12.34M116.63 304.28c0 .51 4.73 17.24 6.59 18.59M111.56 306.65c.68.68 4.23 14.87 3.38 16.56M115.28 307.66c.51 1.86 1.18 3.21 1.35 5.75s2.2 2.2 2.37 4.56-.51 1.01-1.01 3.55 0 3.72 0 3.72"/><path class="st1" d="M123.73 326.42s-1.18 8.28 2.03 8.96c1.01.21-1.35.17-3.55-.17-2.2-.34-1.86-1.35-4.06-.34-2.2 1.01-.51-3.38-2.7-3.89-2.2-.51 1.01-5.75-2.37-6.25-3.38-.51.34-4.39-2.2-4.23-2.54.17-.68-2.37-4.9-.34M132.86 335.38c2.54-4.9 2.54-8.45-.85-10.99-3.38-2.54-5.92-2.03-7.44-.68M128.3 339.27s2.37 5.24 1.01 14.7M135.73 341.63s4.23-1.69 3.38 2.37c-.85 4.06-.17 4.56 3.38 4.73 3.55.17 3.89 1.69 3.89 3.72s1.86.51 2.03 2.54c.17 2.03 1.01 2.87 1.18 3.55M182.89 423.27c2.2.34 18.93 1.01 22.14 3.72 3.21 2.7 6.08 1.86 6.59 1.86.51 0 .51-3.55.51-3.55s2.54-4.06-2.03-2.03c-4.56 2.03 3.89-7.94-1.69-4.9s2.54-5.58-4.39-3.04.68-10.31-4.56-4.9c-5.24 5.41-7.94 6.59-10.82 7.27s-3.38-5.24-4.73-.34l-1.35 4.9M211.45 432.23c0 .51-5.75 7.44-6.59 3.55-.85-3.89 1.86 4.23-5.75-1.18s-4.06 4.23-9.97-.34c-5.92-4.56-2.87-1.86-4.9-6.25M198.27 461.63s.51-6.08 9.63-6.08c9.13 0 7.77-1.18 13.01-.68 5.24.51 6.93 3.21 6.42 4.56s7.61 3.04 5.07 6.59-1.01 5.07-4.06 4.73c-3.04-.34-1.35 3.89-5.75 2.7s-4.23 3.21-8.62 1.52c-4.39-1.69-4.39 4.06-8.62.68-4.23-3.38-5.24-1.01-6.08-3.21M193.87 468.06c-2.2 0-1.35-.17-5.41 0-4.06.17-4.9 3.55-4.9 6.59s.34 4.06-1.52 6.25c-1.86 2.2-1.18 11.15-1.52 12.68"/><path class="st1" d="M197.42 467.72c1.01 1.35 5.92 8.45 6.08 11.49.17 3.04 1.69 1.35 1.35 5.92s3.89 3.04 2.03 6.93c-1.86 3.89-.85 4.39-2.54 5.41M189.31 506.08c-4.39-7.61-2.2 3.72-3.89-2.87s-11.83 13.01-10.82 6.08M135.9 509.97c-9.13 1.52-12.34 1.69-10.31 7.44 2.03 5.75-1.01 10.31 4.39 11.66 5.41 1.35 19.61-4.56 19.61-4.56"/><path class="st1" d="M146.38 515.55c-4.73-5.92-9.8-6.93-11.49-5.58M132.69 507.1c1.35-3.21.68-7.77 2.87-8.45 2.2-.68 1.01 2.87 5.75 4.73s7.61-2.87 7.94-5.58M132.18 472.79c-3.38 2.03-.68 4.06-4.23 5.24s-6.08-2.37-7.94 0-3.89 4.39-5.75 7.61M121.87 496.11l2.7 44.28s-16.39 12.51-30.59 0l-1.01-45.46"/><ellipse class="st1" cx="107.68" cy="494.42" rx="14.7" ry="6.25"/><ellipse class="st1" cx="253.54" cy="461.46" rx="13.86" ry="6.08"/><ellipse class="st1" cx="416.3" cy="442.54" rx="13.69" ry="4.9"/><ellipse class="st1" cx="417.82" cy="405.18" rx="11.49" ry="4.06"/><path class="st1" d="m405.82 405.86.5 32.11M44.76 419.97c1.14.51 5.32-2.03 6.72 1.01 1.39 3.04 1.52 4.69 1.9 5.83.38 1.14 1.77 3.04 2.92 3.42 1.14.38 1.9-2.41 1.9.63s.13 8.49 1.65 9c1.52.51 0 5.07-3.42 5.07s-6.59 2.03-9.38 2.66c-2.79.63-2.66 2.92-4.82-.25s-4.31-4.06-6.85-4.06-2.79 2.66-3.04-.51.13-8.11.13-8.11-2.15 6.21-1.27-.38c.89-6.59-.89-7.99 1.9-8.87 2.79-.89 2.92-4.06 5.96-4.06s2.28-4.31 4.31-2.92c2.02 1.42 1.39 1.54 1.39 1.54zM66.18 410.21c1.95.34 7.99 3.68 7.99 6.59s.38 4.82 2.79 3.3c2.41-1.52 4.56-3.8 5.96-3.93 1.39-.13-1.39 1.01-.25 3.68 1.14 2.66.25 5.2 2.66 5.96 2.41.76 3.8.13 7.61 1.01 3.8.89 10.27-1.01 10.77-4.94.51-3.93 3.42-4.56-.25-6.08s-2.54-4.82-4.31-4.06c-1.77.76.51-7.35-3.04-5.7-3.55 1.65-3.3 2.66-5.96 2.66s.89 1.77-3.42-1.77-5.83-6.08-7.61-4.56c-1.77 1.52-.38-.51-2.79-.13s-3.68.76-5.58 2.54c-1.9 1.76-8.24 4.8-4.57 5.43zM18.52 419.34c-.25-.38-2.79-2.92-3.04 2.92-.25 5.83-3.3 3.55.25 9.63s1.39 6.59 3.8 5.32 4.82-2.28 4.82-2.28"/><path class="st1" d="M12.06 419.97s2.66-2.92 2.41.63-2.03 7.61-1.27 9.51c.76 1.9 1.39 3.42 1.01 5.7-.38 2.28-.13 3.3-1.9 3.42s-1.52.38-1.9-1.9M21.94 452.68c-.63 2.28-2.41 5.32.76 10.39s-.63 5.58 4.82 8.62c5.45 3.04 5.96 4.94 7.48-.38s-2.66-7.35-.25-11.15c2.41-3.8 6.85-5.45 1.9-5.96-4.94-.51-5.07 2.28-7.99-.63s-6.72-.89-6.72-.89zM41.34 457.24c1.39 3.55-.51 9.89.76 15.97s1.27 12.42 7.86 6.46 3.8-5.7 7.61-7.23c3.8-1.52 10.52-2.79 6.34-8.11-4.18-5.32.76-9.76-4.82-7.48-5.58 2.28-4.69 5.58-10.65.38s-7.1.01-7.1.01zM62.89 448.87c.25.51 3.42-5.45 2.92.38-.51 5.83-4.44 9.38.76 9.13s2.03-3.55 7.1-2.15c5.07 1.39 4.94 1.77 7.35-1.27 2.41-3.04 5.96-1.65 3.04-5.96-2.92-4.31.89-4.69-4.44-5.32s-2.41-5.58-6.72-2.28c-4.31 3.3-9.25 1.39-9.25 1.39M63.39 430.11c2.28 2.54 8.37.63 11.54-.76s3.8-1.65 5.83.38c2.03 2.03 8.24-1.01 2.79 3.3s-7.99 3.3-8.62 5.45M93.44 437.85c.38 2.15 2.66 2.79 4.56 5.96 1.9 3.17.76 5.2 4.18 4.82 3.42-.38 5.32-2.54 9.89 1.14 4.56 3.68 5.45 2.03 6.46 4.94s.76 3.42 1.01 4.56M121.32 454.2c1.52 0 4.31 3.17 4.56-.13s3.55-1.9 3.93-3.68c.38-1.77-.13.38-4.06-3.42-3.93-3.8-4.06-5.45-5.58-3.8s-2.66 2.03-1.77-2.28c.89-4.31 5.96-5.83 2.79-5.96-3.17-.13-2.66 1.39-6.59 2.28-3.93.89-5.7-1.14-8.37-1.9-2.66-.76-2.66 0-6.59 1.39M87.35 474.99c4.18-.51 6.85.13 9.38-2.15 2.54-2.28 5.58 2.28 4.44-2.28s-.76-3.93-.51-5.83 1.65-4.06-.89-4.31-3.55 4.56-5.45 3.8-2.03-2.66-2.92-4.06c-.89-1.39.38-2.92-2.92-.13s-3.55.13-4.44 1.27c-.89 1.14-1.14 0-2.66 3.17s-1.52 2.03-2.15 3.3c-.63 1.27-3.68 1.27.63 2.15s4.18-.63 4.82.89c.63 1.52-2.28 2.54 0 3.55M66.18 484.37c.89-.25 1.65-6.46 4.69-1.52s3.17 6.72 5.45 7.23c2.28.51 4.44-1.9 2.41 3.04-2.03 4.94 1.77 5.07-3.93 6.34s-3.93-1.39-8.37 2.15c-4.44 3.55-3.3 4.56-5.32 3.04-2.03-1.52-4.56-1.52-4.82-4.56-.25-3.04-.25-2.41-.25-5.83s-1.65-6.72 3.42-7.35c5.07-.63 5.58-3.17 7.23-2.15"/><path class="st1" d="M43.11 492.35c6.34-.13 7.1 1.65 8.49-1.39 1.39-3.04 5.07-7.23 3.17-7.23s-7.1.38-7.99-.25c-.89-.63-4.44-3.55-6.46-2.15s-6.59-1.27-3.68 4.82M21.69 440.25c.51 3.3.89 3.93-1.65 4.69s-4.82-4.31-4.18 1.39c.63 5.7-.76 2.15.76 6.59 1.52 4.44 2.15 4.18 1.65 6.21-.51 2.03-.25 5.07 1.39 7.23 1.65 2.15 5.2 5.83 6.08 6.59M11.68 452.68c-2.28-2.41-.51 1.01-2.66-5.45-2.15-6.46-2.15-2.28-3.68-8.11s-3.04-7.1-.89-9.38c2.15-2.28 1.9-.76 1.9-7.48 0-6.72-4.06-10.65-.25-12.93s6.21-3.55 6.85-7.99c.63-4.44-1.9-6.21-2.79-7.23M22.2 392.97c4.18-3.04 3.04-3.68 7.86-6.59s6.21-2.41 5.83-5.07c-.38-2.66-2.15-4.82-1.77-6.97.38-2.15 2.28-3.04-.51-3.55-2.79-.51-2.15 3.55-2.79-.51-.63-4.06-2.03-6.59-2.03-6.59s1.01-1.39-2.54 1.27-5.7 1.77-7.73 2.66-.63.38-2.79 5.83c-2.15 5.45-2.92 5.2-4.44 8.11s-7.23 2.79-4.06 6.08-2.03 6.08 2.79 5.32 5.96 1.65 9.38 1.27 2.8-1.26 2.8-1.26z"/><path class="st1" d="M40.2 371.68c-.13-1.01-1.39-4.44 2.92-3.3s2.92.89 4.31 1.14c1.39.25 4.31-3.3 6.21-.89 1.9 2.41 1.39 2.28 2.79 4.44 1.39 2.15 5.58-.13 4.31 3.04s2.79 5.2-2.15 6.21-1.9 6.72-8.49 7.86-9.51 3.8-11.66 5.2-2.92.25-5.07 3.04c-2.15 2.79-1.9 4.94-3.04 2.03-1.14-2.92-2.15-.25-1.77-3.17.38-2.92 2.79-2.03 5.32-6.97 2.54-4.94 1.14-13.06 3.42-16.48 2.26-3.42 2.9-2.15 2.9-2.15zM57.31 387.65c-1.01 3.17-4.94 8.49-3.55 11.28 1.39 2.79 2.54 3.93 5.7-3.42s3.3-6.34 2.66-9M63.65 386.63c.38 2.66-.13 9.38 1.01 7.61.86-1.34 1.93-4.4 2.41-5.83.16-.47.25-.76.25-.76"/><path class="st1" d="M68.72 394.11c.25 1.01 3.42 3.42 3.68-1.65.25-5.07 0-5.7-1.27-7.86-1.27-2.15-3.17 3.42-3.68-.13-.51-3.55 1.52-2.41 3.55-4.18s2.66-.63 2.66-4.56.25-3.8-1.52-5.07c-1.77-1.27-2.15-4.69-2.15-4.69s-.63-2.03-2.79-1.39c-2.15.63-8.75 5.83-8.87 3.8-.13-2.03 2.66-.89 2.92-3.8s-2.79-4.69-3.68-4.44c-.89.25-3.04 2.66-2.41 5.7.63 3.04.63 4.56 2.03 6.21s7.23-2.03 7.35.76-3.3 3.3-3.3 3.3"/><path class="st1" d="M63.52 360.52c.63 0 7.86-3.55 8.11-1.27.25 2.28 1.65 2.41-1.14 2.41s-3.04 1.27-3.04 2.15-2.15-1.65-4.06.13M81.9 346.83c-.13-1.65 2.66-3.68 2.92-1.77.25 1.9 6.59-3.04 5.96-.89-.63 2.15-2.54 3.42-2.03 4.18.51.76 4.44 3.42 1.27 2.66-3.17-.76-6.46 1.39-7.48 1.77s-1.65-.51-2.66-1.14-3.42-1.27-3.04-2.54 4.44-1.65 4.44-1.65M62.63 352.03s-.38-2.92 1.9-1.9c2.28 1.01 4.06-1.14 3.55 1.65-.51 2.79.38 3.8-2.66 4.06-3.04.25-2.92 1.14-3.04.25-.13-.89-.38-3.68-.38-3.68M81.65 338.34c.63.38 2.92-3.55 3.93 0 1.01 3.55 3.93 2.92 5.58 3.55 1.65.63 3.04 3.04 3.42 1.77M74.55 330.23c-.89.89.25-.76-1.39 4.94s-.63 4.31-1.01 6.72-6.59 0-2.15 2.66c4.44 2.66 3.8 1.77 7.1 1.01M83.93 329.08c1.14-2.79 3.04.25 3.42-5.07s-.38-5.45-2.03-7.35c-1.65-1.9 2.92-3.55-.51-1.27M89 315.14c2.54.13 7.73.76 8.37 3.42.63 2.66 3.68 2.92.63 5.96-3.04 3.04-2.79 3.93-4.44 2.92-1.65-1.01-2.15-2.03-2.92-3.3M76.32 329.34c-.51-1.9.13-5.83 1.77-9.38 1.65-3.55 3.42-3.93 5.2-5.32 1.77-1.39 2.28-2.03 2.28-2.03M77.97 331.62c3.55-.38 4.06.25 5.58-.38M82.41 292.32s1.9 4.31.51 7.61c-1.39 3.3 0 6.08-2.92 1.65-2.92-4.44-4.69-5.96-4.69-5.96M76.58 291.69c.25-.38 5.96-3.93 6.72-8.37.76-4.44.76-5.32.76-5.32M81.01 269.76c0 1.27-.38 4.44-2.79 8.11-2.41 3.68-2.79 4.44-2.79 4.44"/><path class="st1" d="M78.23 267.61c-1.52 1.9-4.18 7.61-3.68 9.76.51 2.15.76 7.86.76 7.86M86.85 282.56c-.08-.09.42.08.83.16 1.27.26 3.69.61 5.89-.92 2.92-2.03 5.58-2.66 5.83-1.14.25 1.52 1.14 2.66.25 6.08-.89 3.42-2.92 7.35-4.94 7.99-2.03.63-5.07 1.77-5.45 2.66-.38.89 1.65-1.65.25-4.06-1.39-2.41-4.82-2.28-4.69-2.66s3.04-6.97 2.03-8.11zM224.38 332l1.27 98.37M199.03 328.45l1.77 77.58M105.23 380.42c-.51 0-4.69-2.03-3.93 2.41.76 4.44 1.65 7.99 2.41 6.34.76-1.65-.76 5.32 2.54 4.31 3.3-1.01 1.52.13 4.69 3.17s2.03-3.42 2.92-8.87c.89-5.45 5.45 1.52 3.42-3.68-2.03-5.2-4.18-7.23-6.46-5.2s-4.69-.13-5.32-.38c-.65-.25-.27 1.9-.27 1.9zM84.31 387.39c-.89 0-6.08-4.44-6.72-1.27-.63 3.17-3.04 6.34 2.03 9.76s4.31 9.63 7.48 9c3.17-.63 7.48-1.77 7.48-1.14 0 .63 5.45-1.65 3.17-4.06-2.28-2.41-2.92-10.52-5.2-11.41-2.28-.88-8.24-.88-8.24-.88zM45.39 261.65c-1.3 1.62-5.2 3.68-7.35 6.21-2.15 2.54-5.07 1.65-4.44 6.21.63 4.56-1.77 6.97 4.82 6.46s11.41 1.77 10.65-2.41c-.76-4.18-2.03-5.07-1.14-9.76.89-4.68-2.03-7.35-2.54-6.71z"/><path class="st1" d="M37.92 253.66c-.38.89-7.1 13.69-8.62 16.35-1.52 2.66-1.9 2.41.76 2.41h3.17"/><path class="st1" d="M35.13 252.27c-.89-.51-11.28 1.27-5.96-5.83 5.32-7.1 5.32-5.45 6.72-9.76 1.39-4.31-2.15-8.87 2.41-6.72 4.56 2.15 6.97.76 8.37 3.17 1.39 2.41 2.54 6.85 3.3 7.86.76 1.01 3.68-.38 0 4.94s-2.28 6.34-4.31 8.24c-2.03 1.9-3.8-1.01-6.08-2.54-2.28-1.52-4.44 1.27-4.44 1.27M178.41 304.79c0 .59 1.27 22.65-.42 26.62s3.97 3.72 2.79-1.44c-1.18-5.15 2.96 3.72.85-3.13s3.38-.25 1.69-4.73 4.56.25 1.35-3.13c-3.21-3.38 2.54-1.94-.51-5.66-3.04-3.72 5.58.17 1.44-3.89-4.14-4.06-.76.17-3.55-4.48M176.21 305.38c-1.1 1.27-2.37 4.73-3.21 6.51-.85 1.77-1.18 4.23.68 3.46s-1.86 2.54.59 2.03M171.48 305.63c-2.79-1.86-3.46-2.7-5.07-3.55s.25 2.79 2.2 3.8c1.94 1.01-8.7-2.37-4.39 0s-6.08 1.77-.93 2.96c5.15 1.18-3.21 1.52-.08 2.45 3.13.93-2.45 2.03.51 3.21s.25 3.13.93 3.13M159.23 389.3c.34.51.68-8.28 3.21-4.39 2.54 3.89 7.77 5.58 9.46 5.58s-2.87 4.23-4.73 5.41c-1.86 1.18-2.7 1.86-1.86 4.73.85 2.87 2.03 3.55 4.73 3.55s12.68-1.69 15.21 0c2.54 1.69-2.37 3.04-4.56 4.23-2.2 1.18-1.35 1.69 2.03 2.54 3.38.85-.85 4.06 3.38 3.38 4.23-.68 5.92-2.87 7.61-1.69M145.03 398.59c1.35 1.69 10.65 8.62 11.83 3.38 1.18-5.24 6.93-6.93 1.35-7.77-5.58-.85-9.3 4.23-7.44.34 1.86-3.89 9.8-3.04 5.41-5.92-4.39-2.87-4.39-4.9-7.77-3.21M128.63 387.27c-4.73 5.41-14.2 10.14-4.9 10.99 9.3.85 14.03-5.07 15.72-1.18 1.69 3.89 3.72 2.54 4.73.68M135.9 412.62c.51.34 5.24 2.2 9.97 2.37 4.73.17-1.35.34-3.72 3.21s-2.37.34-6.25 3.04c-3.89 2.7-8.11 3.55-8.62 4.23s3.21 1.18-.51-2.2c-3.72-3.38-3.89-4.06-4.56-1.01-.68 3.04 1.18 4.23 2.87 8.79 1.69 4.56.34 7.44.51 10.48.17 3.04 1.01 4.06 1.69 5.07M579.31 300.65c0 .34 5.41 2.7 3.63 12s-1.27 9.04-.68 9.13M585.48 314.76c2.45 1.52 7.18.68 8.03 3.21.85 2.54 2.2 1.01 2.2 1.01M577.7 314c-.85-.59-4.9-4.82-6.42-2.7s-2.7 2.96-2.62 5.15c.08 2.2-.76 2.79 3.13 3.13 3.89.34 5.75 0 5.75 0M562.32 305.72c0 .34-5.41 2.45-1.69 2.96s-.59 4.73 3.3 2.87M579.31 296.59c2.11-1.44-4.39-3.63-4.99-5.66M582.86 299.13c1.94-2.62 2.87-6.08 4.23-8.87M587.25 301.41c3.89-1.44 8.45-5.41 9.63-6.08M586.41 307.75c3.21 1.01 2.54 1.94 4.14 2.62"/><path class="st1" d="M576.69 300.06c-.51-.59-6 .85-1.86 3.72s5.92.76 5.58 4.31.08 2.45-.76 6.08c-.85 3.63-.93 5.58-.51 6.25M593.93 333.35s1.69-5.32 3.63-1.27 3.63 3.97 1.18 5.83c-2.45 1.86-6.34-.42-6.34-.42M579.56 328.03c-.08 2.28-1.27 6.51-2.2 5.92s-3.46-.08-4.39-.76c-.93-.68-4.06-.34-3.04-3.8s.08-2.79 4.06-2.7M135.73 535.32s-5.24 3.72.51 9.8 6.76 10.65 13.69 5.92 7.1 1.01 10.65-2.03c3.55-3.04 10.48-2.7 10.65-6.76.17-4.06 2.7-2.03 5.41-4.73s-2.7-4.9 2.54-5.24M159.56 517.92c1.52 0 13.86 1.18 13.69 11.49 0 0 2.54 3.04-5.07 2.37-7.61-.68-9.13-9.8-9.13-9.8"/><path class="st1" d="M165.31 532.28c.34.51 2.2 8.45-1.01 9.63-3.21 1.18-3.89-5.24-3.89-8.79s-2.03-2.03-2.87 1.01c-.85 3.04-2.03 8.11-5.24 8.11s-9.46 1.18-7.77-5.07c1.69-6.25 1.52-8.96 1.52-8.96M157.7 518.08c-.51 0-8.28 4.06-8.96.85M88.41 481.41s-4.56 3.72-.85 6.08c3.72 2.37 3.04 6.08 5.75 2.7s7.61-.34 7.77-4.73c.17-4.39-.51-4.9-3.89-5.41s-3.38-1.69-4.73-1.35M75.06 468.06c-1.86 1.01-7.61 5.92-7.77 9.13s7.94 3.04 9.97-1.01M110.38 401.97s-7.1 2.87-2.87 8.79-2.03 13.86 4.39 13.35c6.42-.51 9.13-11.15 11.83-15.04 2.7-3.89 5.92-5.75 9.3-3.04M31.96 359.72s-.51-4.39 2.7-2.54-4.39-8.11 1.35-6.25c5.75 1.86-.17 3.38 7.27-3.38s9.13-8.45 9.13-8.45M43.96 282.48c.17.51 1.52 4.73-.68 7.27-2.2 2.54-4.06 2.03-1.18 3.89 2.87 1.86 3.38-2.2 3.38 2.03s-1.52 7.61 0 10.82 4.73.68 2.03 7.1c-2.7 6.42.68 4.73 0 9.8s2.54 3.55 3.55 2.87M55.45 212.68c-3.38.17-1.86-3.89-6.93-.68s-5.58 3.89-6.42 3.89-3.21-1.86-3.89 1.18c-.68 3.04-.17 5.75-3.04 6.76-2.87 1.01-1.18-1.86-3.38 4.9s-2.2 6.08-3.04 9.97.17 4.73.68 3.89M109.03 467.63c2.92 2.92 8.24.38 3.68 7.35-4.56 6.97-5.7 8.87-6.85 8.37M115.49 466.87c2.54-1.14 5.7-4.31 5.7-5.2M164.55 455.59c1.77.63 10.65 7.23 13.31 2.79M177.35 451.28c3.3-1.27 3.68-3.04 7.1-6.21 3.42-3.17 7.48-.89 6.21-5.58-1.27-4.69-9.76-7.61-11.79-4.31s.25 1.9-.89 6.85-2.15 5.32-2.66 5.32c-.51 0-.76 2.54-.76 2.54M182.93 452.55c4.56.51 13.94-3.04 10.77-1.14M179.76 460.03c3.8 0 17.87-5.07 13.31-1.65M174.69 464.46c2.41 1.52 13.56 1.9 7.61 4.56M175.2 470.3s5.45 9.51 1.77 7.73M168.35 473.59v-6.34M166.07 462.06s-1.01 2.79-1.01 5.83.76 2.41 1.14 4.69l.38 2.28M162.77 465.48c-2.54-4.06-3.42-6.21-5.2-5.32-1.77.89-3.04 1.27-5.58 3.8-2.54 2.54-3.04 5.32-8.37 5.2-5.32-.13-10.39 1.65-10.52 2.41M220.89 453.5c-.32-.25.51-2.73-2.15-2.79s-7.48-1.39-8.56-1.46c-1.08-.06-5.58.38-6.53 1.46-.95 1.08-1.01 1.9-1.65 3.11-.63 1.2-1.77 1.77-.44 1.96M363.9 304.28c-1.52 2.7 1.18 8.79-2.87 7.44s-1.35 7.94-4.56 5.58c-3.21-2.37-5.41 4.39-5.41 4.39s-1.52.51-1.69-1.18M369.14 291.77c-1.69.51-4.06-1.52-5.24 2.87-1.18 4.39-12.68 5.24-9.13 5.92 3.55.68-4.39 3.04-2.7 5.24 1.69 2.2-2.87 3.89-1.69 6.76s-1.69 4.39-1.35 5.58M379.45 286.2c-2.87 3.38-4.06.17-5.92 8.28M385.87 285.35c0 8.11 2.87 14.2-.51 13.35-3.38-.85-.68 4.9-4.06 2.54-3.38-2.37-4.9 6.25-5.41 5.07M417.14 298.54c-.68 1.18-4.39 4.39-3.72 10.14s6.08 1.52 8.28 7.44 2.2 7.94 2.2 9.13M432.69 308.17c.68 3.21.68 12.51-1.35 14.87-2.03 2.37-3.38 4.73-3.89 5.58M435.9 296.34s-10.65 4.39-10.48 9.97c0 0 10.31.85 12.17-3.55M439.62 311.89s3.21 9.8 2.2 14.7c-1.01 4.9-4.9.34-5.92-7.94M489.48 310.03c2.7-1.52 7.61-4.06 7.61-4.06M491.85 318.82c1.86-.51 13.52-8.11 13.52-8.11M313.37 32.97c2.03.76 13.06 1.27 9.13 3.93-3.93 2.66.51 2.54 0 6.08-.51 3.55 5.83 3.55 4.18 6.34-1.65 2.79-2.41 3.17-2.92 5.96-.51 2.79-2.54 8.11.13 11.28M318.18 63.77c-1.9-3.17-3.17-5.7-6.08-8.49-2.92-2.79-3.55-3.42-2.79-6.97M326.42 72.65c3.04 2.79 2.15 6.97 6.46 8.49M244.15 49.32c-.76.25-9.38 1.77-8.37 7.48M246.18 77.21c2.41.25 7.73-4.82 10.9-4.82M238.07 71.38c-.25-3.3-6.08.25-2.66-3.93M228.31 57.44c-.51 2.03-3.93 5.07 1.77 3.55M412.66 106.96c.17.34-1.77 5.32 2.03 6.68 3.8 1.35 5.49 5.15 5.92 6M404.13 99.01c2.03.51 6.46-1.01 10.14 2.03 3.68 3.04 6.59 4.82 8.24 4.82M399.44 109.79c.51.89 3.3 7.23 7.1 8.24s5.58 0 4.44 4.69-3.8 7.61-3.93 8.49M387.77 70.24s7.48 4.94 6.08 10.39c-1.39 5.45-.63 9.38.25 13.06s-2.15 6.59 1.52 9.76 10.01 4.82 10.01 4.82M395.13 69.86c.51.13 9 4.94 13.56 7.48 4.56 2.54 7.1 2.54 7.48 5.58.38 3.04 5.07 7.73 5.07 7.73M399.31 75.18c.63 1.9-2.03 8.24 3.04 9.63s6.59.63 6.72 3.42c.13 2.79.25 3.17 3.8 6.72M425.8 107.13s3.93 5.58 5.45 12.93 4.18 8.87 4.18 10.9.25 2.15.25 5.07M428.85 116.13c0 2.66-.89 3.17-1.14 7.35s-1.77 3.93-1.52 7.35M405.14 133.62s-4.31 8.62-6.85 11.03-5.07 9.25-4.82 13.69"/><path class="st1" d="M403.62 131.72s-6.21 1.77-5.58 5.07c.63 3.3 1.14 6.34 1.14 6.34M407.8 132.99c-.13.51 1.14 3.55-3.55 7.73-4.69 4.18-4.18 4.82-4.06 7.73.13 2.92 0 4.18 0 4.18M417.31 113.08c2.03 1.01 6.21-2.15 6.85 2.92.63 5.07-.13 6.21-.63 7.1M417.31 117.52c-1.14.89.51 2.54-2.92 7.35-3.42 4.82-.89 3.17-3.42 4.82M386.76 83.8s1.01 8.75-.25 9.25-1.14 1.9 0 5.07 1.39 2.66 4.82 5.45M396.39 65.8c.89 2.28 5.07.13 7.1 3.42 2.03 3.3 3.17 4.56 4.94 5.45s1.65 2.15 1.9 2.66M412.24 83.17c-1.65-1.39-3.17-5.2-3.68-1.9-.51 3.3 1.39 1.9 2.54 5.58 1.14 3.68 3.8 1.27 4.94 3.68 1.14 2.41 3.42 2.15 2.92 4.94-.51 2.79 5.96 4.94 8.49 4.94M243.39 62.68c-2.54 2.45-6.08 2.54-6.17 2.03M251.51 69.27c-2.03 1.01-5.66.08-6.76 4.39-1.1 4.31-7.1 3.3-8.87 2.87M228.94 65.55c-2.7 2.87-3.89 2.87-4.99 1.44M233.51 53.8c-.17-1.52-1.18-11.07-2.7-5.07M238.24 40.62c6.51-.76 4.9-2.79 8.03-3.8M319.45 441.69l11.66 38.03"/></g></svg>