<svg width="115" height="29" viewBox="0 0 115 29" fill="none" xmlns="http://www.w3.org/2000/svg">
<path d="M51.2643 20.7617H61.2182V17.8272H54.5979V5.1031H51.2643V20.7617ZM62.1594 12.9441C62.1594 17.6629 65.6104 21.0434 70.3291 21.0434C75.0713 21.0434 78.5223 17.6629 78.5223 12.9441C78.5223 8.22543 75.0713 4.84486 70.3291 4.84486C65.6104 4.84486 62.1594 8.22543 62.1594 12.9441ZM75.0948 12.9441C75.0948 15.8552 73.2167 18.0854 70.3291 18.0854C67.4416 18.0854 65.5869 15.8552 65.5869 12.9441C65.5869 10.0096 67.4416 7.80286 70.3291 7.80286C73.2167 7.80286 75.0948 10.0096 75.0948 12.9441ZM80.1105 12.9441C80.1105 17.8741 83.8666 21.0669 88.4445 21.0669C91.2851 21.0669 93.5154 19.8931 95.1117 18.1089V12.1225H87.6463V14.9866H91.8251V16.8881C91.1443 17.4985 89.8766 18.0854 88.4445 18.0854C85.6039 18.0854 83.538 15.9021 83.538 12.9441C83.538 9.98615 85.6039 7.80286 88.4445 7.80286C90.0878 7.80286 91.426 8.67148 92.1537 9.77486L94.9239 8.27239C93.7266 6.41777 91.6842 4.84486 88.4445 4.84486C83.8666 4.84486 80.1105 7.99067 80.1105 12.9441ZM97.0069 12.9441C97.0069 17.6629 100.458 21.0434 105.177 21.0434C109.919 21.0434 113.37 17.6629 113.37 12.9441C113.37 8.22543 109.919 4.84486 105.177 4.84486C100.458 4.84486 97.0069 8.22543 97.0069 12.9441ZM109.942 12.9441C109.942 15.8552 108.064 18.0854 105.177 18.0854C102.289 18.0854 100.434 15.8552 100.434 12.9441C100.434 10.0096 102.289 7.80286 105.177 7.80286C108.064 7.80286 109.942 10.0096 109.942 12.9441Z" fill="#ECDFC6"/>
<circle cx="14.5" cy="14.5" r="14.5" fill="#EF5C42"/>
</svg>
